<?xml version="1.0" encoding="UTF-8" standalone="no"?>
<svg width="677.333mm" height="333.375mm"
 viewBox="0 0 1920 945"
 xmlns="http://www.w3.org/2000/svg" xmlns:xlink="http://www.w3.org/1999/xlink"  version="1.2" baseProfile="tiny">
<title>Qt SVG Document</title>
<desc>Generated with Qt</desc>
<defs>
</defs>
<g fill="none" stroke="black" stroke-width="1" fill-rule="evenodd" stroke-linecap="square" stroke-linejoin="bevel" >

<g fill="none" stroke="#000000" stroke-opacity="1" stroke-width="1" stroke-linecap="square" stroke-linejoin="bevel" transform="matrix(1,0,0,1,0,0)"
font-family="Cantarell" font-size="11" font-weight="400" font-style="normal" 
>
</g>

<g fill="none" stroke="#000000" stroke-opacity="1" stroke-width="1" stroke-linecap="square" stroke-linejoin="bevel" transform="matrix(1.00209,0,0,1.00209,0,0)"
font-family="Cantarell" font-size="11" font-weight="400" font-style="normal" 
>
</g>

<g fill="none" stroke="#000000" stroke-opacity="1" stroke-width="1" stroke-linecap="round" stroke-linejoin="round" transform="matrix(1.00209,0,0,1.00209,0,0)"
font-family="Cantarell" font-size="11" font-weight="400" font-style="normal" 
>
<polyline fill="none" vector-effect="none" points="45.5,910.5 51.5,910.5 " />
<polyline fill="none" vector-effect="none" points="1894.5,910.5 1888.5,910.5 " />
</g>

<g fill="none" stroke="#000000" stroke-opacity="1" stroke-width="1" stroke-linecap="square" stroke-linejoin="bevel" transform="matrix(1.00209,0,0,1.00209,0,0)"
font-family="Cantarell" font-size="11" font-weight="400" font-style="normal" 
>
</g>

<g fill="none" stroke="#000000" stroke-opacity="1" stroke-width="1" stroke-linecap="square" stroke-linejoin="bevel" transform="matrix(1.00209,0,0,1.00209,20.0418,917.411)"
font-family="Cantarell" font-size="11" font-weight="400" font-style="normal" 
>
</g>

<g fill="none" stroke="#000000" stroke-opacity="1" stroke-width="1" stroke-linecap="square" stroke-linejoin="bevel" transform="matrix(1.00209,0,0,1.00209,20.0418,917.411)"
font-family="Cantarell" font-size="11" font-weight="400" font-style="normal" 
>
</g>

<g fill="none" stroke="#000000" stroke-opacity="1" stroke-width="1" stroke-linecap="square" stroke-linejoin="bevel" transform="matrix(1.00209,0,0,1.00209,20.0418,917.411)"
font-family="Cantarell" font-size="11" font-weight="400" font-style="normal" 
>
</g>

<g fill="none" stroke="#000000" stroke-opacity="1" stroke-width="1" stroke-linecap="square" stroke-linejoin="bevel" transform="matrix(1.00209,0,0,1.00209,20.0418,917.411)"
font-family="Cantarell" font-size="11" font-weight="400" font-style="normal" 
>
</g>

<g fill="none" stroke="#000000" stroke-opacity="1" stroke-width="1" stroke-linecap="square" stroke-linejoin="bevel" transform="matrix(1.00209,0,0,1.00209,20.0418,917.411)"
font-family="Cantarell" font-size="11" font-weight="400" font-style="normal" 
>
</g>

<g fill="none" stroke="#000000" stroke-opacity="1" stroke-width="1" stroke-linecap="square" stroke-linejoin="bevel" transform="matrix(1.00209,0,0,1.00209,20.0418,917.411)"
font-family="Sans" font-size="9" font-weight="400" font-style="normal" 
>
<text fill="#000000" fill-opacity="1" stroke="none" xml:space="preserve" x="0" y="0" font-family="Sans" font-size="9" font-weight="400" font-style="normal" 
 > 20</text>
</g>

<g fill="none" stroke="#000000" stroke-opacity="1" stroke-width="1" stroke-linecap="square" stroke-linejoin="bevel" transform="matrix(1.00209,0,0,1.00209,20.0418,917.411)"
font-family="Cantarell" font-size="11" font-weight="400" font-style="normal" 
>
</g>

<g fill="none" stroke="#000000" stroke-opacity="1" stroke-width="1" stroke-linecap="square" stroke-linejoin="bevel" transform="matrix(1.00209,0,0,1.00209,0,0)"
font-family="Cantarell" font-size="11" font-weight="400" font-style="normal" 
>
</g>

<g fill="none" stroke="#000000" stroke-opacity="1" stroke-width="1" stroke-linecap="round" stroke-linejoin="round" transform="matrix(1.00209,0,0,1.00209,0,0)"
font-family="Cantarell" font-size="11" font-weight="400" font-style="normal" 
>
<polyline fill="none" vector-effect="none" points="45.5,798.5 51.5,798.5 " />
<polyline fill="none" vector-effect="none" points="1894.5,798.5 1888.5,798.5 " />
</g>

<g fill="none" stroke="#000000" stroke-opacity="1" stroke-width="1" stroke-linecap="square" stroke-linejoin="bevel" transform="matrix(1.00209,0,0,1.00209,0,0)"
font-family="Cantarell" font-size="11" font-weight="400" font-style="normal" 
>
</g>

<g fill="none" stroke="#000000" stroke-opacity="1" stroke-width="1" stroke-linecap="square" stroke-linejoin="bevel" transform="matrix(1.00209,0,0,1.00209,20.0418,805.177)"
font-family="Cantarell" font-size="11" font-weight="400" font-style="normal" 
>
</g>

<g fill="none" stroke="#000000" stroke-opacity="1" stroke-width="1" stroke-linecap="square" stroke-linejoin="bevel" transform="matrix(1.00209,0,0,1.00209,20.0418,805.177)"
font-family="Cantarell" font-size="11" font-weight="400" font-style="normal" 
>
</g>

<g fill="none" stroke="#000000" stroke-opacity="1" stroke-width="1" stroke-linecap="square" stroke-linejoin="bevel" transform="matrix(1.00209,0,0,1.00209,20.0418,805.177)"
font-family="Cantarell" font-size="11" font-weight="400" font-style="normal" 
>
</g>

<g fill="none" stroke="#000000" stroke-opacity="1" stroke-width="1" stroke-linecap="square" stroke-linejoin="bevel" transform="matrix(1.00209,0,0,1.00209,20.0418,805.177)"
font-family="Cantarell" font-size="11" font-weight="400" font-style="normal" 
>
</g>

<g fill="none" stroke="#000000" stroke-opacity="1" stroke-width="1" stroke-linecap="square" stroke-linejoin="bevel" transform="matrix(1.00209,0,0,1.00209,20.0418,805.177)"
font-family="Cantarell" font-size="11" font-weight="400" font-style="normal" 
>
</g>

<g fill="none" stroke="#000000" stroke-opacity="1" stroke-width="1" stroke-linecap="square" stroke-linejoin="bevel" transform="matrix(1.00209,0,0,1.00209,20.0418,805.177)"
font-family="Sans" font-size="9" font-weight="400" font-style="normal" 
>
<text fill="#000000" fill-opacity="1" stroke="none" xml:space="preserve" x="0" y="0" font-family="Sans" font-size="9" font-weight="400" font-style="normal" 
 > 30</text>
</g>

<g fill="none" stroke="#000000" stroke-opacity="1" stroke-width="1" stroke-linecap="square" stroke-linejoin="bevel" transform="matrix(1.00209,0,0,1.00209,20.0418,805.177)"
font-family="Cantarell" font-size="11" font-weight="400" font-style="normal" 
>
</g>

<g fill="none" stroke="#000000" stroke-opacity="1" stroke-width="1" stroke-linecap="square" stroke-linejoin="bevel" transform="matrix(1.00209,0,0,1.00209,0,0)"
font-family="Cantarell" font-size="11" font-weight="400" font-style="normal" 
>
</g>

<g fill="none" stroke="#000000" stroke-opacity="1" stroke-width="1" stroke-linecap="round" stroke-linejoin="round" transform="matrix(1.00209,0,0,1.00209,0,0)"
font-family="Cantarell" font-size="11" font-weight="400" font-style="normal" 
>
<polyline fill="none" vector-effect="none" points="45.5,686.5 51.5,686.5 " />
<polyline fill="none" vector-effect="none" points="1894.5,686.5 1888.5,686.5 " />
</g>

<g fill="none" stroke="#000000" stroke-opacity="1" stroke-width="1" stroke-linecap="square" stroke-linejoin="bevel" transform="matrix(1.00209,0,0,1.00209,0,0)"
font-family="Cantarell" font-size="11" font-weight="400" font-style="normal" 
>
</g>

<g fill="none" stroke="#000000" stroke-opacity="1" stroke-width="1" stroke-linecap="square" stroke-linejoin="bevel" transform="matrix(1.00209,0,0,1.00209,20.0418,692.944)"
font-family="Cantarell" font-size="11" font-weight="400" font-style="normal" 
>
</g>

<g fill="none" stroke="#000000" stroke-opacity="1" stroke-width="1" stroke-linecap="square" stroke-linejoin="bevel" transform="matrix(1.00209,0,0,1.00209,20.0418,692.944)"
font-family="Cantarell" font-size="11" font-weight="400" font-style="normal" 
>
</g>

<g fill="none" stroke="#000000" stroke-opacity="1" stroke-width="1" stroke-linecap="square" stroke-linejoin="bevel" transform="matrix(1.00209,0,0,1.00209,20.0418,692.944)"
font-family="Cantarell" font-size="11" font-weight="400" font-style="normal" 
>
</g>

<g fill="none" stroke="#000000" stroke-opacity="1" stroke-width="1" stroke-linecap="square" stroke-linejoin="bevel" transform="matrix(1.00209,0,0,1.00209,20.0418,692.944)"
font-family="Cantarell" font-size="11" font-weight="400" font-style="normal" 
>
</g>

<g fill="none" stroke="#000000" stroke-opacity="1" stroke-width="1" stroke-linecap="square" stroke-linejoin="bevel" transform="matrix(1.00209,0,0,1.00209,20.0418,692.944)"
font-family="Cantarell" font-size="11" font-weight="400" font-style="normal" 
>
</g>

<g fill="none" stroke="#000000" stroke-opacity="1" stroke-width="1" stroke-linecap="square" stroke-linejoin="bevel" transform="matrix(1.00209,0,0,1.00209,20.0418,692.944)"
font-family="Sans" font-size="9" font-weight="400" font-style="normal" 
>
<text fill="#000000" fill-opacity="1" stroke="none" xml:space="preserve" x="0" y="0" font-family="Sans" font-size="9" font-weight="400" font-style="normal" 
 > 40</text>
</g>

<g fill="none" stroke="#000000" stroke-opacity="1" stroke-width="1" stroke-linecap="square" stroke-linejoin="bevel" transform="matrix(1.00209,0,0,1.00209,20.0418,692.944)"
font-family="Cantarell" font-size="11" font-weight="400" font-style="normal" 
>
</g>

<g fill="none" stroke="#000000" stroke-opacity="1" stroke-width="1" stroke-linecap="square" stroke-linejoin="bevel" transform="matrix(1.00209,0,0,1.00209,0,0)"
font-family="Cantarell" font-size="11" font-weight="400" font-style="normal" 
>
</g>

<g fill="none" stroke="#000000" stroke-opacity="1" stroke-width="1" stroke-linecap="round" stroke-linejoin="round" transform="matrix(1.00209,0,0,1.00209,0,0)"
font-family="Cantarell" font-size="11" font-weight="400" font-style="normal" 
>
<polyline fill="none" vector-effect="none" points="45.5,574.5 51.5,574.5 " />
<polyline fill="none" vector-effect="none" points="1894.5,574.5 1888.5,574.5 " />
</g>

<g fill="none" stroke="#000000" stroke-opacity="1" stroke-width="1" stroke-linecap="square" stroke-linejoin="bevel" transform="matrix(1.00209,0,0,1.00209,0,0)"
font-family="Cantarell" font-size="11" font-weight="400" font-style="normal" 
>
</g>

<g fill="none" stroke="#000000" stroke-opacity="1" stroke-width="1" stroke-linecap="square" stroke-linejoin="bevel" transform="matrix(1.00209,0,0,1.00209,20.0418,580.71)"
font-family="Cantarell" font-size="11" font-weight="400" font-style="normal" 
>
</g>

<g fill="none" stroke="#000000" stroke-opacity="1" stroke-width="1" stroke-linecap="square" stroke-linejoin="bevel" transform="matrix(1.00209,0,0,1.00209,20.0418,580.71)"
font-family="Cantarell" font-size="11" font-weight="400" font-style="normal" 
>
</g>

<g fill="none" stroke="#000000" stroke-opacity="1" stroke-width="1" stroke-linecap="square" stroke-linejoin="bevel" transform="matrix(1.00209,0,0,1.00209,20.0418,580.71)"
font-family="Cantarell" font-size="11" font-weight="400" font-style="normal" 
>
</g>

<g fill="none" stroke="#000000" stroke-opacity="1" stroke-width="1" stroke-linecap="square" stroke-linejoin="bevel" transform="matrix(1.00209,0,0,1.00209,20.0418,580.71)"
font-family="Cantarell" font-size="11" font-weight="400" font-style="normal" 
>
</g>

<g fill="none" stroke="#000000" stroke-opacity="1" stroke-width="1" stroke-linecap="square" stroke-linejoin="bevel" transform="matrix(1.00209,0,0,1.00209,20.0418,580.71)"
font-family="Cantarell" font-size="11" font-weight="400" font-style="normal" 
>
</g>

<g fill="none" stroke="#000000" stroke-opacity="1" stroke-width="1" stroke-linecap="square" stroke-linejoin="bevel" transform="matrix(1.00209,0,0,1.00209,20.0418,580.71)"
font-family="Sans" font-size="9" font-weight="400" font-style="normal" 
>
<text fill="#000000" fill-opacity="1" stroke="none" xml:space="preserve" x="0" y="0" font-family="Sans" font-size="9" font-weight="400" font-style="normal" 
 > 50</text>
</g>

<g fill="none" stroke="#000000" stroke-opacity="1" stroke-width="1" stroke-linecap="square" stroke-linejoin="bevel" transform="matrix(1.00209,0,0,1.00209,20.0418,580.71)"
font-family="Cantarell" font-size="11" font-weight="400" font-style="normal" 
>
</g>

<g fill="none" stroke="#000000" stroke-opacity="1" stroke-width="1" stroke-linecap="square" stroke-linejoin="bevel" transform="matrix(1.00209,0,0,1.00209,0,0)"
font-family="Cantarell" font-size="11" font-weight="400" font-style="normal" 
>
</g>

<g fill="none" stroke="#000000" stroke-opacity="1" stroke-width="1" stroke-linecap="round" stroke-linejoin="round" transform="matrix(1.00209,0,0,1.00209,0,0)"
font-family="Cantarell" font-size="11" font-weight="400" font-style="normal" 
>
<polyline fill="none" vector-effect="none" points="45.5,462.5 51.5,462.5 " />
<polyline fill="none" vector-effect="none" points="1894.5,462.5 1888.5,462.5 " />
</g>

<g fill="none" stroke="#000000" stroke-opacity="1" stroke-width="1" stroke-linecap="square" stroke-linejoin="bevel" transform="matrix(1.00209,0,0,1.00209,0,0)"
font-family="Cantarell" font-size="11" font-weight="400" font-style="normal" 
>
</g>

<g fill="none" stroke="#000000" stroke-opacity="1" stroke-width="1" stroke-linecap="square" stroke-linejoin="bevel" transform="matrix(1.00209,0,0,1.00209,20.0418,468.476)"
font-family="Cantarell" font-size="11" font-weight="400" font-style="normal" 
>
</g>

<g fill="none" stroke="#000000" stroke-opacity="1" stroke-width="1" stroke-linecap="square" stroke-linejoin="bevel" transform="matrix(1.00209,0,0,1.00209,20.0418,468.476)"
font-family="Cantarell" font-size="11" font-weight="400" font-style="normal" 
>
</g>

<g fill="none" stroke="#000000" stroke-opacity="1" stroke-width="1" stroke-linecap="square" stroke-linejoin="bevel" transform="matrix(1.00209,0,0,1.00209,20.0418,468.476)"
font-family="Cantarell" font-size="11" font-weight="400" font-style="normal" 
>
</g>

<g fill="none" stroke="#000000" stroke-opacity="1" stroke-width="1" stroke-linecap="square" stroke-linejoin="bevel" transform="matrix(1.00209,0,0,1.00209,20.0418,468.476)"
font-family="Cantarell" font-size="11" font-weight="400" font-style="normal" 
>
</g>

<g fill="none" stroke="#000000" stroke-opacity="1" stroke-width="1" stroke-linecap="square" stroke-linejoin="bevel" transform="matrix(1.00209,0,0,1.00209,20.0418,468.476)"
font-family="Cantarell" font-size="11" font-weight="400" font-style="normal" 
>
</g>

<g fill="none" stroke="#000000" stroke-opacity="1" stroke-width="1" stroke-linecap="square" stroke-linejoin="bevel" transform="matrix(1.00209,0,0,1.00209,20.0418,468.476)"
font-family="Sans" font-size="9" font-weight="400" font-style="normal" 
>
<text fill="#000000" fill-opacity="1" stroke="none" xml:space="preserve" x="0" y="0" font-family="Sans" font-size="9" font-weight="400" font-style="normal" 
 > 60</text>
</g>

<g fill="none" stroke="#000000" stroke-opacity="1" stroke-width="1" stroke-linecap="square" stroke-linejoin="bevel" transform="matrix(1.00209,0,0,1.00209,20.0418,468.476)"
font-family="Cantarell" font-size="11" font-weight="400" font-style="normal" 
>
</g>

<g fill="none" stroke="#000000" stroke-opacity="1" stroke-width="1" stroke-linecap="square" stroke-linejoin="bevel" transform="matrix(1.00209,0,0,1.00209,0,0)"
font-family="Cantarell" font-size="11" font-weight="400" font-style="normal" 
>
</g>

<g fill="none" stroke="#000000" stroke-opacity="1" stroke-width="1" stroke-linecap="round" stroke-linejoin="round" transform="matrix(1.00209,0,0,1.00209,0,0)"
font-family="Cantarell" font-size="11" font-weight="400" font-style="normal" 
>
<polyline fill="none" vector-effect="none" points="45.5,351.5 51.5,351.5 " />
<polyline fill="none" vector-effect="none" points="1894.5,351.5 1888.5,351.5 " />
</g>

<g fill="none" stroke="#000000" stroke-opacity="1" stroke-width="1" stroke-linecap="square" stroke-linejoin="bevel" transform="matrix(1.00209,0,0,1.00209,0,0)"
font-family="Cantarell" font-size="11" font-weight="400" font-style="normal" 
>
</g>

<g fill="none" stroke="#000000" stroke-opacity="1" stroke-width="1" stroke-linecap="square" stroke-linejoin="bevel" transform="matrix(1.00209,0,0,1.00209,20.0418,356.242)"
font-family="Cantarell" font-size="11" font-weight="400" font-style="normal" 
>
</g>

<g fill="none" stroke="#000000" stroke-opacity="1" stroke-width="1" stroke-linecap="square" stroke-linejoin="bevel" transform="matrix(1.00209,0,0,1.00209,20.0418,356.242)"
font-family="Cantarell" font-size="11" font-weight="400" font-style="normal" 
>
</g>

<g fill="none" stroke="#000000" stroke-opacity="1" stroke-width="1" stroke-linecap="square" stroke-linejoin="bevel" transform="matrix(1.00209,0,0,1.00209,20.0418,356.242)"
font-family="Cantarell" font-size="11" font-weight="400" font-style="normal" 
>
</g>

<g fill="none" stroke="#000000" stroke-opacity="1" stroke-width="1" stroke-linecap="square" stroke-linejoin="bevel" transform="matrix(1.00209,0,0,1.00209,20.0418,356.242)"
font-family="Cantarell" font-size="11" font-weight="400" font-style="normal" 
>
</g>

<g fill="none" stroke="#000000" stroke-opacity="1" stroke-width="1" stroke-linecap="square" stroke-linejoin="bevel" transform="matrix(1.00209,0,0,1.00209,20.0418,356.242)"
font-family="Cantarell" font-size="11" font-weight="400" font-style="normal" 
>
</g>

<g fill="none" stroke="#000000" stroke-opacity="1" stroke-width="1" stroke-linecap="square" stroke-linejoin="bevel" transform="matrix(1.00209,0,0,1.00209,20.0418,356.242)"
font-family="Sans" font-size="9" font-weight="400" font-style="normal" 
>
<text fill="#000000" fill-opacity="1" stroke="none" xml:space="preserve" x="0" y="0" font-family="Sans" font-size="9" font-weight="400" font-style="normal" 
 > 70</text>
</g>

<g fill="none" stroke="#000000" stroke-opacity="1" stroke-width="1" stroke-linecap="square" stroke-linejoin="bevel" transform="matrix(1.00209,0,0,1.00209,20.0418,356.242)"
font-family="Cantarell" font-size="11" font-weight="400" font-style="normal" 
>
</g>

<g fill="none" stroke="#000000" stroke-opacity="1" stroke-width="1" stroke-linecap="square" stroke-linejoin="bevel" transform="matrix(1.00209,0,0,1.00209,0,0)"
font-family="Cantarell" font-size="11" font-weight="400" font-style="normal" 
>
</g>

<g fill="none" stroke="#000000" stroke-opacity="1" stroke-width="1" stroke-linecap="round" stroke-linejoin="round" transform="matrix(1.00209,0,0,1.00209,0,0)"
font-family="Cantarell" font-size="11" font-weight="400" font-style="normal" 
>
<polyline fill="none" vector-effect="none" points="45.5,239.5 51.5,239.5 " />
<polyline fill="none" vector-effect="none" points="1894.5,239.5 1888.5,239.5 " />
</g>

<g fill="none" stroke="#000000" stroke-opacity="1" stroke-width="1" stroke-linecap="square" stroke-linejoin="bevel" transform="matrix(1.00209,0,0,1.00209,0,0)"
font-family="Cantarell" font-size="11" font-weight="400" font-style="normal" 
>
</g>

<g fill="none" stroke="#000000" stroke-opacity="1" stroke-width="1" stroke-linecap="square" stroke-linejoin="bevel" transform="matrix(1.00209,0,0,1.00209,20.0418,244.008)"
font-family="Cantarell" font-size="11" font-weight="400" font-style="normal" 
>
</g>

<g fill="none" stroke="#000000" stroke-opacity="1" stroke-width="1" stroke-linecap="square" stroke-linejoin="bevel" transform="matrix(1.00209,0,0,1.00209,20.0418,244.008)"
font-family="Cantarell" font-size="11" font-weight="400" font-style="normal" 
>
</g>

<g fill="none" stroke="#000000" stroke-opacity="1" stroke-width="1" stroke-linecap="square" stroke-linejoin="bevel" transform="matrix(1.00209,0,0,1.00209,20.0418,244.008)"
font-family="Cantarell" font-size="11" font-weight="400" font-style="normal" 
>
</g>

<g fill="none" stroke="#000000" stroke-opacity="1" stroke-width="1" stroke-linecap="square" stroke-linejoin="bevel" transform="matrix(1.00209,0,0,1.00209,20.0418,244.008)"
font-family="Cantarell" font-size="11" font-weight="400" font-style="normal" 
>
</g>

<g fill="none" stroke="#000000" stroke-opacity="1" stroke-width="1" stroke-linecap="square" stroke-linejoin="bevel" transform="matrix(1.00209,0,0,1.00209,20.0418,244.008)"
font-family="Cantarell" font-size="11" font-weight="400" font-style="normal" 
>
</g>

<g fill="none" stroke="#000000" stroke-opacity="1" stroke-width="1" stroke-linecap="square" stroke-linejoin="bevel" transform="matrix(1.00209,0,0,1.00209,20.0418,244.008)"
font-family="Sans" font-size="9" font-weight="400" font-style="normal" 
>
<text fill="#000000" fill-opacity="1" stroke="none" xml:space="preserve" x="0" y="0" font-family="Sans" font-size="9" font-weight="400" font-style="normal" 
 > 80</text>
</g>

<g fill="none" stroke="#000000" stroke-opacity="1" stroke-width="1" stroke-linecap="square" stroke-linejoin="bevel" transform="matrix(1.00209,0,0,1.00209,20.0418,244.008)"
font-family="Cantarell" font-size="11" font-weight="400" font-style="normal" 
>
</g>

<g fill="none" stroke="#000000" stroke-opacity="1" stroke-width="1" stroke-linecap="square" stroke-linejoin="bevel" transform="matrix(1.00209,0,0,1.00209,0,0)"
font-family="Cantarell" font-size="11" font-weight="400" font-style="normal" 
>
</g>

<g fill="none" stroke="#000000" stroke-opacity="1" stroke-width="1" stroke-linecap="round" stroke-linejoin="round" transform="matrix(1.00209,0,0,1.00209,0,0)"
font-family="Cantarell" font-size="11" font-weight="400" font-style="normal" 
>
<polyline fill="none" vector-effect="none" points="45.5,127.5 51.5,127.5 " />
<polyline fill="none" vector-effect="none" points="1894.5,127.5 1888.5,127.5 " />
</g>

<g fill="none" stroke="#000000" stroke-opacity="1" stroke-width="1" stroke-linecap="square" stroke-linejoin="bevel" transform="matrix(1.00209,0,0,1.00209,0,0)"
font-family="Cantarell" font-size="11" font-weight="400" font-style="normal" 
>
</g>

<g fill="none" stroke="#000000" stroke-opacity="1" stroke-width="1" stroke-linecap="square" stroke-linejoin="bevel" transform="matrix(1.00209,0,0,1.00209,20.0418,131.775)"
font-family="Cantarell" font-size="11" font-weight="400" font-style="normal" 
>
</g>

<g fill="none" stroke="#000000" stroke-opacity="1" stroke-width="1" stroke-linecap="square" stroke-linejoin="bevel" transform="matrix(1.00209,0,0,1.00209,20.0418,131.775)"
font-family="Cantarell" font-size="11" font-weight="400" font-style="normal" 
>
</g>

<g fill="none" stroke="#000000" stroke-opacity="1" stroke-width="1" stroke-linecap="square" stroke-linejoin="bevel" transform="matrix(1.00209,0,0,1.00209,20.0418,131.775)"
font-family="Cantarell" font-size="11" font-weight="400" font-style="normal" 
>
</g>

<g fill="none" stroke="#000000" stroke-opacity="1" stroke-width="1" stroke-linecap="square" stroke-linejoin="bevel" transform="matrix(1.00209,0,0,1.00209,20.0418,131.775)"
font-family="Cantarell" font-size="11" font-weight="400" font-style="normal" 
>
</g>

<g fill="none" stroke="#000000" stroke-opacity="1" stroke-width="1" stroke-linecap="square" stroke-linejoin="bevel" transform="matrix(1.00209,0,0,1.00209,20.0418,131.775)"
font-family="Cantarell" font-size="11" font-weight="400" font-style="normal" 
>
</g>

<g fill="none" stroke="#000000" stroke-opacity="1" stroke-width="1" stroke-linecap="square" stroke-linejoin="bevel" transform="matrix(1.00209,0,0,1.00209,20.0418,131.775)"
font-family="Sans" font-size="9" font-weight="400" font-style="normal" 
>
<text fill="#000000" fill-opacity="1" stroke="none" xml:space="preserve" x="0" y="0" font-family="Sans" font-size="9" font-weight="400" font-style="normal" 
 > 90</text>
</g>

<g fill="none" stroke="#000000" stroke-opacity="1" stroke-width="1" stroke-linecap="square" stroke-linejoin="bevel" transform="matrix(1.00209,0,0,1.00209,20.0418,131.775)"
font-family="Cantarell" font-size="11" font-weight="400" font-style="normal" 
>
</g>

<g fill="none" stroke="#000000" stroke-opacity="1" stroke-width="1" stroke-linecap="square" stroke-linejoin="bevel" transform="matrix(1.00209,0,0,1.00209,0,0)"
font-family="Cantarell" font-size="11" font-weight="400" font-style="normal" 
>
</g>

<g fill="none" stroke="#000000" stroke-opacity="1" stroke-width="1" stroke-linecap="round" stroke-linejoin="round" transform="matrix(1.00209,0,0,1.00209,0,0)"
font-family="Cantarell" font-size="11" font-weight="400" font-style="normal" 
>
<polyline fill="none" vector-effect="none" points="45.5,15.5 51.5,15.5 " />
<polyline fill="none" vector-effect="none" points="1894.5,15.5 1888.5,15.5 " />
</g>

<g fill="none" stroke="#000000" stroke-opacity="1" stroke-width="1" stroke-linecap="square" stroke-linejoin="bevel" transform="matrix(1.00209,0,0,1.00209,0,0)"
font-family="Cantarell" font-size="11" font-weight="400" font-style="normal" 
>
</g>

<g fill="none" stroke="#000000" stroke-opacity="1" stroke-width="1" stroke-linecap="square" stroke-linejoin="bevel" transform="matrix(1.00209,0,0,1.00209,12.0251,19.5407)"
font-family="Cantarell" font-size="11" font-weight="400" font-style="normal" 
>
</g>

<g fill="none" stroke="#000000" stroke-opacity="1" stroke-width="1" stroke-linecap="square" stroke-linejoin="bevel" transform="matrix(1.00209,0,0,1.00209,12.0251,19.5407)"
font-family="Cantarell" font-size="11" font-weight="400" font-style="normal" 
>
</g>

<g fill="none" stroke="#000000" stroke-opacity="1" stroke-width="1" stroke-linecap="square" stroke-linejoin="bevel" transform="matrix(1.00209,0,0,1.00209,12.0251,19.5407)"
font-family="Cantarell" font-size="11" font-weight="400" font-style="normal" 
>
</g>

<g fill="none" stroke="#000000" stroke-opacity="1" stroke-width="1" stroke-linecap="square" stroke-linejoin="bevel" transform="matrix(1.00209,0,0,1.00209,12.0251,19.5407)"
font-family="Cantarell" font-size="11" font-weight="400" font-style="normal" 
>
</g>

<g fill="none" stroke="#000000" stroke-opacity="1" stroke-width="1" stroke-linecap="square" stroke-linejoin="bevel" transform="matrix(1.00209,0,0,1.00209,12.0251,19.5407)"
font-family="Cantarell" font-size="11" font-weight="400" font-style="normal" 
>
</g>

<g fill="none" stroke="#000000" stroke-opacity="1" stroke-width="1" stroke-linecap="square" stroke-linejoin="bevel" transform="matrix(1.00209,0,0,1.00209,12.0251,19.5407)"
font-family="Sans" font-size="9" font-weight="400" font-style="normal" 
>
<text fill="#000000" fill-opacity="1" stroke="none" xml:space="preserve" x="0" y="0" font-family="Sans" font-size="9" font-weight="400" font-style="normal" 
 > 100</text>
</g>

<g fill="none" stroke="#000000" stroke-opacity="1" stroke-width="1" stroke-linecap="square" stroke-linejoin="bevel" transform="matrix(1.00209,0,0,1.00209,12.0251,19.5407)"
font-family="Cantarell" font-size="11" font-weight="400" font-style="normal" 
>
</g>

<g fill="none" stroke="#000000" stroke-opacity="1" stroke-width="1" stroke-linecap="square" stroke-linejoin="bevel" transform="matrix(1.00209,0,0,1.00209,0,0)"
font-family="Cantarell" font-size="11" font-weight="400" font-style="normal" 
>
</g>

<g fill="none" stroke="#000000" stroke-opacity="1" stroke-width="1" stroke-linecap="round" stroke-linejoin="round" transform="matrix(1.00209,0,0,1.00209,0,0)"
font-family="Cantarell" font-size="11" font-weight="400" font-style="normal" 
>
<polyline fill="none" vector-effect="none" points="45.5,910.5 45.5,904.5 " />
<polyline fill="none" vector-effect="none" points="45.5,15.5 45.5,21.5 " />
</g>

<g fill="none" stroke="#000000" stroke-opacity="1" stroke-width="1" stroke-linecap="square" stroke-linejoin="bevel" transform="matrix(1.00209,0,0,1.00209,0,0)"
font-family="Cantarell" font-size="11" font-weight="400" font-style="normal" 
>
</g>

<g fill="none" stroke="#000000" stroke-opacity="1" stroke-width="1" stroke-linecap="square" stroke-linejoin="bevel" transform="matrix(1.00209,0,0,1.00209,40.5846,932.443)"
font-family="Cantarell" font-size="11" font-weight="400" font-style="normal" 
>
</g>

<g fill="none" stroke="#000000" stroke-opacity="1" stroke-width="1" stroke-linecap="square" stroke-linejoin="bevel" transform="matrix(1.00209,0,0,1.00209,40.5846,932.443)"
font-family="Cantarell" font-size="11" font-weight="400" font-style="normal" 
>
</g>

<g fill="none" stroke="#000000" stroke-opacity="1" stroke-width="1" stroke-linecap="square" stroke-linejoin="bevel" transform="matrix(1.00209,0,0,1.00209,40.5846,932.443)"
font-family="Cantarell" font-size="11" font-weight="400" font-style="normal" 
>
</g>

<g fill="none" stroke="#000000" stroke-opacity="1" stroke-width="1" stroke-linecap="square" stroke-linejoin="bevel" transform="matrix(1.00209,0,0,1.00209,40.5846,932.443)"
font-family="Cantarell" font-size="11" font-weight="400" font-style="normal" 
>
</g>

<g fill="none" stroke="#000000" stroke-opacity="1" stroke-width="1" stroke-linecap="square" stroke-linejoin="bevel" transform="matrix(1.00209,0,0,1.00209,40.5846,932.443)"
font-family="Cantarell" font-size="11" font-weight="400" font-style="normal" 
>
</g>

<g fill="none" stroke="#000000" stroke-opacity="1" stroke-width="1" stroke-linecap="square" stroke-linejoin="bevel" transform="matrix(1.00209,0,0,1.00209,40.5846,932.443)"
font-family="Sans" font-size="9" font-weight="400" font-style="normal" 
>
<text fill="#000000" fill-opacity="1" stroke="none" xml:space="preserve" x="0" y="0" font-family="Sans" font-size="9" font-weight="400" font-style="normal" 
 > 0</text>
</g>

<g fill="none" stroke="#000000" stroke-opacity="1" stroke-width="1" stroke-linecap="square" stroke-linejoin="bevel" transform="matrix(1.00209,0,0,1.00209,40.5846,932.443)"
font-family="Cantarell" font-size="11" font-weight="400" font-style="normal" 
>
</g>

<g fill="none" stroke="#000000" stroke-opacity="1" stroke-width="1" stroke-linecap="square" stroke-linejoin="bevel" transform="matrix(1.00209,0,0,1.00209,0,0)"
font-family="Cantarell" font-size="11" font-weight="400" font-style="normal" 
>
</g>

<g fill="none" stroke="#000000" stroke-opacity="1" stroke-width="1" stroke-linecap="round" stroke-linejoin="round" transform="matrix(1.00209,0,0,1.00209,0,0)"
font-family="Cantarell" font-size="11" font-weight="400" font-style="normal" 
>
<polyline fill="none" vector-effect="none" points="309.5,910.5 309.5,904.5 " />
<polyline fill="none" vector-effect="none" points="309.5,15.5 309.5,21.5 " />
</g>

<g fill="none" stroke="#000000" stroke-opacity="1" stroke-width="1" stroke-linecap="square" stroke-linejoin="bevel" transform="matrix(1.00209,0,0,1.00209,0,0)"
font-family="Cantarell" font-size="11" font-weight="400" font-style="normal" 
>
</g>

<g fill="none" stroke="#000000" stroke-opacity="1" stroke-width="1" stroke-linecap="square" stroke-linejoin="bevel" transform="matrix(1.00209,0,0,1.00209,297.119,932.443)"
font-family="Cantarell" font-size="11" font-weight="400" font-style="normal" 
>
</g>

<g fill="none" stroke="#000000" stroke-opacity="1" stroke-width="1" stroke-linecap="square" stroke-linejoin="bevel" transform="matrix(1.00209,0,0,1.00209,297.119,932.443)"
font-family="Cantarell" font-size="11" font-weight="400" font-style="normal" 
>
</g>

<g fill="none" stroke="#000000" stroke-opacity="1" stroke-width="1" stroke-linecap="square" stroke-linejoin="bevel" transform="matrix(1.00209,0,0,1.00209,297.119,932.443)"
font-family="Cantarell" font-size="11" font-weight="400" font-style="normal" 
>
</g>

<g fill="none" stroke="#000000" stroke-opacity="1" stroke-width="1" stroke-linecap="square" stroke-linejoin="bevel" transform="matrix(1.00209,0,0,1.00209,297.119,932.443)"
font-family="Cantarell" font-size="11" font-weight="400" font-style="normal" 
>
</g>

<g fill="none" stroke="#000000" stroke-opacity="1" stroke-width="1" stroke-linecap="square" stroke-linejoin="bevel" transform="matrix(1.00209,0,0,1.00209,297.119,932.443)"
font-family="Cantarell" font-size="11" font-weight="400" font-style="normal" 
>
</g>

<g fill="none" stroke="#000000" stroke-opacity="1" stroke-width="1" stroke-linecap="square" stroke-linejoin="bevel" transform="matrix(1.00209,0,0,1.00209,297.119,932.443)"
font-family="Sans" font-size="9" font-weight="400" font-style="normal" 
>
<text fill="#000000" fill-opacity="1" stroke="none" xml:space="preserve" x="0" y="0" font-family="Sans" font-size="9" font-weight="400" font-style="normal" 
 > 200</text>
</g>

<g fill="none" stroke="#000000" stroke-opacity="1" stroke-width="1" stroke-linecap="square" stroke-linejoin="bevel" transform="matrix(1.00209,0,0,1.00209,297.119,932.443)"
font-family="Cantarell" font-size="11" font-weight="400" font-style="normal" 
>
</g>

<g fill="none" stroke="#000000" stroke-opacity="1" stroke-width="1" stroke-linecap="square" stroke-linejoin="bevel" transform="matrix(1.00209,0,0,1.00209,0,0)"
font-family="Cantarell" font-size="11" font-weight="400" font-style="normal" 
>
</g>

<g fill="none" stroke="#000000" stroke-opacity="1" stroke-width="1" stroke-linecap="round" stroke-linejoin="round" transform="matrix(1.00209,0,0,1.00209,0,0)"
font-family="Cantarell" font-size="11" font-weight="400" font-style="normal" 
>
<polyline fill="none" vector-effect="none" points="573.5,910.5 573.5,904.5 " />
<polyline fill="none" vector-effect="none" points="573.5,15.5 573.5,21.5 " />
</g>

<g fill="none" stroke="#000000" stroke-opacity="1" stroke-width="1" stroke-linecap="square" stroke-linejoin="bevel" transform="matrix(1.00209,0,0,1.00209,0,0)"
font-family="Cantarell" font-size="11" font-weight="400" font-style="normal" 
>
</g>

<g fill="none" stroke="#000000" stroke-opacity="1" stroke-width="1" stroke-linecap="square" stroke-linejoin="bevel" transform="matrix(1.00209,0,0,1.00209,561.67,932.443)"
font-family="Cantarell" font-size="11" font-weight="400" font-style="normal" 
>
</g>

<g fill="none" stroke="#000000" stroke-opacity="1" stroke-width="1" stroke-linecap="square" stroke-linejoin="bevel" transform="matrix(1.00209,0,0,1.00209,561.67,932.443)"
font-family="Cantarell" font-size="11" font-weight="400" font-style="normal" 
>
</g>

<g fill="none" stroke="#000000" stroke-opacity="1" stroke-width="1" stroke-linecap="square" stroke-linejoin="bevel" transform="matrix(1.00209,0,0,1.00209,561.67,932.443)"
font-family="Cantarell" font-size="11" font-weight="400" font-style="normal" 
>
</g>

<g fill="none" stroke="#000000" stroke-opacity="1" stroke-width="1" stroke-linecap="square" stroke-linejoin="bevel" transform="matrix(1.00209,0,0,1.00209,561.67,932.443)"
font-family="Cantarell" font-size="11" font-weight="400" font-style="normal" 
>
</g>

<g fill="none" stroke="#000000" stroke-opacity="1" stroke-width="1" stroke-linecap="square" stroke-linejoin="bevel" transform="matrix(1.00209,0,0,1.00209,561.67,932.443)"
font-family="Cantarell" font-size="11" font-weight="400" font-style="normal" 
>
</g>

<g fill="none" stroke="#000000" stroke-opacity="1" stroke-width="1" stroke-linecap="square" stroke-linejoin="bevel" transform="matrix(1.00209,0,0,1.00209,561.67,932.443)"
font-family="Sans" font-size="9" font-weight="400" font-style="normal" 
>
<text fill="#000000" fill-opacity="1" stroke="none" xml:space="preserve" x="0" y="0" font-family="Sans" font-size="9" font-weight="400" font-style="normal" 
 > 400</text>
</g>

<g fill="none" stroke="#000000" stroke-opacity="1" stroke-width="1" stroke-linecap="square" stroke-linejoin="bevel" transform="matrix(1.00209,0,0,1.00209,561.67,932.443)"
font-family="Cantarell" font-size="11" font-weight="400" font-style="normal" 
>
</g>

<g fill="none" stroke="#000000" stroke-opacity="1" stroke-width="1" stroke-linecap="square" stroke-linejoin="bevel" transform="matrix(1.00209,0,0,1.00209,0,0)"
font-family="Cantarell" font-size="11" font-weight="400" font-style="normal" 
>
</g>

<g fill="none" stroke="#000000" stroke-opacity="1" stroke-width="1" stroke-linecap="round" stroke-linejoin="round" transform="matrix(1.00209,0,0,1.00209,0,0)"
font-family="Cantarell" font-size="11" font-weight="400" font-style="normal" 
>
<polyline fill="none" vector-effect="none" points="838.5,910.5 838.5,904.5 " />
<polyline fill="none" vector-effect="none" points="838.5,15.5 838.5,21.5 " />
</g>

<g fill="none" stroke="#000000" stroke-opacity="1" stroke-width="1" stroke-linecap="square" stroke-linejoin="bevel" transform="matrix(1.00209,0,0,1.00209,0,0)"
font-family="Cantarell" font-size="11" font-weight="400" font-style="normal" 
>
</g>

<g fill="none" stroke="#000000" stroke-opacity="1" stroke-width="1" stroke-linecap="square" stroke-linejoin="bevel" transform="matrix(1.00209,0,0,1.00209,826.221,932.443)"
font-family="Cantarell" font-size="11" font-weight="400" font-style="normal" 
>
</g>

<g fill="none" stroke="#000000" stroke-opacity="1" stroke-width="1" stroke-linecap="square" stroke-linejoin="bevel" transform="matrix(1.00209,0,0,1.00209,826.221,932.443)"
font-family="Cantarell" font-size="11" font-weight="400" font-style="normal" 
>
</g>

<g fill="none" stroke="#000000" stroke-opacity="1" stroke-width="1" stroke-linecap="square" stroke-linejoin="bevel" transform="matrix(1.00209,0,0,1.00209,826.221,932.443)"
font-family="Cantarell" font-size="11" font-weight="400" font-style="normal" 
>
</g>

<g fill="none" stroke="#000000" stroke-opacity="1" stroke-width="1" stroke-linecap="square" stroke-linejoin="bevel" transform="matrix(1.00209,0,0,1.00209,826.221,932.443)"
font-family="Cantarell" font-size="11" font-weight="400" font-style="normal" 
>
</g>

<g fill="none" stroke="#000000" stroke-opacity="1" stroke-width="1" stroke-linecap="square" stroke-linejoin="bevel" transform="matrix(1.00209,0,0,1.00209,826.221,932.443)"
font-family="Cantarell" font-size="11" font-weight="400" font-style="normal" 
>
</g>

<g fill="none" stroke="#000000" stroke-opacity="1" stroke-width="1" stroke-linecap="square" stroke-linejoin="bevel" transform="matrix(1.00209,0,0,1.00209,826.221,932.443)"
font-family="Sans" font-size="9" font-weight="400" font-style="normal" 
>
<text fill="#000000" fill-opacity="1" stroke="none" xml:space="preserve" x="0" y="0" font-family="Sans" font-size="9" font-weight="400" font-style="normal" 
 > 600</text>
</g>

<g fill="none" stroke="#000000" stroke-opacity="1" stroke-width="1" stroke-linecap="square" stroke-linejoin="bevel" transform="matrix(1.00209,0,0,1.00209,826.221,932.443)"
font-family="Cantarell" font-size="11" font-weight="400" font-style="normal" 
>
</g>

<g fill="none" stroke="#000000" stroke-opacity="1" stroke-width="1" stroke-linecap="square" stroke-linejoin="bevel" transform="matrix(1.00209,0,0,1.00209,0,0)"
font-family="Cantarell" font-size="11" font-weight="400" font-style="normal" 
>
</g>

<g fill="none" stroke="#000000" stroke-opacity="1" stroke-width="1" stroke-linecap="round" stroke-linejoin="round" transform="matrix(1.00209,0,0,1.00209,0,0)"
font-family="Cantarell" font-size="11" font-weight="400" font-style="normal" 
>
<polyline fill="none" vector-effect="none" points="1102.5,910.5 1102.5,904.5 " />
<polyline fill="none" vector-effect="none" points="1102.5,15.5 1102.5,21.5 " />
</g>

<g fill="none" stroke="#000000" stroke-opacity="1" stroke-width="1" stroke-linecap="square" stroke-linejoin="bevel" transform="matrix(1.00209,0,0,1.00209,0,0)"
font-family="Cantarell" font-size="11" font-weight="400" font-style="normal" 
>
</g>

<g fill="none" stroke="#000000" stroke-opacity="1" stroke-width="1" stroke-linecap="square" stroke-linejoin="bevel" transform="matrix(1.00209,0,0,1.00209,1090.77,932.443)"
font-family="Cantarell" font-size="11" font-weight="400" font-style="normal" 
>
</g>

<g fill="none" stroke="#000000" stroke-opacity="1" stroke-width="1" stroke-linecap="square" stroke-linejoin="bevel" transform="matrix(1.00209,0,0,1.00209,1090.77,932.443)"
font-family="Cantarell" font-size="11" font-weight="400" font-style="normal" 
>
</g>

<g fill="none" stroke="#000000" stroke-opacity="1" stroke-width="1" stroke-linecap="square" stroke-linejoin="bevel" transform="matrix(1.00209,0,0,1.00209,1090.77,932.443)"
font-family="Cantarell" font-size="11" font-weight="400" font-style="normal" 
>
</g>

<g fill="none" stroke="#000000" stroke-opacity="1" stroke-width="1" stroke-linecap="square" stroke-linejoin="bevel" transform="matrix(1.00209,0,0,1.00209,1090.77,932.443)"
font-family="Cantarell" font-size="11" font-weight="400" font-style="normal" 
>
</g>

<g fill="none" stroke="#000000" stroke-opacity="1" stroke-width="1" stroke-linecap="square" stroke-linejoin="bevel" transform="matrix(1.00209,0,0,1.00209,1090.77,932.443)"
font-family="Cantarell" font-size="11" font-weight="400" font-style="normal" 
>
</g>

<g fill="none" stroke="#000000" stroke-opacity="1" stroke-width="1" stroke-linecap="square" stroke-linejoin="bevel" transform="matrix(1.00209,0,0,1.00209,1090.77,932.443)"
font-family="Sans" font-size="9" font-weight="400" font-style="normal" 
>
<text fill="#000000" fill-opacity="1" stroke="none" xml:space="preserve" x="0" y="0" font-family="Sans" font-size="9" font-weight="400" font-style="normal" 
 > 800</text>
</g>

<g fill="none" stroke="#000000" stroke-opacity="1" stroke-width="1" stroke-linecap="square" stroke-linejoin="bevel" transform="matrix(1.00209,0,0,1.00209,1090.77,932.443)"
font-family="Cantarell" font-size="11" font-weight="400" font-style="normal" 
>
</g>

<g fill="none" stroke="#000000" stroke-opacity="1" stroke-width="1" stroke-linecap="square" stroke-linejoin="bevel" transform="matrix(1.00209,0,0,1.00209,0,0)"
font-family="Cantarell" font-size="11" font-weight="400" font-style="normal" 
>
</g>

<g fill="none" stroke="#000000" stroke-opacity="1" stroke-width="1" stroke-linecap="round" stroke-linejoin="round" transform="matrix(1.00209,0,0,1.00209,0,0)"
font-family="Cantarell" font-size="11" font-weight="400" font-style="normal" 
>
<polyline fill="none" vector-effect="none" points="1366.5,910.5 1366.5,904.5 " />
<polyline fill="none" vector-effect="none" points="1366.5,15.5 1366.5,21.5 " />
</g>

<g fill="none" stroke="#000000" stroke-opacity="1" stroke-width="1" stroke-linecap="square" stroke-linejoin="bevel" transform="matrix(1.00209,0,0,1.00209,0,0)"
font-family="Cantarell" font-size="11" font-weight="400" font-style="normal" 
>
</g>

<g fill="none" stroke="#000000" stroke-opacity="1" stroke-width="1" stroke-linecap="square" stroke-linejoin="bevel" transform="matrix(1.00209,0,0,1.00209,1352.32,932.443)"
font-family="Cantarell" font-size="11" font-weight="400" font-style="normal" 
>
</g>

<g fill="none" stroke="#000000" stroke-opacity="1" stroke-width="1" stroke-linecap="square" stroke-linejoin="bevel" transform="matrix(1.00209,0,0,1.00209,1352.32,932.443)"
font-family="Cantarell" font-size="11" font-weight="400" font-style="normal" 
>
</g>

<g fill="none" stroke="#000000" stroke-opacity="1" stroke-width="1" stroke-linecap="square" stroke-linejoin="bevel" transform="matrix(1.00209,0,0,1.00209,1352.32,932.443)"
font-family="Cantarell" font-size="11" font-weight="400" font-style="normal" 
>
</g>

<g fill="none" stroke="#000000" stroke-opacity="1" stroke-width="1" stroke-linecap="square" stroke-linejoin="bevel" transform="matrix(1.00209,0,0,1.00209,1352.32,932.443)"
font-family="Cantarell" font-size="11" font-weight="400" font-style="normal" 
>
</g>

<g fill="none" stroke="#000000" stroke-opacity="1" stroke-width="1" stroke-linecap="square" stroke-linejoin="bevel" transform="matrix(1.00209,0,0,1.00209,1352.32,932.443)"
font-family="Cantarell" font-size="11" font-weight="400" font-style="normal" 
>
</g>

<g fill="none" stroke="#000000" stroke-opacity="1" stroke-width="1" stroke-linecap="square" stroke-linejoin="bevel" transform="matrix(1.00209,0,0,1.00209,1352.32,932.443)"
font-family="Sans" font-size="9" font-weight="400" font-style="normal" 
>
<text fill="#000000" fill-opacity="1" stroke="none" xml:space="preserve" x="0" y="0" font-family="Sans" font-size="9" font-weight="400" font-style="normal" 
 > 1000</text>
</g>

<g fill="none" stroke="#000000" stroke-opacity="1" stroke-width="1" stroke-linecap="square" stroke-linejoin="bevel" transform="matrix(1.00209,0,0,1.00209,1352.32,932.443)"
font-family="Cantarell" font-size="11" font-weight="400" font-style="normal" 
>
</g>

<g fill="none" stroke="#000000" stroke-opacity="1" stroke-width="1" stroke-linecap="square" stroke-linejoin="bevel" transform="matrix(1.00209,0,0,1.00209,0,0)"
font-family="Cantarell" font-size="11" font-weight="400" font-style="normal" 
>
</g>

<g fill="none" stroke="#000000" stroke-opacity="1" stroke-width="1" stroke-linecap="round" stroke-linejoin="round" transform="matrix(1.00209,0,0,1.00209,0,0)"
font-family="Cantarell" font-size="11" font-weight="400" font-style="normal" 
>
<polyline fill="none" vector-effect="none" points="1630.5,910.5 1630.5,904.5 " />
<polyline fill="none" vector-effect="none" points="1630.5,15.5 1630.5,21.5 " />
</g>

<g fill="none" stroke="#000000" stroke-opacity="1" stroke-width="1" stroke-linecap="square" stroke-linejoin="bevel" transform="matrix(1.00209,0,0,1.00209,0,0)"
font-family="Cantarell" font-size="11" font-weight="400" font-style="normal" 
>
</g>

<g fill="none" stroke="#000000" stroke-opacity="1" stroke-width="1" stroke-linecap="square" stroke-linejoin="bevel" transform="matrix(1.00209,0,0,1.00209,1616.87,932.443)"
font-family="Cantarell" font-size="11" font-weight="400" font-style="normal" 
>
</g>

<g fill="none" stroke="#000000" stroke-opacity="1" stroke-width="1" stroke-linecap="square" stroke-linejoin="bevel" transform="matrix(1.00209,0,0,1.00209,1616.87,932.443)"
font-family="Cantarell" font-size="11" font-weight="400" font-style="normal" 
>
</g>

<g fill="none" stroke="#000000" stroke-opacity="1" stroke-width="1" stroke-linecap="square" stroke-linejoin="bevel" transform="matrix(1.00209,0,0,1.00209,1616.87,932.443)"
font-family="Cantarell" font-size="11" font-weight="400" font-style="normal" 
>
</g>

<g fill="none" stroke="#000000" stroke-opacity="1" stroke-width="1" stroke-linecap="square" stroke-linejoin="bevel" transform="matrix(1.00209,0,0,1.00209,1616.87,932.443)"
font-family="Cantarell" font-size="11" font-weight="400" font-style="normal" 
>
</g>

<g fill="none" stroke="#000000" stroke-opacity="1" stroke-width="1" stroke-linecap="square" stroke-linejoin="bevel" transform="matrix(1.00209,0,0,1.00209,1616.87,932.443)"
font-family="Cantarell" font-size="11" font-weight="400" font-style="normal" 
>
</g>

<g fill="none" stroke="#000000" stroke-opacity="1" stroke-width="1" stroke-linecap="square" stroke-linejoin="bevel" transform="matrix(1.00209,0,0,1.00209,1616.87,932.443)"
font-family="Sans" font-size="9" font-weight="400" font-style="normal" 
>
<text fill="#000000" fill-opacity="1" stroke="none" xml:space="preserve" x="0" y="0" font-family="Sans" font-size="9" font-weight="400" font-style="normal" 
 > 1200</text>
</g>

<g fill="none" stroke="#000000" stroke-opacity="1" stroke-width="1" stroke-linecap="square" stroke-linejoin="bevel" transform="matrix(1.00209,0,0,1.00209,1616.87,932.443)"
font-family="Cantarell" font-size="11" font-weight="400" font-style="normal" 
>
</g>

<g fill="none" stroke="#000000" stroke-opacity="1" stroke-width="1" stroke-linecap="square" stroke-linejoin="bevel" transform="matrix(1.00209,0,0,1.00209,0,0)"
font-family="Cantarell" font-size="11" font-weight="400" font-style="normal" 
>
</g>

<g fill="none" stroke="#000000" stroke-opacity="1" stroke-width="1" stroke-linecap="round" stroke-linejoin="round" transform="matrix(1.00209,0,0,1.00209,0,0)"
font-family="Cantarell" font-size="11" font-weight="400" font-style="normal" 
>
<polyline fill="none" vector-effect="none" points="1894.5,910.5 1894.5,904.5 " />
<polyline fill="none" vector-effect="none" points="1894.5,15.5 1894.5,21.5 " />
</g>

<g fill="none" stroke="#000000" stroke-opacity="1" stroke-width="1" stroke-linecap="square" stroke-linejoin="bevel" transform="matrix(1.00209,0,0,1.00209,0,0)"
font-family="Cantarell" font-size="11" font-weight="400" font-style="normal" 
>
</g>

<g fill="none" stroke="#000000" stroke-opacity="1" stroke-width="1" stroke-linecap="square" stroke-linejoin="bevel" transform="matrix(1.00209,0,0,1.00209,1881.42,932.443)"
font-family="Cantarell" font-size="11" font-weight="400" font-style="normal" 
>
</g>

<g fill="none" stroke="#000000" stroke-opacity="1" stroke-width="1" stroke-linecap="square" stroke-linejoin="bevel" transform="matrix(1.00209,0,0,1.00209,1881.42,932.443)"
font-family="Cantarell" font-size="11" font-weight="400" font-style="normal" 
>
</g>

<g fill="none" stroke="#000000" stroke-opacity="1" stroke-width="1" stroke-linecap="square" stroke-linejoin="bevel" transform="matrix(1.00209,0,0,1.00209,1881.42,932.443)"
font-family="Cantarell" font-size="11" font-weight="400" font-style="normal" 
>
</g>

<g fill="none" stroke="#000000" stroke-opacity="1" stroke-width="1" stroke-linecap="square" stroke-linejoin="bevel" transform="matrix(1.00209,0,0,1.00209,1881.42,932.443)"
font-family="Cantarell" font-size="11" font-weight="400" font-style="normal" 
>
</g>

<g fill="none" stroke="#000000" stroke-opacity="1" stroke-width="1" stroke-linecap="square" stroke-linejoin="bevel" transform="matrix(1.00209,0,0,1.00209,1881.42,932.443)"
font-family="Cantarell" font-size="11" font-weight="400" font-style="normal" 
>
</g>

<g fill="none" stroke="#000000" stroke-opacity="1" stroke-width="1" stroke-linecap="square" stroke-linejoin="bevel" transform="matrix(1.00209,0,0,1.00209,1881.42,932.443)"
font-family="Sans" font-size="9" font-weight="400" font-style="normal" 
>
<text fill="#000000" fill-opacity="1" stroke="none" xml:space="preserve" x="0" y="0" font-family="Sans" font-size="9" font-weight="400" font-style="normal" 
 > 1400</text>
</g>

<g fill="none" stroke="#000000" stroke-opacity="1" stroke-width="1" stroke-linecap="square" stroke-linejoin="bevel" transform="matrix(1.00209,0,0,1.00209,1881.42,932.443)"
font-family="Cantarell" font-size="11" font-weight="400" font-style="normal" 
>
</g>

<g fill="none" stroke="#000000" stroke-opacity="1" stroke-width="1" stroke-linecap="square" stroke-linejoin="bevel" transform="matrix(1.00209,0,0,1.00209,0,0)"
font-family="Cantarell" font-size="11" font-weight="400" font-style="normal" 
>
</g>

<g fill="none" stroke="#000000" stroke-opacity="1" stroke-width="1" stroke-linecap="round" stroke-linejoin="round" transform="matrix(1.00209,0,0,1.00209,0,0)"
font-family="Cantarell" font-size="11" font-weight="400" font-style="normal" 
>
<polyline fill="none" vector-effect="none" points="45.5,15.5 45.5,910.5 1894.5,910.5 1894.5,15.5 45.5,15.5 " />
</g>

<g fill="none" stroke="#000000" stroke-opacity="1" stroke-width="1" stroke-linecap="square" stroke-linejoin="bevel" transform="matrix(1.00209,0,0,1.00209,0,0)"
font-family="Cantarell" font-size="11" font-weight="400" font-style="normal" 
>
</g>

<g fill="none" stroke="#000000" stroke-opacity="1" stroke-width="1" stroke-linecap="square" stroke-linejoin="bevel" transform="matrix(1.00209,0,0,1.00209,1656.59,17.5365)"
font-family="Cantarell" font-size="11" font-weight="400" font-style="normal" 
>
</g>

<g fill="none" stroke="#000000" stroke-opacity="1" stroke-width="1" stroke-linecap="square" stroke-linejoin="bevel" transform="matrix(1.00209,0,0,1.00209,1656.59,17.5365)"
font-family="Cantarell" font-size="11" font-weight="400" font-style="normal" 
>
</g>

<g fill="none" stroke="#000000" stroke-opacity="1" stroke-width="1" stroke-linecap="square" stroke-linejoin="bevel" transform="matrix(1.00209,0,0,1.00209,1656.59,17.5365)"
font-family="Cantarell" font-size="11" font-weight="400" font-style="normal" 
>
</g>

<g fill="none" stroke="#000000" stroke-opacity="1" stroke-width="1" stroke-linecap="square" stroke-linejoin="bevel" transform="matrix(1.00209,0,0,1.00209,1656.59,17.5365)"
font-family="Cantarell" font-size="11" font-weight="400" font-style="normal" 
>
<text fill="#000000" fill-opacity="1" stroke="none" xml:space="preserve" x="4" y="16" font-family="Sans" font-size="9" font-weight="400" font-style="normal" 
 >'monitor_data.dat' using 0:col</text>
</g>

<g fill="none" stroke="#000000" stroke-opacity="1" stroke-width="1" stroke-linecap="square" stroke-linejoin="bevel" transform="matrix(1.00209,0,0,1.00209,1656.59,17.5365)"
font-family="Cantarell" font-size="11" font-weight="400" font-style="normal" 
>
</g>

<g fill="none" stroke="#000000" stroke-opacity="1" stroke-width="1" stroke-linecap="square" stroke-linejoin="bevel" transform="matrix(1,0,0,1,0,0)"
font-family="Cantarell" font-size="11" font-weight="400" font-style="normal" 
>
</g>

<g fill="none" stroke="#000000" stroke-opacity="1" stroke-width="1" stroke-linecap="square" stroke-linejoin="bevel" transform="matrix(1.00209,0,0,1.00209,1656.59,17.5365)"
font-family="Cantarell" font-size="11" font-weight="400" font-style="normal" 
>
</g>

<g fill="none" stroke="#000000" stroke-opacity="1" stroke-width="1" stroke-linecap="square" stroke-linejoin="bevel" transform="matrix(1.00209,0,0,1.00209,1656.59,17.5365)"
font-family="Cantarell" font-size="11" font-weight="400" font-style="normal" 
>
</g>

<g fill="none" stroke="#000000" stroke-opacity="1" stroke-width="1" stroke-linecap="square" stroke-linejoin="bevel" transform="matrix(1.00209,0,0,1.00209,1656.59,17.5365)"
font-family="Cantarell" font-size="11" font-weight="400" font-style="normal" 
>
</g>

<g fill="none" stroke="#000000" stroke-opacity="1" stroke-width="1" stroke-linecap="square" stroke-linejoin="bevel" transform="matrix(1.00209,0,0,1.00209,0,0)"
font-family="Cantarell" font-size="11" font-weight="400" font-style="normal" 
>
</g>

<g fill="none" stroke="#9400d3" stroke-opacity="1" stroke-width="1" stroke-linecap="round" stroke-linejoin="round" transform="matrix(1.00209,0,0,1.00209,0,0)"
font-family="Cantarell" font-size="11" font-weight="400" font-style="normal" 
>
<path vector-effect="none" fill-rule="evenodd" d="M1846.5,28.5 L1880.5,28.5"/>
</g>

<g fill="none" stroke="#000000" stroke-opacity="1" stroke-width="1" stroke-linecap="square" stroke-linejoin="bevel" transform="matrix(1.00209,0,0,1.00209,0,0)"
font-family="Cantarell" font-size="11" font-weight="400" font-style="normal" 
>
</g>

<g fill="none" stroke="#000000" stroke-opacity="1" stroke-width="1" stroke-linecap="square" stroke-linejoin="bevel" transform="matrix(1.00209,0,0,1.00209,0,0)"
font-family="Cantarell" font-size="11" font-weight="400" font-style="normal" 
>
</g>

<g fill="none" stroke="#000000" stroke-opacity="1" stroke-width="1" stroke-linecap="square" stroke-linejoin="bevel" transform="matrix(1.00209,0,0,1.00209,0,0)"
font-family="Cantarell" font-size="11" font-weight="400" font-style="normal" 
>
</g>

<g fill="none" stroke="#000000" stroke-opacity="1" stroke-width="1" stroke-linecap="square" stroke-linejoin="bevel" transform="matrix(1.00209,0,0,1.00209,0,0)"
font-family="Cantarell" font-size="11" font-weight="400" font-style="normal" 
>
</g>

<g fill="none" stroke="#9400d3" stroke-opacity="1" stroke-width="1" stroke-linecap="round" stroke-linejoin="round" transform="matrix(1.00209,0,0,1.00209,0,0)"
font-family="Cantarell" font-size="11" font-weight="400" font-style="normal" 
>
<polyline fill="none" vector-effect="none" points="45.5,876 45.5,876 46.8,872.2 48.1,884.8 49.5,881.1 50.8,878.1 52.1,875.9 53.4,873.7 54.7,871.9 56.1,870.5 57.4,868.9 58.7,867.1 60,865.7 61.4,863.9 62.7,862.2 64,860 65.3,858.6 66.6,857 68,854.5 69.3,852.7 70.6,850.6 71.9,850 73.2,847.6 74.6,845.8 75.9,843.8 77.2,841.9 78.5,840 79.8,837.7 81.2,836.1 82.5,834.4 83.8,833.5 85.1,831.4 86.5,829.9 87.8,828.8 89.1,827.7 90.4,826.3 91.7,824.6 93.1,824.3 94.4,822.5 95.7,820.6 97,819.5 98.3,818.2 99.7,816.6 101,815.5 102.3,813.6 103.6,813.6 104.9,812.5 106.3,809.6 107.6,809.5 108.9,809.3 110.2,808.2 111.6,806.8 112.9,806.1 114.2,804.8 115.5,802.8 116.8,801.4 118.2,800.7 119.5,800.4 120.8,798.5 122.1,797.5 123.4,796.8 124.8,794.7 126.1,794.4 127.4,792.9 128.7,792.5 130,791.5 131.4,789.1 132.7,789.5 134,788.7 135.3,788.5 136.6,785.9 138,785.6 139.3,783.6 140.6,781 141.9,780.6 143.3,778.8 144.6,776.6 145.9,777.4 147.2,776.3 148.5,775.8 149.9,774 151.2,771.7 152.5,770.7 153.8,770.5 155.1,771 156.5,772.6 157.8,773.9 159.1,776.1 160.4,778.2 161.7,780.6 163.1,781.5 164.4,782.5 165.7,782.1 167,782.3 168.4,782.1 169.7,780.2 171,778.4 172.3,776.6 173.6,775.3 175,774 176.3,774 177.6,774.7 178.9,776.3 180.2,777.4 181.6,778.2 182.9,778.8 184.2,778.5 185.5,777.7 186.8,776.3 188.2,775.6 189.5,775.5 190.8,776.3 192.1,778 193.5,779.1 194.8,779.3 196.1,778.4 197.4,778.2 198.7,777.1 200.1,775.9 201.4,774.8 202.7,775.2 204,776.1 205.3,777.4 206.7,778.5 208,778.2 209.3,777.7 210.6,776.4 211.9,775.8 213.3,775.6 214.6,776.4 215.9,778.4 217.2,779.6 218.6,779.5 219.9,778.5 221.2,777.2 222.5,776.1 223.8,776.3 225.2,775.3 226.5,775.5 227.8,776.8 229.1,777.4 230.4,778.2 231.8,777.5 233.1,777.2 234.4,775.9 235.7,775.2 237,775.3 238.4,775.8 239.7,776.9 241,777.5 242.3,777.4 243.7,776.8 245,775.6 246.3,774.7 247.6,774.3 248.9,775.2 250.3,775.9 251.6,778.2 252.9,779.3 254.2,779.5 255.5,778.8 256.9,777.5 258.2,776.6 259.5,776.4 260.8,775.5 262.1,775.6 263.5,776.1 264.8,777.7 266.1,777.7 267.4,777.9 268.7,776.4 270.1,775.5 271.4,775.9 272.7,776.8 274,777.9 275.4,777.5 276.7,777.1 278,775.2 279.3,775 280.6,774.5 282,774.8 283.3,776.4 284.6,777.2 285.9,778.2 287.2,778.7 288.6,778.7 289.9,777.4 291.2,775.6 292.5,775 293.8,774.8 295.2,775.9 296.5,777.4 297.8,778.2 299.1,778.5 300.5,777.5 301.8,776.9 303.1,775.6 304.4,774.8 305.7,773.7 307.1,775.9 308.4,777.1 309.7,777.5 311,777.7 312.3,777.7 313.7,775.9 315,774.2 316.3,775 317.6,776.1 318.9,777.5 320.3,778.5 321.6,778.7 322.9,777.9 324.2,776.8 325.6,775.9 326.9,774.2 328.2,773.7 329.5,775.3 330.8,775.9 332.2,776.9 333.5,778.8 334.8,778.4 336.1,777.4 337.4,777.2 338.8,775.6 340.1,774.3 341.4,775.2 342.7,775.8 344,776.9 345.4,776.9 346.7,777.5 348,777.2 349.3,776.1 350.7,775.6 352,775.6 353.3,776.6 354.6,777.5 355.9,776.8 357.3,776.3 358.6,775.8 359.9,775.5 361.2,776.6 362.5,777.5 363.9,777.1 365.2,776.3 366.5,775.5 367.8,775.5 369.1,776.6 370.5,777.4 371.8,777.7 373.1,776.6 374.4,775 375.8,774.8 377.1,774.5 378.4,775.5 379.7,776.9 381,778 382.4,777.9 383.7,777.1 385,776.8 386.3,775.2 387.6,774.7 389,774.3 390.3,774.7 391.6,775.6 392.9,776.3 394.2,778.7 395.6,780.6 396.9,780.4 398.2,779.8 399.5,778 400.8,775.9 402.2,776.4 403.5,775.9 404.8,777.2 406.1,777.5 407.5,777.7 408.8,777.2 410.1,775.8 411.4,775.3 412.7,774.7 414.1,776.1 415.4,777.1 416.7,778.2 418,778.8 419.3,777.7 420.7,777.2 422,775.9 423.3,775.6 424.6,775.5 425.9,776.1 427.3,777.7 428.6,778.2 429.9,778.8 431.2,778.5 432.6,777.7 433.9,775.8 435.2,775.9 436.5,775.3 437.8,776.1 439.2,776.8 440.5,778.5 441.8,778.4 443.1,776.8 444.4,775.6 445.8,775.8 447.1,775.6 448.4,776.8 449.7,776.8 451,776.4 452.4,775.9 453.7,775.8 455,776.9 456.3,777.5 457.7,777.2 459,776.6 460.3,775.9 461.6,774.5 462.9,775.5 464.3,776.1 465.6,777.9 466.9,778.7 468.2,778.2 469.5,778.4 470.9,776.6 472.2,776.4 473.5,775.8 474.8,776.3 476.1,776.6 477.5,777.2 478.8,776.9 480.1,776.4 481.4,775.9 482.8,775.8 484.1,776.4 485.4,776.9 486.7,778.5 488,778.5 489.4,776.9 490.7,776.4 492,775.3 493.3,774.8 494.6,776.4 496,778.7 497.3,778.7 498.6,779 499.9,778 501.2,777.9 502.6,775.5 503.9,774.8 505.2,774.2 506.5,775.9 507.9,777.7 509.2,779.6 510.5,779.8 511.8,778 513.1,776.8 514.5,775.6 515.8,774.5 517.1,774.5 518.4,775.8 519.7,776.9 521.1,777.9 522.4,778.2 523.7,777.2 525,775.6 526.3,775.2 527.7,776.3 529,776.4 530.3,777.5 531.6,779.6 532.9,779.5 534.3,779.1 535.6,777.4 536.9,776.6 538.2,774.8 539.6,772.6 540.9,773.6 542.2,774.7 543.5,775.3 544.8,777.4 546.2,778.5 547.5,778.5 548.8,778.4 550.1,777.2 551.4,776.1 552.8,775 554.1,775.3 555.4,775.3 556.7,776.6 558,778.4 559.4,778.2 560.7,776.4 562,775.9 563.3,775.9 564.7,776.8 566,777.9 567.3,778.4 568.6,777.5 569.9,776.9 571.3,774.8 572.6,773.9 573.9,773.9 575.2,773.9 576.5,775.8 577.9,776.8 579.2,778.7 580.5,778.8 581.8,777.5 583.1,776.8 584.5,774.2 585.8,772.9 587.1,772.9 588.4,773.6 589.8,774.8 591.1,777.4 592.4,777.7 593.7,777.5 595,775.6 596.4,775.5 597.7,775.3 599,778 600.3,779.3 601.6,778.4 603,776.9 604.3,775.9 605.6,773.6 606.9,774.3 608.2,776.1 609.6,777.4 610.9,778.4 612.2,775.9 613.5,775.9 614.9,776.3 616.2,777.4 617.5,778.8 618.8,778 620.1,777.5 621.5,775.8 622.8,775 624.1,774.5 625.4,776.4 626.7,776.9 628.1,777.7 629.4,778.7 630.7,777.4 632,776.1 633.3,775.2 634.7,774.5 636,775.2 637.3,776.8 638.6,778.2 640,777.5 641.3,776.3 642.6,774.3 643.9,773.6 645.2,775.6 646.6,777.1 647.9,778.4 649.2,778.5 650.5,777.2 651.8,775.6 653.2,775 654.5,774.3 655.8,776.1 657.1,776.3 658.4,778 659.8,778.4 661.1,778.5 662.4,777.5 663.7,775.5 665,774 666.4,773.2 667.7,774.5 669,775.2 670.3,776.4 671.7,777.7 673,778.8 674.3,779.5 675.6,778 676.9,776.6 678.3,775 679.6,774.2 680.9,773.1 682.2,773.1 683.5,774.5 684.9,776.1 686.2,776.8 687.5,777.7 688.8,777.9 690.1,776.3 691.5,774.5 692.8,774 694.1,775 695.4,776.1 696.8,777.4 698.1,778.7 699.4,778.5 700.7,778 702,776.9 703.4,774 704.7,774.3 706,774.7 707.3,773.9 708.6,775.2 710,775.6 711.3,776.8 712.6,777.4 713.9,776.8 715.2,775.6 716.6,775.2 717.9,775 719.2,776.4 720.5,777.2 721.9,777.7 723.2,776.6 724.5,776.4 725.8,775.5 727.1,775.3 728.5,775.5 729.8,776.3 731.1,777.1 732.4,777.2 733.7,776.8 735.1,775.5 736.4,775.6 737.7,775 739,775.9 740.3,776.3 741.7,777.1 743,777.1 744.3,775.9 745.6,776.4 747,776.4 748.3,776.6 749.6,776.9 750.9,777.4 752.2,777.2 753.6,774.3 754.9,772.8 756.2,772.6 757.5,773.6 758.8,774.2 760.2,774.8 761.5,775.5 762.8,776.3 764.1,775.9 765.4,777.1 766.8,777.7 768.1,777.2 769.4,776.3 770.7,774.7 772.1,775 773.4,774.8 774.7,775.9 776,776.6 777.3,777.4 778.7,777.2 780,775.9 781.3,775.3 782.6,775 783.9,774.5 785.3,774.8 786.6,775.8 787.9,776.1 789.2,777.1 790.5,777.1 791.9,776.9 793.2,775.9 794.5,774.8 795.8,774.5 797.1,774.2 798.5,775.2 799.8,775.2 801.1,776.1 802.4,776.6 803.8,776.6 805.1,775.9 806.4,775 807.7,775.3 809,775.9 810.4,776.3 811.7,776.6 813,776.6 814.3,776.6 815.6,775.9 817,774.7 818.3,774.2 819.6,774.5 820.9,774.7 822.2,774.8 823.6,775 824.9,775.3 826.2,775.9 827.5,776.4 828.9,776.6 830.2,777.1 831.5,776.9 832.8,776.9 834.1,775.3 835.5,774.2 836.8,773.6 838.1,773.1 839.4,773.9 840.7,774.2 842.1,774.5 843.4,774.8 844.7,775.3 846,775.6 847.3,775.8 848.7,776.6 850,776.4 851.3,776.6 852.6,776.6 854,775.9 855.3,774.5 856.6,774.5 857.9,774.2 859.2,774.7 860.6,775 861.9,775.6 863.2,775.9 864.5,776.3 865.8,776.6 867.2,776.8 868.5,776.8 869.8,775.8 871.1,775.3 872.4,774.5 873.8,774.5 875.1,774.8 876.4,775.3 877.7,775.5 879.1,776.3 880.4,776.9 881.7,776.8 883,776.8 884.3,775.2 885.7,774 887,775 888.3,774.5 889.6,774.7 890.9,775 892.3,775.6 893.6,775.6 894.9,776.1 896.2,776.1 897.5,776.4 898.9,777.1 900.2,777.2 901.5,776.9 902.8,777.1 904.2,775.3 905.5,773.6 906.8,772.8 908.1,773.4 909.4,773.1 910.8,773.6 912.1,774.5 913.4,775 914.7,775.5 916,775.6 917.4,776.4 918.7,776.4 920,777.1 921.3,777.4 922.6,777.4 924,776.4 925.3,775.8 926.6,775.5 927.9,775.6 929.2,775.6 930.6,775.9 931.9,775.9 933.2,776.6 934.5,776.8 935.9,776.4 937.2,775.9 938.5,775.5 939.8,775.6 941.1,775.9 942.5,776.4 943.8,776.8 945.1,776.4 946.4,776.9 947.7,776.3 949.1,775.5 950.4,775.8 951.7,775.9 953,776.1 954.3,776.4 955.7,776.9 957,777.1 958.3,776.8 959.6,776.3 961,775 962.3,774.3 963.6,774.3 964.9,774.7 966.2,775.6 967.6,775.6 968.9,775.8 970.2,776.8 971.5,776.6 972.8,776.4 974.2,775.5 975.5,775.6 976.8,775.8 978.1,776.1 979.4,776.9 980.8,776.8 982.1,776.1 983.4,775.2 984.7,775 986.1,775 987.4,775.6 988.7,776.1 990,776.8 991.3,776.8 992.7,776.4 994,775.8 995.3,775.6 996.6,775.6 997.9,776.1 999.3,775.9 1000.6,776.6 1001.9,776.9 1003.2,776.8 1004.5,775.6 1005.9,775 1007.2,774.8 1008.5,775 1009.8,775.2 1011.2,775.6 1012.5,775.5 1013.8,776.3 1015.1,776.8 1016.4,777.2 1017.8,776.6 1019.1,775.5 1020.4,774.7 1021.7,774.2 1023,774.3 1024.4,775.2 1025.7,775.8 1027,776.4 1028.3,776.8 1029.6,776.9 1031,777.4 1032.3,776.1 1033.6,775.2 1034.9,775.2 1036.3,775 1037.6,775.5 1038.9,776.3 1040.2,776.6 1041.5,776.9 1042.9,776.8 1044.2,776.1 1045.5,774.5 1046.8,775 1048.1,775.6 1049.5,776.1 1050.8,776.1 1052.1,776.8 1053.4,777.1 1054.7,777.2 1056.1,776.9 1057.4,775.8 1058.7,774.7 1060,773.6 1061.3,773.9 1062.7,774 1064,774.5 1065.3,775.5 1066.6,775.9 1068,776.4 1069.3,777.2 1070.6,777.5 1071.9,777.7 1073.2,777.2 1074.6,776.4 1075.9,774.5 1077.2,775.2 1078.5,774.8 1079.8,775.3 1081.2,775.5 1082.5,775.9 1083.8,776.9 1085.1,776.9 1086.4,776.6 1087.8,776.1 1089.1,775.3 1090.4,774.8 1091.7,775.2 1093.1,775.5 1094.4,776.1 1095.7,776.6 1097,777.1 1098.3,794.9 1099.7,794.2 1101,790.7 1102.3,786.6 1103.6,783.7 1104.9,782 1106.3,780.1 1107.6,777.2 1108.9,775.3 1110.2,772.8 1111.5,772.8 1112.9,773.1 1114.2,772.9 1115.5,773.7 1116.8,774.7 1118.2,775.6 1119.5,775.6 1120.8,776.8 1122.1,776.9 1123.4,776.3 1124.8,775.2 1126.1,774 1127.4,774.5 1128.7,774.7 1130,775.3 1131.4,775.5 1132.7,775.9 1134,776.3 1135.3,776.4 1136.6,776.9 1138,776.8 1139.3,776.9 1140.6,775.9 1141.9,775 1143.3,774 1144.6,774 1145.9,774.8 1147.2,775 1148.5,775.2 1149.9,775.3 1151.2,775.8 1152.5,776.3 1153.8,776.3 1155.1,776.4 1156.5,776.6 1157.8,776.8 1159.1,776.8 1160.4,775.9 1161.7,775.3 1163.1,775.2 1164.4,774.8 1165.7,775 1167,775.3 1168.4,775.8 1169.7,775.9 1171,775.6 1172.3,776.4 1173.6,776.4 1175,776.6 1176.3,777.1 1177.6,776.6 1178.9,775.9 1180.2,775.2 1181.6,774.7 1182.9,774.8 1184.2,774.7 1185.5,775 1186.8,775.2 1188.2,775.3 1189.5,776.3 1190.8,776.1 1192.1,776.3 1193.4,776.6 1194.8,776.8 1196.1,776.4 1197.4,775.9 1198.7,776.1 1200.1,775.6 1201.4,776.3 1202.7,777.1 1204,777.1 1205.3,776.6 1206.7,776.1 1208,775 1209.3,774.7 1210.6,775.2 1211.9,775.3 1213.3,775.6 1214.6,775.8 1215.9,775.8 1217.2,775.8 1218.5,776.3 1219.9,776.6 1221.2,776.8 1222.5,776.6 1223.8,775.9 1225.2,774.7 1226.5,774.7 1227.8,774.5 1229.1,774.8 1230.4,775 1231.8,775.8 1233.1,775.9 1234.4,775.6 1235.7,776.1 1237,776.3 1238.4,776.1 1239.7,776.8 1241,777.4 1242.3,777.2 1243.6,775.9 1245,775.9 1246.3,775.3 1247.6,775.2 1248.9,775.5 1250.3,776.1 1251.6,776.1 1252.9,776.3 1254.2,782.8 1255.5,781.5 1256.9,780.1 1258.2,777.7 1259.5,775.3 1260.8,774.2 1262.1,774 1263.5,774.2 1264.8,774.3 1266.1,775.2 1267.4,775.5 1268.7,775.3 1270.1,775.5 1271.4,775.9 1272.7,776.3 1274,776.8 1275.4,776.9 1276.7,775.9 1278,775.3 1279.3,774.8 1280.6,774.8 1282,775 1283.3,775.2 1284.6,775.3 1285.9,775.8 1287.2,775.8 1288.6,776.1 1289.9,776.1 1291.2,776.8 1292.5,776.8 1293.8,776.4 1295.2,775.5 1296.5,775.5 1297.8,775.5 1299.1,775.5 1300.5,775.5 1301.8,775.8 1303.1,776.4 1304.4,776.6 1305.7,776.4 1307.1,775.8 1308.4,775.5 1309.7,775.9 1311,775.6 1312.3,776.1 1313.7,775.9 1315,776.4 1316.3,776.4 1317.6,777.1 1318.9,776.9 1320.3,776.8 1321.6,776.6 1322.9,775 1324.2,773.4 1325.5,773.2 1326.9,773.4 1328.2,773.4 1329.5,773.7 1330.8,773.9 1332.2,774.2 1333.5,774.2 1334.8,774.7 1336.1,775 1337.4,775.3 1338.8,775.8 1340.1,775.5 1341.4,775.6 1342.7,776.1 1344,776.4 1345.4,776.9 1346.7,777.4 1348,777.1 1349.3,776.4 1350.6,775.6 1352,775.9 1353.3,775.8 1354.6,776.1 1355.9,776.1 1357.3,776.1 1358.6,776.3 1359.9,776.8 1361.2,776.6 1362.5,776.8 1363.9,775.6 1365.2,774.3 1366.5,774.2 1367.8,774.2 1369.1,774.8 1370.5,775.2 1371.8,775.8 1373.1,776.1 1374.4,776.6 1375.7,776.6 1377.1,776.3 1378.4,775.2 1379.7,775.2 1381,775.2 1382.4,775.5 1383.7,776.1 1385,775.8 1386.3,776.4 1387.6,776.8 1389,776.3 1390.3,777.2 1391.6,776.4 1392.9,775.5 1394.2,775.6 1395.6,775.6 1396.9,775.8 1398.2,776.1 1399.5,776.3 1400.8,776.6 1402.2,777.1 1403.5,776.9 1404.8,775.8 1406.1,775.2 1407.5,774.2 1408.8,775 1410.1,775 1411.4,775.6 1412.7,775.8 1414.1,775.9 1415.4,776.8 1416.7,776.8 1418,775.8 1419.3,775.3 1420.7,775 1422,774.8 1423.3,775.3 1424.6,775.8 1425.9,776.3 1427.3,776.8 1428.6,776.8 1429.9,776.6 1431.2,775.2 1432.6,773.7 1433.9,773.6 1435.2,773.4 1436.5,774.2 1437.8,774.8 1439.2,775 1440.5,775.2 1441.8,775.8 1443.1,776.4 1444.4,777.1 1445.8,777.2 1447.1,776.6 1448.4,775.9 1449.7,774.3 1451,774 1452.4,774.3 1453.7,774.7 1455,775.2 1456.3,776.1 1457.6,776.4 1459,776.3 1460.3,776.9 1461.6,776.9 1462.9,776.8 1464.3,775.8 1465.6,775 1466.9,774 1468.2,773.9 1469.5,774.3 1470.9,775.2 1472.2,775.5 1473.5,775.8 1474.8,776.1 1476.1,776.3 1477.5,776.6 1478.8,776.8 1480.1,775.9 1481.4,775.3 1482.7,775.3 1484.1,775.8 1485.4,776.6 1486.7,776.6 1488,776.3 1489.4,775.9 1490.7,775.3 1492,775 1493.3,775.5 1494.6,776.3 1496,776.6 1497.3,777.1 1498.6,776.3 1499.9,774.7 1501.2,774.5 1502.6,775 1503.9,775.2 1505.2,775.3 1506.5,775.9 1507.8,776.4 1509.2,776.8 1510.5,776.9 1511.8,776.4 1513.1,776.1 1514.5,775.3 1515.8,775.3 1517.1,775.5 1518.4,776.3 1519.7,776.9 1521.1,777.2 1522.4,776.8 1523.7,775.6 1525,774.3 1526.3,774 1527.7,773.9 1529,774.2 1530.3,774.5 1531.6,774.8 1532.9,775.6 1534.3,775.9 1535.6,776.6 1536.9,776.8 1538.2,776.6 1539.6,775 1540.9,773.2 1542.2,772.6 1543.5,772.9 1544.8,773.7 1546.2,774.3 1547.5,775.2 1548.8,775.2 1550.1,775.5 1551.4,775.9 1552.8,776.3 1554.1,776.4 1555.4,776.9 1556.7,777.2 1558,776.9 1559.4,775.3 1560.7,773.7 1562,773.4 1563.3,773.7 1564.7,774.3 1566,775 1567.3,777.4 1568.6,778.5 1569.9,778.4 1571.3,777.2 1572.6,775.9 1573.9,774.3 1575.2,774 1576.5,774.2 1577.9,774 1579.2,774.3 1580.5,775 1581.8,775.3 1583.1,776.1 1584.5,776.1 1585.8,776.4 1587.1,777.1 1588.4,776.8 1589.7,776.1 1591.1,775.2 1592.4,775.2 1593.7,775 1595,775.3 1596.4,775.2 1597.7,775.6 1599,775.8 1600.3,776.3 1601.6,776.6 1603,776.3 1604.3,775.8 1605.6,775.8 1606.9,775.8 1608.2,776.4 1609.6,776.3 1610.9,776.4 1612.2,776.8 1613.5,776.6 1614.8,776.1 1616.2,775.3 1617.5,775.3 1618.8,775.2 1620.1,775.3 1621.5,775.5 1622.8,775.6 1624.1,776.1 1625.4,776.3 1626.7,776.3 1628.1,776.4 1629.4,776.8 1630.7,777.1 1632,776.9 1633.3,775.8 1634.7,774.3 1636,773.9 1637.3,773.9 1638.6,774.2 1639.9,773.9 1641.3,774 1642.6,774.3 1643.9,774.3 1645.2,774.8 1646.6,774.7 1647.9,775.3 1649.2,775.3 1650.5,775.8 1651.8,775.9 1653.2,775.8 1654.5,776.3 1655.8,776.1 1657.1,776.6 1658.4,776.9 1659.8,776.4 1661.1,775.3 1662.4,774.7 1663.7,774.2 1665,774.3 1666.4,774 1667.7,774 1669,774.2 1670.3,774.2 1671.7,774.2 1673,774.5 1674.3,774.7 1675.6,774.5 1676.9,775 1678.3,774.8 1679.6,775.6 1680.9,775.5 1682.2,775.6 1683.5,775.8 1684.9,775.5 1686.2,775.9 1687.5,776.4 1688.8,776.9 1690.1,776.9 1691.5,776.8 1692.8,775.6 1694.1,774.3 1695.4,774.3 1696.8,774.5 1698.1,773.9 1699.4,773.9 1700.7,774 1702,773.9 1703.4,774 1704.7,773.9 1706,774 1707.3,774.3 1708.6,775.5 1710,777.2 1711.3,778.2 1712.6,778 1713.9,777.5 1715.2,776.6 1716.6,775.5 1717.9,774.2 1719.2,773.2 1720.5,773.1 1721.8,774.2 1723.2,774 1724.5,774.8 1725.8,775 1727.1,775.5 1728.5,776.1 1729.8,775.8 1731.1,776.6 1732.4,776.8 1733.7,776.6 1735.1,775.3 1736.4,774.8 1737.7,774.2 1739,773.9 1740.3,774.2 1741.7,774.7 1743,775 1744.3,775.3 1745.6,776.9 1746.9,778.8 1748.3,782.5 1749.6,791.8 1750.9,792.9 1752.2,793.8 1753.6,792.5 1754.9,789.9 1756.2,787.9 1757.5,786.8 1758.8,783.7 1760.2,780.9 1761.5,778.8 1762.8,776.8 1764.1,775.2 1765.4,772.9 1766.8,771.8 1768.1,771.5 1769.4,770.8 1770.7,770.1 1772,769.6 1773.4,769.1 1774.7,769 1776,769 1777.3,769.3 1778.7,769.4 1780,769.7 1781.3,769.7 1782.6,770.1 1783.9,769.9 1785.3,769.7 1786.6,770.5 1787.9,770.8 1789.2,771.2 1790.5,771.7 1791.9,771.5 1793.2,771.4 1794.5,771.7 1795.8,772 1797.1,772.5 1798.5,772.8 1799.8,772.9 1801.1,773.1 1802.4,773.4 1803.8,773.2 1805.1,773.7 1806.4,773.9 1807.7,774.2 1809,775.2 1810.4,774.8 1811.7,775.6 1813,775.8 1814.3,775.9 1815.6,776.4 1817,776.3 1818.3,776.6 1819.6,776.6 1820.9,776.6 1822.2,776.3 1823.6,775.6 1824.9,775 1826.2,774.3 1827.5,774.5 1828.9,774.3 1830.2,774.7 1831.5,774.3 1832.8,774.8 1834.1,774.7 1835.5,774.5 1836.8,808 1838.1,817.2 1839.4,819.5 1840.7,818.8 1842.1,816.6 1843.4,813.6 1844.7,810.4 1846,807.4 1847.3,804.4 1848.7,800.4 1850,797.9 1851.3,794.1 1852.6,791 1853.9,788.4 1855.3,785.3 1856.6,782.8 1857.9,779.9 1859.2,777.2 1860.6,775.2 1861.9,772.9 1863.2,770.4 1864.5,769.7 1865.8,768.6 " />
</g>

<g fill="none" stroke="#000000" stroke-opacity="1" stroke-width="1" stroke-linecap="square" stroke-linejoin="bevel" transform="matrix(1.00209,0,0,1.00209,0,0)"
font-family="Cantarell" font-size="11" font-weight="400" font-style="normal" 
>
</g>

<g fill="none" stroke="#000000" stroke-opacity="1" stroke-width="1" stroke-linecap="square" stroke-linejoin="bevel" transform="matrix(1.00209,0,0,1.00209,1656.59,32.5678)"
font-family="Cantarell" font-size="11" font-weight="400" font-style="normal" 
>
</g>

<g fill="none" stroke="#000000" stroke-opacity="1" stroke-width="1" stroke-linecap="square" stroke-linejoin="bevel" transform="matrix(1.00209,0,0,1.00209,1656.59,32.5678)"
font-family="Cantarell" font-size="11" font-weight="400" font-style="normal" 
>
</g>

<g fill="none" stroke="#000000" stroke-opacity="1" stroke-width="1" stroke-linecap="square" stroke-linejoin="bevel" transform="matrix(1.00209,0,0,1.00209,1656.59,32.5678)"
font-family="Cantarell" font-size="11" font-weight="400" font-style="normal" 
>
</g>

<g fill="none" stroke="#000000" stroke-opacity="1" stroke-width="1" stroke-linecap="square" stroke-linejoin="bevel" transform="matrix(1.00209,0,0,1.00209,1656.59,32.5678)"
font-family="Cantarell" font-size="11" font-weight="400" font-style="normal" 
>
<text fill="#000000" fill-opacity="1" stroke="none" xml:space="preserve" x="4" y="16" font-family="Sans" font-size="9" font-weight="400" font-style="normal" 
 >'monitor_data.dat' using 0:col</text>
</g>

<g fill="none" stroke="#000000" stroke-opacity="1" stroke-width="1" stroke-linecap="square" stroke-linejoin="bevel" transform="matrix(1.00209,0,0,1.00209,1656.59,32.5678)"
font-family="Cantarell" font-size="11" font-weight="400" font-style="normal" 
>
</g>

<g fill="none" stroke="#000000" stroke-opacity="1" stroke-width="1" stroke-linecap="square" stroke-linejoin="bevel" transform="matrix(1,0,0,1,0,0)"
font-family="Cantarell" font-size="11" font-weight="400" font-style="normal" 
>
</g>

<g fill="none" stroke="#000000" stroke-opacity="1" stroke-width="1" stroke-linecap="square" stroke-linejoin="bevel" transform="matrix(1.00209,0,0,1.00209,1656.59,32.5678)"
font-family="Cantarell" font-size="11" font-weight="400" font-style="normal" 
>
</g>

<g fill="none" stroke="#000000" stroke-opacity="1" stroke-width="1" stroke-linecap="square" stroke-linejoin="bevel" transform="matrix(1.00209,0,0,1.00209,1656.59,32.5678)"
font-family="Cantarell" font-size="11" font-weight="400" font-style="normal" 
>
</g>

<g fill="none" stroke="#000000" stroke-opacity="1" stroke-width="1" stroke-linecap="square" stroke-linejoin="bevel" transform="matrix(1.00209,0,0,1.00209,1656.59,32.5678)"
font-family="Cantarell" font-size="11" font-weight="400" font-style="normal" 
>
</g>

<g fill="none" stroke="#000000" stroke-opacity="1" stroke-width="1" stroke-linecap="square" stroke-linejoin="bevel" transform="matrix(1.00209,0,0,1.00209,0,0)"
font-family="Cantarell" font-size="11" font-weight="400" font-style="normal" 
>
</g>

<g fill="none" stroke="#009e73" stroke-opacity="1" stroke-width="1" stroke-linecap="round" stroke-linejoin="round" transform="matrix(1.00209,0,0,1.00209,0,0)"
font-family="Cantarell" font-size="11" font-weight="400" font-style="normal" 
>
<path vector-effect="none" fill-rule="evenodd" d="M1846.5,43.5 L1880.5,43.5"/>
</g>

<g fill="none" stroke="#000000" stroke-opacity="1" stroke-width="1" stroke-linecap="square" stroke-linejoin="bevel" transform="matrix(1.00209,0,0,1.00209,0,0)"
font-family="Cantarell" font-size="11" font-weight="400" font-style="normal" 
>
</g>

<g fill="none" stroke="#000000" stroke-opacity="1" stroke-width="1" stroke-linecap="square" stroke-linejoin="bevel" transform="matrix(1.00209,0,0,1.00209,0,0)"
font-family="Cantarell" font-size="11" font-weight="400" font-style="normal" 
>
</g>

<g fill="none" stroke="#000000" stroke-opacity="1" stroke-width="1" stroke-linecap="square" stroke-linejoin="bevel" transform="matrix(1.00209,0,0,1.00209,0,0)"
font-family="Cantarell" font-size="11" font-weight="400" font-style="normal" 
>
</g>

<g fill="none" stroke="#000000" stroke-opacity="1" stroke-width="1" stroke-linecap="square" stroke-linejoin="bevel" transform="matrix(1.00209,0,0,1.00209,0,0)"
font-family="Cantarell" font-size="11" font-weight="400" font-style="normal" 
>
</g>

<g fill="none" stroke="#009e73" stroke-opacity="1" stroke-width="1" stroke-linecap="round" stroke-linejoin="round" transform="matrix(1.00209,0,0,1.00209,0,0)"
font-family="Cantarell" font-size="11" font-weight="400" font-style="normal" 
>
<polyline fill="none" vector-effect="none" points="45.5,761.1 45.5,761.1 46.8,774.7 48.1,733.5 49.5,684.7 50.8,670.6 52.1,671 53.4,673.1 54.7,670.9 56.1,672.1 57.4,669.8 58.7,668.2 60,668.2 61.4,666.3 62.7,661.8 64,664 65.3,662.5 66.6,663.2 68,663.1 69.3,660.3 70.6,660.4 71.9,659.2 73.2,657.8 74.6,657.5 75.9,657.4 77.2,655.7 78.5,655.6 79.8,655.3 81.2,654.9 82.5,653.6 83.8,651.6 85.1,652.5 86.5,650.6 87.8,650.7 89.1,647.5 90.4,646.3 91.7,644.8 93.1,644.1 94.4,640.4 95.7,642.5 97,640.9 98.3,639.7 99.7,639.3 101,634.9 102.3,635.5 103.6,632.7 104.9,632.6 106.3,630.8 107.6,627.8 108.9,625.3 110.2,624.1 111.6,621.4 112.9,621 114.2,619.5 115.5,619.1 116.8,618.1 118.2,617 119.5,611.7 120.8,614.1 122.1,609 123.4,606 124.8,608.4 126.1,603.6 127.4,602.4 128.7,597.6 130,594.3 131.4,595.4 132.7,595.8 134,595.4 135.3,586.4 136.6,589.1 138,584.6 139.3,586.6 140.6,585.3 141.9,581.8 143.3,587.2 144.6,584.1 145.9,578.2 147.2,579.6 148.5,574.8 149.9,574.2 151.2,577 152.5,576.4 153.8,572.8 155.1,569.2 156.5,562.3 157.8,553.7 159.1,547.7 160.4,537.7 161.7,529.2 163.1,520.8 164.4,514.7 165.7,512 167,509.1 168.4,506.4 169.7,507.5 171,510.5 172.3,512.3 173.6,510.3 175,517.9 176.3,510 177.6,503.5 178.9,495.3 180.2,489.3 181.6,482.6 182.9,477.2 184.2,476.1 185.5,473.8 186.8,475.6 188.2,474.9 189.5,475.1 190.8,466.6 192.1,464.2 193.5,453.6 194.8,447.8 196.1,448 197.4,450.2 198.7,445.8 200.1,444.4 201.4,447.9 202.7,441.2 204,436.3 205.3,430.1 206.7,422.7 208,420 209.3,421.3 210.6,418.8 211.9,419.9 213.3,417.2 214.6,412.5 215.9,404.7 217.2,396.5 218.6,391.8 219.9,391.4 221.2,393.1 222.5,393.5 223.8,391 225.2,391.7 226.5,389 227.8,382.9 229.1,378.2 230.4,371.2 231.8,369.5 233.1,368.5 234.4,369.5 235.7,369.5 237,368.4 238.4,362.4 239.7,358.1 241,351.1 242.3,349.8 243.7,347.5 245,347.3 246.3,349.2 247.6,347.8 248.9,343.4 250.3,337 251.6,330.6 252.9,322.7 254.2,318.8 255.5,319.1 256.9,319.7 258.2,322.6 259.5,320.5 260.8,319.5 262.1,320.7 263.5,316.5 264.8,309.6 266.1,305.9 267.4,302.6 268.7,305.4 270.1,306.3 271.4,303.2 272.7,297.3 274,292.3 275.4,291 276.7,290.1 278,293.7 279.3,293 280.6,291.5 282,289.5 283.3,286.2 284.6,277.2 285.9,271.5 287.2,268.7 288.6,266 289.9,266.7 291.2,270.2 292.5,272 293.8,272 295.2,266.9 296.5,259.5 297.8,254.4 299.1,251.1 300.5,252.7 301.8,251 303.1,255.3 304.4,256 305.7,258.1 307.1,251.1 308.4,244.5 309.7,242 311,239 312.3,236.7 313.7,239.6 315,244.7 316.3,244.4 317.6,239.8 318.9,232.8 320.3,227.5 321.6,225.7 322.9,225.2 324.2,226.9 325.6,230.7 326.9,234 328.2,236.1 329.5,229.4 330.8,227.9 332.2,220.4 333.5,214.6 334.8,213.3 336.1,214.8 337.4,214.7 338.8,217.4 340.1,221.6 341.4,221.7 342.7,216.6 344,214.7 345.4,213.5 346.7,209.3 348,208.5 349.3,214.3 350.7,212.7 352,213.5 353.3,210.2 354.6,206.6 355.9,206.5 357.3,208 358.6,209.2 359.9,211.5 361.2,207.3 362.5,202.9 363.9,202.6 365.2,204.7 366.5,206.6 367.8,207.3 369.1,205.3 370.5,198.9 371.8,197.3 373.1,200.8 374.4,205.9 375.8,208 377.1,208.2 378.4,205.1 379.7,200.1 381,194.3 382.4,193.9 383.7,194.3 385,198.4 386.3,203.1 387.6,204.5 389,205.7 390.3,205.1 391.6,201.6 392.9,200 394.2,190.8 395.6,183.7 396.9,183.3 398.2,185.8 399.5,189 400.8,195.5 402.2,196.3 403.5,198.7 404.8,193.8 406.1,191.5 407.5,191.4 408.8,193.7 410.1,196.2 411.4,196.4 412.7,199.4 414.1,196.2 415.4,191.2 416.7,188.3 418,184.5 419.3,186.1 420.7,187.5 422,194.9 423.3,193.9 424.6,194.8 425.9,193.5 427.3,188.9 428.6,185.5 429.9,183.6 431.2,184.1 432.6,185.4 433.9,189.5 435.2,189.7 436.5,193.2 437.8,190.4 439.2,187.2 440.5,180.2 441.8,181 443.1,184.4 444.4,190.3 445.8,190.5 447.1,190 448.4,187.1 449.7,185.8 451,186.2 452.4,189.3 453.7,191.4 455,185.2 456.3,183.3 457.7,183.3 459,185.1 460.3,187.9 461.6,192.1 462.9,190.5 464.3,185.9 465.6,180.1 466.9,179.1 468.2,175.6 469.5,179.5 470.9,183.6 472.2,183.5 473.5,186.3 474.8,186 476.1,185 477.5,181.6 478.8,180 480.1,182.9 481.4,187.7 482.8,186.3 484.1,185.7 485.4,183.3 486.7,176.3 488,175.6 489.4,180.4 490.7,184.8 492,187.3 493.3,189.9 494.6,183.8 496,179.2 497.3,176.1 498.6,174.4 499.9,178.4 501.2,177.3 502.6,186.6 503.9,187.8 505.2,191.5 506.5,186.5 507.9,181.1 509.2,171.2 510.5,171 511.8,175 513.1,181.3 514.5,183.9 515.8,188.6 517.1,189.2 518.4,185.6 519.7,179.6 521.1,176.5 522.4,173.7 523.7,178.2 525,184.4 526.3,186 527.7,182.7 529,181.2 530.3,177 531.6,170.8 532.9,170.4 534.3,168.8 535.6,176.7 536.9,179.2 538.2,185.2 539.6,189.7 540.9,189.7 542.2,185.5 543.5,183.9 544.8,176.2 546.2,173.2 547.5,172.4 548.8,170.8 550.1,177.8 551.4,180.5 552.8,186.1 554.1,184.4 555.4,182.6 556.7,178.7 558,173.5 559.4,171.8 560.7,176.8 562,179.5 563.3,179.5 564.7,178.2 566,174.2 567.3,171.4 568.6,171.9 569.9,175.4 571.3,181.3 572.6,185.6 573.9,184 575.2,185 576.5,177.9 577.9,175.2 579.2,166.2 580.5,166 581.8,167.5 583.1,172.3 584.5,179.3 585.8,185.1 587.1,187.2 588.4,181.3 589.8,178.5 591.1,168.4 592.4,166.4 593.7,165.8 595,171.2 596.4,172.7 597.7,173.6 599,164.6 600.3,158 601.6,160 603,166.2 604.3,168.8 605.6,177.7 606.9,174.2 608.2,170.8 609.6,164.4 610.9,159.6 612.2,165.2 613.5,166.6 614.9,165.3 616.2,163.2 617.5,156.7 618.8,156.4 620.1,157.8 621.5,163 622.8,169.9 624.1,169.4 625.4,162.5 626.7,160 628.1,155.1 629.4,153.7 630.7,156.1 632,160.5 633.3,163.5 634.7,166.2 636,163.5 637.3,160.9 638.6,154.2 640,153.4 641.3,156.4 642.6,163.5 643.9,165.8 645.2,162.4 646.6,155.2 647.9,150.9 649.2,147.9 650.5,151 651.8,156.6 653.2,158.4 654.5,161.6 655.8,154.5 657.1,153.3 658.4,149.1 659.8,145.7 661.1,141.7 662.4,148.1 663.7,150.2 665,158.4 666.4,160 667.7,158 669,154 670.3,149.2 671.7,145 673,140.6 674.3,137.9 675.6,141.4 676.9,146.3 678.3,150.6 679.6,152.5 680.9,157 682.2,158 683.5,154.2 684.9,146.9 686.2,145.4 687.5,142.3 688.8,139 690.1,144 691.5,150.6 692.8,151.9 694.1,149.3 695.4,147.5 696.8,142.9 698.1,136.9 699.4,135.3 700.7,140.4 702,140.4 703.4,149.3 704.7,149.4 706,150.6 707.3,148.2 708.6,145.9 710,142.9 711.3,139.6 712.6,136.4 713.9,138.1 715.2,140.7 716.6,140.2 717.9,142.5 719.2,140.3 720.5,137.6 721.9,134.3 723.2,135.4 724.5,137.2 725.8,139 727.1,140 728.5,138.8 729.8,135.2 731.1,133.2 732.4,130.4 733.7,132.7 735.1,136.7 736.4,135.5 737.7,136.5 739,134.4 740.3,132.4 741.7,130.2 743,127.4 744.3,131.3 745.6,132.2 747,129.9 748.3,129.5 749.6,125.8 750.9,124.7 752.2,126.3 753.6,131.8 754.9,137.6 756.2,137.4 757.5,136.3 758.8,132.6 760.2,129.1 761.5,125.9 762.8,124.2 764.1,122.5 765.4,122.7 766.8,119.2 768.1,117.8 769.4,119.7 770.7,126.3 772.1,128 773.4,126.3 774.7,123.1 776,120.1 777.3,116.9 778.7,116.9 780,119.1 781.3,122.8 782.6,121.8 783.9,123 785.3,123.6 786.6,118.9 787.9,116.2 789.2,117 790.5,114.6 791.9,113.3 793.2,116.2 794.5,119.7 795.8,121.4 797.1,120.4 798.5,118.2 799.8,117.2 801.1,115.4 802.4,112.1 803.8,112 805.1,111.9 806.4,115.2 807.7,114.5 809,113.3 810.4,111 811.7,110 813,109.1 814.3,110.6 815.6,111.8 817,113.3 818.3,116 819.6,114.3 820.9,113.2 822.2,112.6 823.6,112 824.9,110.3 826.2,109.4 827.5,107.7 828.9,105.3 830.2,105.5 831.5,103.9 832.8,105.1 834.1,109.5 835.5,111 836.8,113.1 838.1,115.2 839.4,112.4 840.7,110.5 842.1,110.1 843.4,109.6 844.7,109 846,106.2 847.3,105.2 848.7,104.2 850,103.2 851.3,101.8 852.6,101.8 854,103 855.3,107.7 856.6,108.5 857.9,107.9 859.2,107 860.6,105.9 861.9,105 863.2,103.3 864.5,102.5 865.8,101.7 867.2,101.9 868.5,101.4 869.8,102.1 871.1,104.4 872.4,107.2 873.8,107.5 875.1,106.2 876.4,106 877.7,105.1 879.1,104.2 880.4,100.9 881.7,100.6 883,99.9 884.3,103.7 885.7,107.3 887,107.3 888.3,106.6 889.6,105 890.9,104.6 892.3,102.9 893.6,102.1 894.9,102.5 896.2,100.8 897.5,100.5 898.9,100.4 900.2,98.8 901.5,99.8 902.8,98.1 904.2,101.8 905.5,109.2 906.8,111.8 908.1,111.2 909.4,111.4 910.8,110.2 912.1,107.3 913.4,106.5 914.7,104.5 916,103.3 917.4,103 918.7,101.7 920,100.5 921.3,99.5 922.6,98.8 924,102 925.3,102.4 926.6,105.2 927.9,105.3 929.2,102.8 930.6,102.8 931.9,102.6 933.2,101.7 934.5,101.1 935.9,101 937.2,101 938.5,103.5 939.8,103.2 941.1,103.3 942.5,102.5 943.8,100.1 945.1,98.9 946.4,100 947.7,101.3 949.1,103.1 950.4,102.9 951.7,101.4 953,102.9 954.3,102.8 955.7,101 957,100.1 958.3,100.3 959.6,100.9 961,104.3 962.3,107.2 963.6,107.6 964.9,105.6 966.2,104.2 967.6,103.2 968.9,103.6 970.2,101.5 971.5,99.9 972.8,99.7 974.2,103.7 975.5,105 976.8,102.8 978.1,102.6 979.4,100.6 980.8,99.9 982.1,100.8 983.4,103.6 984.7,105.1 986.1,106.5 987.4,103 988.7,102.7 990,100.4 991.3,100.1 992.7,100.9 994,103.4 995.3,101.8 996.6,102 997.9,101.8 999.3,101.2 1000.6,101 1001.9,100.4 1003.2,100.3 1004.5,103.5 1005.9,107.3 1007.2,106.4 1008.5,108.3 1009.8,107.1 1011.2,104.7 1012.5,104.5 1013.8,104.1 1015.1,102.1 1016.4,101.7 1017.8,102.5 1019.1,105.3 1020.4,108.8 1021.7,109.6 1023,111.3 1024.4,108.7 1025.7,106.4 1027,104.1 1028.3,103.1 1029.6,102.7 1031,104 1032.3,105.7 1033.6,109.2 1034.9,110.8 1036.3,111.2 1037.6,109.6 1038.9,108.3 1040.2,106.3 1041.5,105.9 1042.9,105.2 1044.2,108.3 1045.5,114.1 1046.8,114.9 1048.1,109.8 1049.5,109.7 1050.8,106.8 1052.1,107.1 1053.4,106.1 1054.7,104.7 1056.1,106.5 1057.4,109.1 1058.7,113 1060,117.1 1061.3,117.9 1062.7,115.8 1064,114.8 1065.3,111.5 1066.6,108.2 1068,107.9 1069.3,106.1 1070.6,104.6 1071.9,104.9 1073.2,105.8 1074.6,109.5 1075.9,113.7 1077.2,116 1078.5,115.2 1079.8,112.7 1081.2,111.7 1082.5,109.7 1083.8,107.8 1085.1,106.6 1086.4,107.8 1087.8,110.6 1089.1,112.8 1090.4,114.4 1091.7,112.9 1093.1,112.7 1094.4,112.8 1095.7,111.1 1097,107.2 1098.3,747 1099.7,603.7 1101,520.3 1102.3,494.8 1103.6,464.6 1104.9,431.3 1106.3,400.2 1107.6,380.2 1108.9,360.4 1110.2,354 1111.5,330 1112.9,317.2 1114.2,298.8 1115.5,283.6 1116.8,269 1118.2,251.6 1119.5,240.8 1120.8,228.6 1122.1,217.4 1123.4,210.3 1124.8,208.9 1126.1,205.6 1127.4,197 1128.7,189.6 1130,182.2 1131.4,175.3 1132.7,168.6 1134,164.6 1135.3,158.3 1136.6,153.9 1138,151.9 1139.3,147 1140.6,146.9 1141.9,147 1143.3,146.2 1144.6,144.3 1145.9,139.9 1147.2,137.3 1148.5,135 1149.9,130.8 1151.2,129.1 1152.5,125.8 1153.8,125.3 1155.1,123.4 1156.5,120.8 1157.8,118.6 1159.1,116.9 1160.4,118.1 1161.7,117.9 1163.1,119 1164.4,117.3 1165.7,115.6 1167,115.5 1168.4,113.1 1169.7,112.1 1171,110.1 1172.3,111 1173.6,107.9 1175,106.9 1176.3,106.3 1177.6,104.7 1178.9,106.7 1180.2,108.1 1181.6,109.5 1182.9,108.5 1184.2,107.5 1185.5,107.4 1186.8,105.3 1188.2,105.3 1189.5,103.8 1190.8,104.9 1192.1,102.1 1193.4,102.3 1194.8,99.2 1196.1,100.7 1197.4,101.6 1198.7,100.9 1200.1,100.3 1201.4,98.8 1202.7,99.4 1204,98.5 1205.3,98.9 1206.7,98.9 1208,100.6 1209.3,103 1210.6,100 1211.9,99.4 1213.3,98.6 1214.6,97.5 1215.9,96.6 1217.2,96.7 1218.5,97.9 1219.9,94.5 1221.2,95.2 1222.5,92.9 1223.8,94.6 1225.2,96.9 1226.5,97 1227.8,98.1 1229.1,96.7 1230.4,95.6 1231.8,95.8 1233.1,95.3 1234.4,93.9 1235.7,94.7 1237,92.8 1238.4,92.8 1239.7,94.4 1241,92 1242.3,89.9 1243.6,92.4 1245,96 1246.3,93.7 1247.6,95.9 1248.9,94.3 1250.3,93.2 1251.6,93.9 1252.9,95.5 1254.2,325 1255.5,295.3 1256.9,273.4 1258.2,263.1 1259.5,256.7 1260.8,243.6 1262.1,233.4 1263.5,222.2 1264.8,212.1 1266.1,200.9 1267.4,193 1268.7,184.8 1270.1,177.8 1271.4,169.9 1272.7,163.8 1274,158.2 1275.4,152.3 1276.7,147.2 1278,147.8 1279.3,146.3 1280.6,141.9 1282,139.8 1283.3,137.3 1284.6,133.5 1285.9,129.1 1287.2,126.7 1288.6,123.6 1289.9,122.7 1291.2,120.1 1292.5,116.7 1293.8,115.8 1295.2,115.7 1296.5,116.6 1297.8,114.2 1299.1,112.2 1300.5,111.1 1301.8,110.4 1303.1,107.4 1304.4,106.3 1305.7,107.4 1307.1,107.1 1308.4,108.8 1309.7,109.9 1311,106.1 1312.3,105.1 1313.7,104.8 1315,105.7 1316.3,102.8 1317.6,103.2 1318.9,100.4 1320.3,100 1321.6,102.8 1322.9,102.8 1324.2,110.3 1325.5,109 1326.9,110 1328.2,106.9 1329.5,108.4 1330.8,105.7 1332.2,106.9 1333.5,103.4 1334.8,102.8 1336.1,103 1337.4,103 1338.8,100.7 1340.1,100.7 1341.4,100.6 1342.7,98.8 1344,101.6 1345.4,99.7 1346.7,98.6 1348,95.6 1349.3,96.8 1350.6,99.9 1352,101.1 1353.3,100 1354.6,100.3 1355.9,100.7 1357.3,100.3 1358.6,97.9 1359.9,97.4 1361.2,97.3 1362.5,96.9 1363.9,96.9 1365.2,101.7 1366.5,104.3 1367.8,103.9 1369.1,103 1370.5,103.4 1371.8,100.5 1373.1,99.6 1374.4,98.2 1375.7,98.7 1377.1,100.1 1378.4,99.8 1379.7,100.2 1381,98.5 1382.4,98.7 1383.7,99.3 1385,97.5 1386.3,99.1 1387.6,97.2 1389,96.4 1390.3,96.7 1391.6,94.3 1392.9,99.1 1394.2,98.8 1395.6,98.1 1396.9,99.1 1398.2,99.7 1399.5,97.7 1400.8,98.1 1402.2,97.8 1403.5,94.6 1404.8,94.9 1406.1,99.6 1407.5,106.5 1408.8,102.9 1410.1,99.4 1411.4,100.6 1412.7,100 1414.1,99 1415.4,97.1 1416.7,97.4 1418,96.3 1419.3,101.1 1420.7,99.8 1422,100.4 1423.3,101.1 1424.6,100.4 1425.9,98.5 1427.3,98.6 1428.6,97 1429.9,94.6 1431.2,100.4 1432.6,104.3 1433.9,104.5 1435.2,104.1 1436.5,105.8 1437.8,101.9 1439.2,101.4 1440.5,101.6 1441.8,98.7 1443.1,96.8 1444.4,96.3 1445.8,92.3 1447.1,96.1 1448.4,96.2 1449.7,101.8 1451,101.2 1452.4,103.4 1453.7,102.1 1455,102.4 1456.3,101.7 1457.6,99.4 1459,96.6 1460.3,97.7 1461.6,95.9 1462.9,96.9 1464.3,98.8 1465.6,102.9 1466.9,103.4 1468.2,102.5 1469.5,104.1 1470.9,101.2 1472.2,101.7 1473.5,99.4 1474.8,100.2 1476.1,98.7 1477.5,96.6 1478.8,95.9 1480.1,96.6 1481.4,98.2 1482.7,101.5 1484.1,101 1485.4,100.4 1486.7,98.7 1488,99.6 1489.4,99.4 1490.7,99.3 1492,100.9 1493.3,102.7 1494.6,100.9 1496,97.2 1497.3,97.2 1498.6,99.2 1499.9,101.2 1501.2,101.2 1502.6,103.3 1503.9,101 1505.2,100.1 1506.5,98.1 1507.8,97.9 1509.2,97.1 1510.5,97.9 1511.8,94.8 1513.1,99.2 1514.5,99.6 1515.8,101.3 1517.1,100 1518.4,100.2 1519.7,99.4 1521.1,98 1522.4,96.1 1523.7,97.4 1525,102.4 1526.3,103.7 1527.7,105.9 1529,103.4 1530.3,102 1531.6,101.9 1532.9,100 1534.3,98.9 1535.6,98.4 1536.9,97.4 1538.2,96.8 1539.6,97.2 1540.9,103.4 1542.2,104.1 1543.5,106 1544.8,103.9 1546.2,103.7 1547.5,101.4 1548.8,99.4 1550.1,98.6 1551.4,96.3 1552.8,96.4 1554.1,96.8 1555.4,95.5 1556.7,94.3 1558,92.8 1559.4,98 1560.7,99.6 1562,102.4 1563.3,102.8 1564.7,101.9 1566,100.9 1567.3,205.8 1568.6,189.6 1569.9,172.4 1571.3,164.2 1572.6,157.4 1573.9,155.1 1575.2,146 1576.5,140.1 1577.9,134.3 1579.2,128.4 1580.5,121.3 1581.8,116.7 1583.1,112.4 1584.5,109.8 1585.8,105.6 1587.1,102.6 1588.4,99.5 1589.7,98.5 1591.1,100.5 1592.4,98.9 1593.7,97.2 1595,94.5 1596.4,95 1597.7,92.6 1599,89.7 1600.3,89.1 1601.6,88.5 1603,87.2 1604.3,86.9 1605.6,86.8 1606.9,87.4 1608.2,87.4 1609.6,85.7 1610.9,84.9 1612.2,82.7 1613.5,83.8 1614.8,84.4 1616.2,83.5 1617.5,84.4 1618.8,84.2 1620.1,84.6 1621.5,85.3 1622.8,82.5 1624.1,82.9 1625.4,81.1 1626.7,80.2 1628.1,81.3 1629.4,81.2 1630.7,80.5 1632,78.8 1633.3,81.2 1634.7,84 1636,85.1 1637.3,83.9 1638.6,84 1639.9,83.7 1641.3,82.7 1642.6,83.1 1643.9,80.7 1645.2,79.6 1646.6,79.4 1647.9,79.5 1649.2,78.8 1650.5,78.3 1651.8,77.6 1653.2,78.2 1654.5,76.8 1655.8,77.2 1657.1,78.5 1658.4,77 1659.8,77.3 1661.1,78.9 1662.4,80.4 1663.7,81.5 1665,83 1666.4,84.3 1667.7,85.3 1669,84.9 1670.3,84.7 1671.7,83.8 1673,85.2 1674.3,84 1675.6,84.8 1676.9,85.6 1678.3,84.3 1679.6,84.6 1680.9,84.4 1682.2,85.5 1683.5,86 1684.9,85.8 1686.2,86.3 1687.5,86 1688.8,85.6 1690.1,84.4 1691.5,84.8 1692.8,83.6 1694.1,86.5 1695.4,86.5 1696.8,86.3 1698.1,85.9 1699.4,87.2 1700.7,86.7 1702,86.5 1703.4,85.2 1704.7,85.7 1706,86.6 1707.3,86.8 1708.6,86.3 1710,82.3 1711.3,78.1 1712.6,76.3 1713.9,75.9 1715.2,77.9 1716.6,80.2 1717.9,83.1 1719.2,84.1 1720.5,84.7 1721.8,82.7 1723.2,80 1724.5,79.1 1725.8,77.8 1727.1,75.5 1728.5,75.6 1729.8,74.5 1731.1,75.5 1732.4,73.6 1733.7,73.6 1735.1,74.9 1736.4,77.4 1737.7,79 1739,79.6 1740.3,78.5 1741.7,78.3 1743,77 1744.3,76.4 1745.6,78.3 1746.9,73.8 1748.3,133.1 1749.6,390.9 1750.9,287.4 1752.2,219.5 1753.6,181.7 1754.9,162.3 1756.2,144.1 1757.5,129.8 1758.8,119.1 1760.2,115.3 1761.5,107.2 1762.8,98.8 1764.1,95.6 1765.4,93.7 1766.8,93.4 1768.1,87.2 1769.4,82.5 1770.7,79.7 1772,79.1 1773.4,76.3 1774.7,77.6 1776,74 1777.3,71.2 1778.7,70.8 1780,67.8 1781.3,67.4 1782.6,66.7 1783.9,63.2 1785.3,62.2 1786.6,64.1 1787.9,61.6 1789.2,61.4 1790.5,62.7 1791.9,62 1793.2,57.9 1794.5,60.2 1795.8,61 1797.1,62.3 1798.5,60.9 1799.8,61.3 1801.1,60.7 1802.4,58.5 1803.8,59.4 1805.1,59.3 1806.4,58.4 1807.7,59.4 1809,62.5 1810.4,58.7 1811.7,59.4 1813,59.2 1814.3,59.7 1815.6,61.4 1817,60.1 1818.3,59.4 1819.6,59.3 1820.9,59.7 1822.2,62.6 1823.6,62.5 1824.9,61.5 1826.2,61.1 1827.5,62.6 1828.9,61.9 1830.2,63.1 1831.5,60.4 1832.8,61.9 1834.1,62.5 1835.5,63.4 1836.8,365.7 1838.1,473.1 1839.4,410.1 1840.7,348.9 1842.1,310.5 1843.4,277.7 1844.7,254.6 1846,231.8 1847.3,205.7 1848.7,203.7 1850,188.2 1851.3,172 1852.6,163.6 1853.9,153.2 1855.3,148.7 1856.6,143 1857.9,139.8 1859.2,132 1860.6,128.7 1861.9,121.4 1863.2,123.6 1864.5,117 1865.8,112.2 " />
</g>

<g fill="none" stroke="#000000" stroke-opacity="1" stroke-width="1" stroke-linecap="square" stroke-linejoin="bevel" transform="matrix(1.00209,0,0,1.00209,0,0)"
font-family="Cantarell" font-size="11" font-weight="400" font-style="normal" 
>
</g>

<g fill="none" stroke="#000000" stroke-opacity="1" stroke-width="1" stroke-linecap="square" stroke-linejoin="bevel" transform="matrix(1.00209,0,0,1.00209,0,0)"
font-family="Cantarell" font-size="11" font-weight="400" font-style="normal" 
>
</g>

<g fill="none" stroke="#000000" stroke-opacity="1" stroke-width="1" stroke-linecap="round" stroke-linejoin="round" transform="matrix(1.00209,0,0,1.00209,0,0)"
font-family="Cantarell" font-size="11" font-weight="400" font-style="normal" 
>
<polyline fill="none" vector-effect="none" points="45.5,15.5 45.5,910.5 1894.5,910.5 1894.5,15.5 45.5,15.5 " />
</g>

<g fill="none" stroke="#000000" stroke-opacity="1" stroke-width="1" stroke-linecap="square" stroke-linejoin="bevel" transform="matrix(1.00209,0,0,1.00209,0,0)"
font-family="Cantarell" font-size="11" font-weight="400" font-style="normal" 
>
</g>

<g fill="none" stroke="#000000" stroke-opacity="1" stroke-width="1" stroke-linecap="square" stroke-linejoin="bevel" transform="matrix(1,0,0,1,0,0)"
font-family="Cantarell" font-size="11" font-weight="400" font-style="normal" 
>
</g>
</g>
</svg>
