<?xml version="1.0" encoding="UTF-8" standalone="no"?>
<svg width="504.825mm" height="236.714mm"
 viewBox="0 0 1431 671"
 xmlns="http://www.w3.org/2000/svg" xmlns:xlink="http://www.w3.org/1999/xlink"  version="1.2" baseProfile="tiny">
<title>Qt SVG Document</title>
<desc>Generated with Qt</desc>
<defs>
</defs>
<g fill="none" stroke="black" stroke-width="1" fill-rule="evenodd" stroke-linecap="square" stroke-linejoin="bevel" >

<g fill="none" stroke="#000000" stroke-opacity="1" stroke-width="1" stroke-linecap="square" stroke-linejoin="bevel" transform="matrix(1,0,0,1,0,0)"
font-family="Cantarell" font-size="11" font-weight="400" font-style="normal" 
>
</g>

<g fill="none" stroke="#000000" stroke-opacity="1" stroke-width="1" stroke-linecap="square" stroke-linejoin="bevel" transform="matrix(1.0028,0,0,1.0028,0,0)"
font-family="Cantarell" font-size="11" font-weight="400" font-style="normal" 
>
</g>

<g fill="none" stroke="#000000" stroke-opacity="1" stroke-width="1" stroke-linecap="round" stroke-linejoin="round" transform="matrix(1.0028,0,0,1.0028,0,0)"
font-family="Cantarell" font-size="11" font-weight="400" font-style="normal" 
>
<polyline fill="none" vector-effect="none" points="38.5,636.5 44.5,636.5 " />
<polyline fill="none" vector-effect="none" points="1405.5,636.5 1399.5,636.5 " />
</g>

<g fill="none" stroke="#000000" stroke-opacity="1" stroke-width="1" stroke-linecap="square" stroke-linejoin="bevel" transform="matrix(1.0028,0,0,1.0028,0,0)"
font-family="Cantarell" font-size="11" font-weight="400" font-style="normal" 
>
</g>

<g fill="none" stroke="#000000" stroke-opacity="1" stroke-width="1" stroke-linecap="square" stroke-linejoin="bevel" transform="matrix(1.0028,0,0,1.0028,13.0364,643.298)"
font-family="Cantarell" font-size="11" font-weight="400" font-style="normal" 
>
</g>

<g fill="none" stroke="#000000" stroke-opacity="1" stroke-width="1" stroke-linecap="square" stroke-linejoin="bevel" transform="matrix(1.0028,0,0,1.0028,13.0364,643.298)"
font-family="Cantarell" font-size="11" font-weight="400" font-style="normal" 
>
</g>

<g fill="none" stroke="#000000" stroke-opacity="1" stroke-width="1" stroke-linecap="square" stroke-linejoin="bevel" transform="matrix(1.0028,0,0,1.0028,13.0364,643.298)"
font-family="Cantarell" font-size="11" font-weight="400" font-style="normal" 
>
</g>

<g fill="none" stroke="#000000" stroke-opacity="1" stroke-width="1" stroke-linecap="square" stroke-linejoin="bevel" transform="matrix(1.0028,0,0,1.0028,13.0364,643.298)"
font-family="Cantarell" font-size="11" font-weight="400" font-style="normal" 
>
</g>

<g fill="none" stroke="#000000" stroke-opacity="1" stroke-width="1" stroke-linecap="square" stroke-linejoin="bevel" transform="matrix(1.0028,0,0,1.0028,13.0364,643.298)"
font-family="Cantarell" font-size="11" font-weight="400" font-style="normal" 
>
</g>

<g fill="none" stroke="#000000" stroke-opacity="1" stroke-width="1" stroke-linecap="square" stroke-linejoin="bevel" transform="matrix(1.0028,0,0,1.0028,13.0364,643.298)"
font-family="Sans" font-size="9" font-weight="400" font-style="normal" 
>
<text fill="#000000" fill-opacity="1" stroke="none" xml:space="preserve" x="0" y="0" font-family="Sans" font-size="9" font-weight="400" font-style="normal" 
 > 30</text>
</g>

<g fill="none" stroke="#000000" stroke-opacity="1" stroke-width="1" stroke-linecap="square" stroke-linejoin="bevel" transform="matrix(1.0028,0,0,1.0028,13.0364,643.298)"
font-family="Cantarell" font-size="11" font-weight="400" font-style="normal" 
>
</g>

<g fill="none" stroke="#000000" stroke-opacity="1" stroke-width="1" stroke-linecap="square" stroke-linejoin="bevel" transform="matrix(1.0028,0,0,1.0028,0,0)"
font-family="Cantarell" font-size="11" font-weight="400" font-style="normal" 
>
</g>

<g fill="none" stroke="#000000" stroke-opacity="1" stroke-width="1" stroke-linecap="round" stroke-linejoin="round" transform="matrix(1.0028,0,0,1.0028,0,0)"
font-family="Cantarell" font-size="11" font-weight="400" font-style="normal" 
>
<polyline fill="none" vector-effect="none" points="38.5,567.5 44.5,567.5 " />
<polyline fill="none" vector-effect="none" points="1405.5,567.5 1399.5,567.5 " />
</g>

<g fill="none" stroke="#000000" stroke-opacity="1" stroke-width="1" stroke-linecap="square" stroke-linejoin="bevel" transform="matrix(1.0028,0,0,1.0028,0,0)"
font-family="Cantarell" font-size="11" font-weight="400" font-style="normal" 
>
</g>

<g fill="none" stroke="#000000" stroke-opacity="1" stroke-width="1" stroke-linecap="square" stroke-linejoin="bevel" transform="matrix(1.0028,0,0,1.0028,13.0364,574.105)"
font-family="Cantarell" font-size="11" font-weight="400" font-style="normal" 
>
</g>

<g fill="none" stroke="#000000" stroke-opacity="1" stroke-width="1" stroke-linecap="square" stroke-linejoin="bevel" transform="matrix(1.0028,0,0,1.0028,13.0364,574.105)"
font-family="Cantarell" font-size="11" font-weight="400" font-style="normal" 
>
</g>

<g fill="none" stroke="#000000" stroke-opacity="1" stroke-width="1" stroke-linecap="square" stroke-linejoin="bevel" transform="matrix(1.0028,0,0,1.0028,13.0364,574.105)"
font-family="Cantarell" font-size="11" font-weight="400" font-style="normal" 
>
</g>

<g fill="none" stroke="#000000" stroke-opacity="1" stroke-width="1" stroke-linecap="square" stroke-linejoin="bevel" transform="matrix(1.0028,0,0,1.0028,13.0364,574.105)"
font-family="Cantarell" font-size="11" font-weight="400" font-style="normal" 
>
</g>

<g fill="none" stroke="#000000" stroke-opacity="1" stroke-width="1" stroke-linecap="square" stroke-linejoin="bevel" transform="matrix(1.0028,0,0,1.0028,13.0364,574.105)"
font-family="Cantarell" font-size="11" font-weight="400" font-style="normal" 
>
</g>

<g fill="none" stroke="#000000" stroke-opacity="1" stroke-width="1" stroke-linecap="square" stroke-linejoin="bevel" transform="matrix(1.0028,0,0,1.0028,13.0364,574.105)"
font-family="Sans" font-size="9" font-weight="400" font-style="normal" 
>
<text fill="#000000" fill-opacity="1" stroke="none" xml:space="preserve" x="0" y="0" font-family="Sans" font-size="9" font-weight="400" font-style="normal" 
 > 35</text>
</g>

<g fill="none" stroke="#000000" stroke-opacity="1" stroke-width="1" stroke-linecap="square" stroke-linejoin="bevel" transform="matrix(1.0028,0,0,1.0028,13.0364,574.105)"
font-family="Cantarell" font-size="11" font-weight="400" font-style="normal" 
>
</g>

<g fill="none" stroke="#000000" stroke-opacity="1" stroke-width="1" stroke-linecap="square" stroke-linejoin="bevel" transform="matrix(1.0028,0,0,1.0028,0,0)"
font-family="Cantarell" font-size="11" font-weight="400" font-style="normal" 
>
</g>

<g fill="none" stroke="#000000" stroke-opacity="1" stroke-width="1" stroke-linecap="round" stroke-linejoin="round" transform="matrix(1.0028,0,0,1.0028,0,0)"
font-family="Cantarell" font-size="11" font-weight="400" font-style="normal" 
>
<polyline fill="none" vector-effect="none" points="38.5,498.5 44.5,498.5 " />
<polyline fill="none" vector-effect="none" points="1405.5,498.5 1399.5,498.5 " />
</g>

<g fill="none" stroke="#000000" stroke-opacity="1" stroke-width="1" stroke-linecap="square" stroke-linejoin="bevel" transform="matrix(1.0028,0,0,1.0028,0,0)"
font-family="Cantarell" font-size="11" font-weight="400" font-style="normal" 
>
</g>

<g fill="none" stroke="#000000" stroke-opacity="1" stroke-width="1" stroke-linecap="square" stroke-linejoin="bevel" transform="matrix(1.0028,0,0,1.0028,13.0364,504.911)"
font-family="Cantarell" font-size="11" font-weight="400" font-style="normal" 
>
</g>

<g fill="none" stroke="#000000" stroke-opacity="1" stroke-width="1" stroke-linecap="square" stroke-linejoin="bevel" transform="matrix(1.0028,0,0,1.0028,13.0364,504.911)"
font-family="Cantarell" font-size="11" font-weight="400" font-style="normal" 
>
</g>

<g fill="none" stroke="#000000" stroke-opacity="1" stroke-width="1" stroke-linecap="square" stroke-linejoin="bevel" transform="matrix(1.0028,0,0,1.0028,13.0364,504.911)"
font-family="Cantarell" font-size="11" font-weight="400" font-style="normal" 
>
</g>

<g fill="none" stroke="#000000" stroke-opacity="1" stroke-width="1" stroke-linecap="square" stroke-linejoin="bevel" transform="matrix(1.0028,0,0,1.0028,13.0364,504.911)"
font-family="Cantarell" font-size="11" font-weight="400" font-style="normal" 
>
</g>

<g fill="none" stroke="#000000" stroke-opacity="1" stroke-width="1" stroke-linecap="square" stroke-linejoin="bevel" transform="matrix(1.0028,0,0,1.0028,13.0364,504.911)"
font-family="Cantarell" font-size="11" font-weight="400" font-style="normal" 
>
</g>

<g fill="none" stroke="#000000" stroke-opacity="1" stroke-width="1" stroke-linecap="square" stroke-linejoin="bevel" transform="matrix(1.0028,0,0,1.0028,13.0364,504.911)"
font-family="Sans" font-size="9" font-weight="400" font-style="normal" 
>
<text fill="#000000" fill-opacity="1" stroke="none" xml:space="preserve" x="0" y="0" font-family="Sans" font-size="9" font-weight="400" font-style="normal" 
 > 40</text>
</g>

<g fill="none" stroke="#000000" stroke-opacity="1" stroke-width="1" stroke-linecap="square" stroke-linejoin="bevel" transform="matrix(1.0028,0,0,1.0028,13.0364,504.911)"
font-family="Cantarell" font-size="11" font-weight="400" font-style="normal" 
>
</g>

<g fill="none" stroke="#000000" stroke-opacity="1" stroke-width="1" stroke-linecap="square" stroke-linejoin="bevel" transform="matrix(1.0028,0,0,1.0028,0,0)"
font-family="Cantarell" font-size="11" font-weight="400" font-style="normal" 
>
</g>

<g fill="none" stroke="#000000" stroke-opacity="1" stroke-width="1" stroke-linecap="round" stroke-linejoin="round" transform="matrix(1.0028,0,0,1.0028,0,0)"
font-family="Cantarell" font-size="11" font-weight="400" font-style="normal" 
>
<polyline fill="none" vector-effect="none" points="38.5,429.5 44.5,429.5 " />
<polyline fill="none" vector-effect="none" points="1405.5,429.5 1399.5,429.5 " />
</g>

<g fill="none" stroke="#000000" stroke-opacity="1" stroke-width="1" stroke-linecap="square" stroke-linejoin="bevel" transform="matrix(1.0028,0,0,1.0028,0,0)"
font-family="Cantarell" font-size="11" font-weight="400" font-style="normal" 
>
</g>

<g fill="none" stroke="#000000" stroke-opacity="1" stroke-width="1" stroke-linecap="square" stroke-linejoin="bevel" transform="matrix(1.0028,0,0,1.0028,13.0364,435.718)"
font-family="Cantarell" font-size="11" font-weight="400" font-style="normal" 
>
</g>

<g fill="none" stroke="#000000" stroke-opacity="1" stroke-width="1" stroke-linecap="square" stroke-linejoin="bevel" transform="matrix(1.0028,0,0,1.0028,13.0364,435.718)"
font-family="Cantarell" font-size="11" font-weight="400" font-style="normal" 
>
</g>

<g fill="none" stroke="#000000" stroke-opacity="1" stroke-width="1" stroke-linecap="square" stroke-linejoin="bevel" transform="matrix(1.0028,0,0,1.0028,13.0364,435.718)"
font-family="Cantarell" font-size="11" font-weight="400" font-style="normal" 
>
</g>

<g fill="none" stroke="#000000" stroke-opacity="1" stroke-width="1" stroke-linecap="square" stroke-linejoin="bevel" transform="matrix(1.0028,0,0,1.0028,13.0364,435.718)"
font-family="Cantarell" font-size="11" font-weight="400" font-style="normal" 
>
</g>

<g fill="none" stroke="#000000" stroke-opacity="1" stroke-width="1" stroke-linecap="square" stroke-linejoin="bevel" transform="matrix(1.0028,0,0,1.0028,13.0364,435.718)"
font-family="Cantarell" font-size="11" font-weight="400" font-style="normal" 
>
</g>

<g fill="none" stroke="#000000" stroke-opacity="1" stroke-width="1" stroke-linecap="square" stroke-linejoin="bevel" transform="matrix(1.0028,0,0,1.0028,13.0364,435.718)"
font-family="Sans" font-size="9" font-weight="400" font-style="normal" 
>
<text fill="#000000" fill-opacity="1" stroke="none" xml:space="preserve" x="0" y="0" font-family="Sans" font-size="9" font-weight="400" font-style="normal" 
 > 45</text>
</g>

<g fill="none" stroke="#000000" stroke-opacity="1" stroke-width="1" stroke-linecap="square" stroke-linejoin="bevel" transform="matrix(1.0028,0,0,1.0028,13.0364,435.718)"
font-family="Cantarell" font-size="11" font-weight="400" font-style="normal" 
>
</g>

<g fill="none" stroke="#000000" stroke-opacity="1" stroke-width="1" stroke-linecap="square" stroke-linejoin="bevel" transform="matrix(1.0028,0,0,1.0028,0,0)"
font-family="Cantarell" font-size="11" font-weight="400" font-style="normal" 
>
</g>

<g fill="none" stroke="#000000" stroke-opacity="1" stroke-width="1" stroke-linecap="round" stroke-linejoin="round" transform="matrix(1.0028,0,0,1.0028,0,0)"
font-family="Cantarell" font-size="11" font-weight="400" font-style="normal" 
>
<polyline fill="none" vector-effect="none" points="38.5,360.5 44.5,360.5 " />
<polyline fill="none" vector-effect="none" points="1405.5,360.5 1399.5,360.5 " />
</g>

<g fill="none" stroke="#000000" stroke-opacity="1" stroke-width="1" stroke-linecap="square" stroke-linejoin="bevel" transform="matrix(1.0028,0,0,1.0028,0,0)"
font-family="Cantarell" font-size="11" font-weight="400" font-style="normal" 
>
</g>

<g fill="none" stroke="#000000" stroke-opacity="1" stroke-width="1" stroke-linecap="square" stroke-linejoin="bevel" transform="matrix(1.0028,0,0,1.0028,13.0364,366.525)"
font-family="Cantarell" font-size="11" font-weight="400" font-style="normal" 
>
</g>

<g fill="none" stroke="#000000" stroke-opacity="1" stroke-width="1" stroke-linecap="square" stroke-linejoin="bevel" transform="matrix(1.0028,0,0,1.0028,13.0364,366.525)"
font-family="Cantarell" font-size="11" font-weight="400" font-style="normal" 
>
</g>

<g fill="none" stroke="#000000" stroke-opacity="1" stroke-width="1" stroke-linecap="square" stroke-linejoin="bevel" transform="matrix(1.0028,0,0,1.0028,13.0364,366.525)"
font-family="Cantarell" font-size="11" font-weight="400" font-style="normal" 
>
</g>

<g fill="none" stroke="#000000" stroke-opacity="1" stroke-width="1" stroke-linecap="square" stroke-linejoin="bevel" transform="matrix(1.0028,0,0,1.0028,13.0364,366.525)"
font-family="Cantarell" font-size="11" font-weight="400" font-style="normal" 
>
</g>

<g fill="none" stroke="#000000" stroke-opacity="1" stroke-width="1" stroke-linecap="square" stroke-linejoin="bevel" transform="matrix(1.0028,0,0,1.0028,13.0364,366.525)"
font-family="Cantarell" font-size="11" font-weight="400" font-style="normal" 
>
</g>

<g fill="none" stroke="#000000" stroke-opacity="1" stroke-width="1" stroke-linecap="square" stroke-linejoin="bevel" transform="matrix(1.0028,0,0,1.0028,13.0364,366.525)"
font-family="Sans" font-size="9" font-weight="400" font-style="normal" 
>
<text fill="#000000" fill-opacity="1" stroke="none" xml:space="preserve" x="0" y="0" font-family="Sans" font-size="9" font-weight="400" font-style="normal" 
 > 50</text>
</g>

<g fill="none" stroke="#000000" stroke-opacity="1" stroke-width="1" stroke-linecap="square" stroke-linejoin="bevel" transform="matrix(1.0028,0,0,1.0028,13.0364,366.525)"
font-family="Cantarell" font-size="11" font-weight="400" font-style="normal" 
>
</g>

<g fill="none" stroke="#000000" stroke-opacity="1" stroke-width="1" stroke-linecap="square" stroke-linejoin="bevel" transform="matrix(1.0028,0,0,1.0028,0,0)"
font-family="Cantarell" font-size="11" font-weight="400" font-style="normal" 
>
</g>

<g fill="none" stroke="#000000" stroke-opacity="1" stroke-width="1" stroke-linecap="round" stroke-linejoin="round" transform="matrix(1.0028,0,0,1.0028,0,0)"
font-family="Cantarell" font-size="11" font-weight="400" font-style="normal" 
>
<polyline fill="none" vector-effect="none" points="38.5,291.5 44.5,291.5 " />
<polyline fill="none" vector-effect="none" points="1405.5,291.5 1399.5,291.5 " />
</g>

<g fill="none" stroke="#000000" stroke-opacity="1" stroke-width="1" stroke-linecap="square" stroke-linejoin="bevel" transform="matrix(1.0028,0,0,1.0028,0,0)"
font-family="Cantarell" font-size="11" font-weight="400" font-style="normal" 
>
</g>

<g fill="none" stroke="#000000" stroke-opacity="1" stroke-width="1" stroke-linecap="square" stroke-linejoin="bevel" transform="matrix(1.0028,0,0,1.0028,13.0364,296.328)"
font-family="Cantarell" font-size="11" font-weight="400" font-style="normal" 
>
</g>

<g fill="none" stroke="#000000" stroke-opacity="1" stroke-width="1" stroke-linecap="square" stroke-linejoin="bevel" transform="matrix(1.0028,0,0,1.0028,13.0364,296.328)"
font-family="Cantarell" font-size="11" font-weight="400" font-style="normal" 
>
</g>

<g fill="none" stroke="#000000" stroke-opacity="1" stroke-width="1" stroke-linecap="square" stroke-linejoin="bevel" transform="matrix(1.0028,0,0,1.0028,13.0364,296.328)"
font-family="Cantarell" font-size="11" font-weight="400" font-style="normal" 
>
</g>

<g fill="none" stroke="#000000" stroke-opacity="1" stroke-width="1" stroke-linecap="square" stroke-linejoin="bevel" transform="matrix(1.0028,0,0,1.0028,13.0364,296.328)"
font-family="Cantarell" font-size="11" font-weight="400" font-style="normal" 
>
</g>

<g fill="none" stroke="#000000" stroke-opacity="1" stroke-width="1" stroke-linecap="square" stroke-linejoin="bevel" transform="matrix(1.0028,0,0,1.0028,13.0364,296.328)"
font-family="Cantarell" font-size="11" font-weight="400" font-style="normal" 
>
</g>

<g fill="none" stroke="#000000" stroke-opacity="1" stroke-width="1" stroke-linecap="square" stroke-linejoin="bevel" transform="matrix(1.0028,0,0,1.0028,13.0364,296.328)"
font-family="Sans" font-size="9" font-weight="400" font-style="normal" 
>
<text fill="#000000" fill-opacity="1" stroke="none" xml:space="preserve" x="0" y="0" font-family="Sans" font-size="9" font-weight="400" font-style="normal" 
 > 55</text>
</g>

<g fill="none" stroke="#000000" stroke-opacity="1" stroke-width="1" stroke-linecap="square" stroke-linejoin="bevel" transform="matrix(1.0028,0,0,1.0028,13.0364,296.328)"
font-family="Cantarell" font-size="11" font-weight="400" font-style="normal" 
>
</g>

<g fill="none" stroke="#000000" stroke-opacity="1" stroke-width="1" stroke-linecap="square" stroke-linejoin="bevel" transform="matrix(1.0028,0,0,1.0028,0,0)"
font-family="Cantarell" font-size="11" font-weight="400" font-style="normal" 
>
</g>

<g fill="none" stroke="#000000" stroke-opacity="1" stroke-width="1" stroke-linecap="round" stroke-linejoin="round" transform="matrix(1.0028,0,0,1.0028,0,0)"
font-family="Cantarell" font-size="11" font-weight="400" font-style="normal" 
>
<polyline fill="none" vector-effect="none" points="38.5,222.5 44.5,222.5 " />
<polyline fill="none" vector-effect="none" points="1405.5,222.5 1399.5,222.5 " />
</g>

<g fill="none" stroke="#000000" stroke-opacity="1" stroke-width="1" stroke-linecap="square" stroke-linejoin="bevel" transform="matrix(1.0028,0,0,1.0028,0,0)"
font-family="Cantarell" font-size="11" font-weight="400" font-style="normal" 
>
</g>

<g fill="none" stroke="#000000" stroke-opacity="1" stroke-width="1" stroke-linecap="square" stroke-linejoin="bevel" transform="matrix(1.0028,0,0,1.0028,13.0364,227.135)"
font-family="Cantarell" font-size="11" font-weight="400" font-style="normal" 
>
</g>

<g fill="none" stroke="#000000" stroke-opacity="1" stroke-width="1" stroke-linecap="square" stroke-linejoin="bevel" transform="matrix(1.0028,0,0,1.0028,13.0364,227.135)"
font-family="Cantarell" font-size="11" font-weight="400" font-style="normal" 
>
</g>

<g fill="none" stroke="#000000" stroke-opacity="1" stroke-width="1" stroke-linecap="square" stroke-linejoin="bevel" transform="matrix(1.0028,0,0,1.0028,13.0364,227.135)"
font-family="Cantarell" font-size="11" font-weight="400" font-style="normal" 
>
</g>

<g fill="none" stroke="#000000" stroke-opacity="1" stroke-width="1" stroke-linecap="square" stroke-linejoin="bevel" transform="matrix(1.0028,0,0,1.0028,13.0364,227.135)"
font-family="Cantarell" font-size="11" font-weight="400" font-style="normal" 
>
</g>

<g fill="none" stroke="#000000" stroke-opacity="1" stroke-width="1" stroke-linecap="square" stroke-linejoin="bevel" transform="matrix(1.0028,0,0,1.0028,13.0364,227.135)"
font-family="Cantarell" font-size="11" font-weight="400" font-style="normal" 
>
</g>

<g fill="none" stroke="#000000" stroke-opacity="1" stroke-width="1" stroke-linecap="square" stroke-linejoin="bevel" transform="matrix(1.0028,0,0,1.0028,13.0364,227.135)"
font-family="Sans" font-size="9" font-weight="400" font-style="normal" 
>
<text fill="#000000" fill-opacity="1" stroke="none" xml:space="preserve" x="0" y="0" font-family="Sans" font-size="9" font-weight="400" font-style="normal" 
 > 60</text>
</g>

<g fill="none" stroke="#000000" stroke-opacity="1" stroke-width="1" stroke-linecap="square" stroke-linejoin="bevel" transform="matrix(1.0028,0,0,1.0028,13.0364,227.135)"
font-family="Cantarell" font-size="11" font-weight="400" font-style="normal" 
>
</g>

<g fill="none" stroke="#000000" stroke-opacity="1" stroke-width="1" stroke-linecap="square" stroke-linejoin="bevel" transform="matrix(1.0028,0,0,1.0028,0,0)"
font-family="Cantarell" font-size="11" font-weight="400" font-style="normal" 
>
</g>

<g fill="none" stroke="#000000" stroke-opacity="1" stroke-width="1" stroke-linecap="round" stroke-linejoin="round" transform="matrix(1.0028,0,0,1.0028,0,0)"
font-family="Cantarell" font-size="11" font-weight="400" font-style="normal" 
>
<polyline fill="none" vector-effect="none" points="38.5,153.5 44.5,153.5 " />
<polyline fill="none" vector-effect="none" points="1405.5,153.5 1399.5,153.5 " />
</g>

<g fill="none" stroke="#000000" stroke-opacity="1" stroke-width="1" stroke-linecap="square" stroke-linejoin="bevel" transform="matrix(1.0028,0,0,1.0028,0,0)"
font-family="Cantarell" font-size="11" font-weight="400" font-style="normal" 
>
</g>

<g fill="none" stroke="#000000" stroke-opacity="1" stroke-width="1" stroke-linecap="square" stroke-linejoin="bevel" transform="matrix(1.0028,0,0,1.0028,13.0364,157.941)"
font-family="Cantarell" font-size="11" font-weight="400" font-style="normal" 
>
</g>

<g fill="none" stroke="#000000" stroke-opacity="1" stroke-width="1" stroke-linecap="square" stroke-linejoin="bevel" transform="matrix(1.0028,0,0,1.0028,13.0364,157.941)"
font-family="Cantarell" font-size="11" font-weight="400" font-style="normal" 
>
</g>

<g fill="none" stroke="#000000" stroke-opacity="1" stroke-width="1" stroke-linecap="square" stroke-linejoin="bevel" transform="matrix(1.0028,0,0,1.0028,13.0364,157.941)"
font-family="Cantarell" font-size="11" font-weight="400" font-style="normal" 
>
</g>

<g fill="none" stroke="#000000" stroke-opacity="1" stroke-width="1" stroke-linecap="square" stroke-linejoin="bevel" transform="matrix(1.0028,0,0,1.0028,13.0364,157.941)"
font-family="Cantarell" font-size="11" font-weight="400" font-style="normal" 
>
</g>

<g fill="none" stroke="#000000" stroke-opacity="1" stroke-width="1" stroke-linecap="square" stroke-linejoin="bevel" transform="matrix(1.0028,0,0,1.0028,13.0364,157.941)"
font-family="Cantarell" font-size="11" font-weight="400" font-style="normal" 
>
</g>

<g fill="none" stroke="#000000" stroke-opacity="1" stroke-width="1" stroke-linecap="square" stroke-linejoin="bevel" transform="matrix(1.0028,0,0,1.0028,13.0364,157.941)"
font-family="Sans" font-size="9" font-weight="400" font-style="normal" 
>
<text fill="#000000" fill-opacity="1" stroke="none" xml:space="preserve" x="0" y="0" font-family="Sans" font-size="9" font-weight="400" font-style="normal" 
 > 65</text>
</g>

<g fill="none" stroke="#000000" stroke-opacity="1" stroke-width="1" stroke-linecap="square" stroke-linejoin="bevel" transform="matrix(1.0028,0,0,1.0028,13.0364,157.941)"
font-family="Cantarell" font-size="11" font-weight="400" font-style="normal" 
>
</g>

<g fill="none" stroke="#000000" stroke-opacity="1" stroke-width="1" stroke-linecap="square" stroke-linejoin="bevel" transform="matrix(1.0028,0,0,1.0028,0,0)"
font-family="Cantarell" font-size="11" font-weight="400" font-style="normal" 
>
</g>

<g fill="none" stroke="#000000" stroke-opacity="1" stroke-width="1" stroke-linecap="round" stroke-linejoin="round" transform="matrix(1.0028,0,0,1.0028,0,0)"
font-family="Cantarell" font-size="11" font-weight="400" font-style="normal" 
>
<polyline fill="none" vector-effect="none" points="38.5,84.5 44.5,84.5 " />
<polyline fill="none" vector-effect="none" points="1405.5,84.5 1399.5,84.5 " />
</g>

<g fill="none" stroke="#000000" stroke-opacity="1" stroke-width="1" stroke-linecap="square" stroke-linejoin="bevel" transform="matrix(1.0028,0,0,1.0028,0,0)"
font-family="Cantarell" font-size="11" font-weight="400" font-style="normal" 
>
</g>

<g fill="none" stroke="#000000" stroke-opacity="1" stroke-width="1" stroke-linecap="square" stroke-linejoin="bevel" transform="matrix(1.0028,0,0,1.0028,13.0364,88.7481)"
font-family="Cantarell" font-size="11" font-weight="400" font-style="normal" 
>
</g>

<g fill="none" stroke="#000000" stroke-opacity="1" stroke-width="1" stroke-linecap="square" stroke-linejoin="bevel" transform="matrix(1.0028,0,0,1.0028,13.0364,88.7481)"
font-family="Cantarell" font-size="11" font-weight="400" font-style="normal" 
>
</g>

<g fill="none" stroke="#000000" stroke-opacity="1" stroke-width="1" stroke-linecap="square" stroke-linejoin="bevel" transform="matrix(1.0028,0,0,1.0028,13.0364,88.7481)"
font-family="Cantarell" font-size="11" font-weight="400" font-style="normal" 
>
</g>

<g fill="none" stroke="#000000" stroke-opacity="1" stroke-width="1" stroke-linecap="square" stroke-linejoin="bevel" transform="matrix(1.0028,0,0,1.0028,13.0364,88.7481)"
font-family="Cantarell" font-size="11" font-weight="400" font-style="normal" 
>
</g>

<g fill="none" stroke="#000000" stroke-opacity="1" stroke-width="1" stroke-linecap="square" stroke-linejoin="bevel" transform="matrix(1.0028,0,0,1.0028,13.0364,88.7481)"
font-family="Cantarell" font-size="11" font-weight="400" font-style="normal" 
>
</g>

<g fill="none" stroke="#000000" stroke-opacity="1" stroke-width="1" stroke-linecap="square" stroke-linejoin="bevel" transform="matrix(1.0028,0,0,1.0028,13.0364,88.7481)"
font-family="Sans" font-size="9" font-weight="400" font-style="normal" 
>
<text fill="#000000" fill-opacity="1" stroke="none" xml:space="preserve" x="0" y="0" font-family="Sans" font-size="9" font-weight="400" font-style="normal" 
 > 70</text>
</g>

<g fill="none" stroke="#000000" stroke-opacity="1" stroke-width="1" stroke-linecap="square" stroke-linejoin="bevel" transform="matrix(1.0028,0,0,1.0028,13.0364,88.7481)"
font-family="Cantarell" font-size="11" font-weight="400" font-style="normal" 
>
</g>

<g fill="none" stroke="#000000" stroke-opacity="1" stroke-width="1" stroke-linecap="square" stroke-linejoin="bevel" transform="matrix(1.0028,0,0,1.0028,0,0)"
font-family="Cantarell" font-size="11" font-weight="400" font-style="normal" 
>
</g>

<g fill="none" stroke="#000000" stroke-opacity="1" stroke-width="1" stroke-linecap="round" stroke-linejoin="round" transform="matrix(1.0028,0,0,1.0028,0,0)"
font-family="Cantarell" font-size="11" font-weight="400" font-style="normal" 
>
<polyline fill="none" vector-effect="none" points="38.5,15.5 44.5,15.5 " />
<polyline fill="none" vector-effect="none" points="1405.5,15.5 1399.5,15.5 " />
</g>

<g fill="none" stroke="#000000" stroke-opacity="1" stroke-width="1" stroke-linecap="square" stroke-linejoin="bevel" transform="matrix(1.0028,0,0,1.0028,0,0)"
font-family="Cantarell" font-size="11" font-weight="400" font-style="normal" 
>
</g>

<g fill="none" stroke="#000000" stroke-opacity="1" stroke-width="1" stroke-linecap="square" stroke-linejoin="bevel" transform="matrix(1.0028,0,0,1.0028,13.0364,19.5547)"
font-family="Cantarell" font-size="11" font-weight="400" font-style="normal" 
>
</g>

<g fill="none" stroke="#000000" stroke-opacity="1" stroke-width="1" stroke-linecap="square" stroke-linejoin="bevel" transform="matrix(1.0028,0,0,1.0028,13.0364,19.5547)"
font-family="Cantarell" font-size="11" font-weight="400" font-style="normal" 
>
</g>

<g fill="none" stroke="#000000" stroke-opacity="1" stroke-width="1" stroke-linecap="square" stroke-linejoin="bevel" transform="matrix(1.0028,0,0,1.0028,13.0364,19.5547)"
font-family="Cantarell" font-size="11" font-weight="400" font-style="normal" 
>
</g>

<g fill="none" stroke="#000000" stroke-opacity="1" stroke-width="1" stroke-linecap="square" stroke-linejoin="bevel" transform="matrix(1.0028,0,0,1.0028,13.0364,19.5547)"
font-family="Cantarell" font-size="11" font-weight="400" font-style="normal" 
>
</g>

<g fill="none" stroke="#000000" stroke-opacity="1" stroke-width="1" stroke-linecap="square" stroke-linejoin="bevel" transform="matrix(1.0028,0,0,1.0028,13.0364,19.5547)"
font-family="Cantarell" font-size="11" font-weight="400" font-style="normal" 
>
</g>

<g fill="none" stroke="#000000" stroke-opacity="1" stroke-width="1" stroke-linecap="square" stroke-linejoin="bevel" transform="matrix(1.0028,0,0,1.0028,13.0364,19.5547)"
font-family="Sans" font-size="9" font-weight="400" font-style="normal" 
>
<text fill="#000000" fill-opacity="1" stroke="none" xml:space="preserve" x="0" y="0" font-family="Sans" font-size="9" font-weight="400" font-style="normal" 
 > 75</text>
</g>

<g fill="none" stroke="#000000" stroke-opacity="1" stroke-width="1" stroke-linecap="square" stroke-linejoin="bevel" transform="matrix(1.0028,0,0,1.0028,13.0364,19.5547)"
font-family="Cantarell" font-size="11" font-weight="400" font-style="normal" 
>
</g>

<g fill="none" stroke="#000000" stroke-opacity="1" stroke-width="1" stroke-linecap="square" stroke-linejoin="bevel" transform="matrix(1.0028,0,0,1.0028,0,0)"
font-family="Cantarell" font-size="11" font-weight="400" font-style="normal" 
>
</g>

<g fill="none" stroke="#000000" stroke-opacity="1" stroke-width="1" stroke-linecap="round" stroke-linejoin="round" transform="matrix(1.0028,0,0,1.0028,0,0)"
font-family="Cantarell" font-size="11" font-weight="400" font-style="normal" 
>
<polyline fill="none" vector-effect="none" points="38.5,636.5 38.5,630.5 " />
<polyline fill="none" vector-effect="none" points="38.5,15.5 38.5,21.5 " />
</g>

<g fill="none" stroke="#000000" stroke-opacity="1" stroke-width="1" stroke-linecap="square" stroke-linejoin="bevel" transform="matrix(1.0028,0,0,1.0028,0,0)"
font-family="Cantarell" font-size="11" font-weight="400" font-style="normal" 
>
</g>

<g fill="none" stroke="#000000" stroke-opacity="1" stroke-width="1" stroke-linecap="square" stroke-linejoin="bevel" transform="matrix(1.0028,0,0,1.0028,33.5939,658.34)"
font-family="Cantarell" font-size="11" font-weight="400" font-style="normal" 
>
</g>

<g fill="none" stroke="#000000" stroke-opacity="1" stroke-width="1" stroke-linecap="square" stroke-linejoin="bevel" transform="matrix(1.0028,0,0,1.0028,33.5939,658.34)"
font-family="Cantarell" font-size="11" font-weight="400" font-style="normal" 
>
</g>

<g fill="none" stroke="#000000" stroke-opacity="1" stroke-width="1" stroke-linecap="square" stroke-linejoin="bevel" transform="matrix(1.0028,0,0,1.0028,33.5939,658.34)"
font-family="Cantarell" font-size="11" font-weight="400" font-style="normal" 
>
</g>

<g fill="none" stroke="#000000" stroke-opacity="1" stroke-width="1" stroke-linecap="square" stroke-linejoin="bevel" transform="matrix(1.0028,0,0,1.0028,33.5939,658.34)"
font-family="Cantarell" font-size="11" font-weight="400" font-style="normal" 
>
</g>

<g fill="none" stroke="#000000" stroke-opacity="1" stroke-width="1" stroke-linecap="square" stroke-linejoin="bevel" transform="matrix(1.0028,0,0,1.0028,33.5939,658.34)"
font-family="Cantarell" font-size="11" font-weight="400" font-style="normal" 
>
</g>

<g fill="none" stroke="#000000" stroke-opacity="1" stroke-width="1" stroke-linecap="square" stroke-linejoin="bevel" transform="matrix(1.0028,0,0,1.0028,33.5939,658.34)"
font-family="Sans" font-size="9" font-weight="400" font-style="normal" 
>
<text fill="#000000" fill-opacity="1" stroke="none" xml:space="preserve" x="0" y="0" font-family="Sans" font-size="9" font-weight="400" font-style="normal" 
 > 0</text>
</g>

<g fill="none" stroke="#000000" stroke-opacity="1" stroke-width="1" stroke-linecap="square" stroke-linejoin="bevel" transform="matrix(1.0028,0,0,1.0028,33.5939,658.34)"
font-family="Cantarell" font-size="11" font-weight="400" font-style="normal" 
>
</g>

<g fill="none" stroke="#000000" stroke-opacity="1" stroke-width="1" stroke-linecap="square" stroke-linejoin="bevel" transform="matrix(1.0028,0,0,1.0028,0,0)"
font-family="Cantarell" font-size="11" font-weight="400" font-style="normal" 
>
</g>

<g fill="none" stroke="#000000" stroke-opacity="1" stroke-width="1" stroke-linecap="round" stroke-linejoin="round" transform="matrix(1.0028,0,0,1.0028,0,0)"
font-family="Cantarell" font-size="11" font-weight="400" font-style="normal" 
>
<polyline fill="none" vector-effect="none" points="233.5,636.5 233.5,630.5 " />
<polyline fill="none" vector-effect="none" points="233.5,15.5 233.5,21.5 " />
</g>

<g fill="none" stroke="#000000" stroke-opacity="1" stroke-width="1" stroke-linecap="square" stroke-linejoin="bevel" transform="matrix(1.0028,0,0,1.0028,0,0)"
font-family="Cantarell" font-size="11" font-weight="400" font-style="normal" 
>
</g>

<g fill="none" stroke="#000000" stroke-opacity="1" stroke-width="1" stroke-linecap="square" stroke-linejoin="bevel" transform="matrix(1.0028,0,0,1.0028,221.118,658.34)"
font-family="Cantarell" font-size="11" font-weight="400" font-style="normal" 
>
</g>

<g fill="none" stroke="#000000" stroke-opacity="1" stroke-width="1" stroke-linecap="square" stroke-linejoin="bevel" transform="matrix(1.0028,0,0,1.0028,221.118,658.34)"
font-family="Cantarell" font-size="11" font-weight="400" font-style="normal" 
>
</g>

<g fill="none" stroke="#000000" stroke-opacity="1" stroke-width="1" stroke-linecap="square" stroke-linejoin="bevel" transform="matrix(1.0028,0,0,1.0028,221.118,658.34)"
font-family="Cantarell" font-size="11" font-weight="400" font-style="normal" 
>
</g>

<g fill="none" stroke="#000000" stroke-opacity="1" stroke-width="1" stroke-linecap="square" stroke-linejoin="bevel" transform="matrix(1.0028,0,0,1.0028,221.118,658.34)"
font-family="Cantarell" font-size="11" font-weight="400" font-style="normal" 
>
</g>

<g fill="none" stroke="#000000" stroke-opacity="1" stroke-width="1" stroke-linecap="square" stroke-linejoin="bevel" transform="matrix(1.0028,0,0,1.0028,221.118,658.34)"
font-family="Cantarell" font-size="11" font-weight="400" font-style="normal" 
>
</g>

<g fill="none" stroke="#000000" stroke-opacity="1" stroke-width="1" stroke-linecap="square" stroke-linejoin="bevel" transform="matrix(1.0028,0,0,1.0028,221.118,658.34)"
font-family="Sans" font-size="9" font-weight="400" font-style="normal" 
>
<text fill="#000000" fill-opacity="1" stroke="none" xml:space="preserve" x="0" y="0" font-family="Sans" font-size="9" font-weight="400" font-style="normal" 
 > 200</text>
</g>

<g fill="none" stroke="#000000" stroke-opacity="1" stroke-width="1" stroke-linecap="square" stroke-linejoin="bevel" transform="matrix(1.0028,0,0,1.0028,221.118,658.34)"
font-family="Cantarell" font-size="11" font-weight="400" font-style="normal" 
>
</g>

<g fill="none" stroke="#000000" stroke-opacity="1" stroke-width="1" stroke-linecap="square" stroke-linejoin="bevel" transform="matrix(1.0028,0,0,1.0028,0,0)"
font-family="Cantarell" font-size="11" font-weight="400" font-style="normal" 
>
</g>

<g fill="none" stroke="#000000" stroke-opacity="1" stroke-width="1" stroke-linecap="round" stroke-linejoin="round" transform="matrix(1.0028,0,0,1.0028,0,0)"
font-family="Cantarell" font-size="11" font-weight="400" font-style="normal" 
>
<polyline fill="none" vector-effect="none" points="429.5,636.5 429.5,630.5 " />
<polyline fill="none" vector-effect="none" points="429.5,15.5 429.5,21.5 " />
</g>

<g fill="none" stroke="#000000" stroke-opacity="1" stroke-width="1" stroke-linecap="square" stroke-linejoin="bevel" transform="matrix(1.0028,0,0,1.0028,0,0)"
font-family="Cantarell" font-size="11" font-weight="400" font-style="normal" 
>
</g>

<g fill="none" stroke="#000000" stroke-opacity="1" stroke-width="1" stroke-linecap="square" stroke-linejoin="bevel" transform="matrix(1.0028,0,0,1.0028,416.665,658.34)"
font-family="Cantarell" font-size="11" font-weight="400" font-style="normal" 
>
</g>

<g fill="none" stroke="#000000" stroke-opacity="1" stroke-width="1" stroke-linecap="square" stroke-linejoin="bevel" transform="matrix(1.0028,0,0,1.0028,416.665,658.34)"
font-family="Cantarell" font-size="11" font-weight="400" font-style="normal" 
>
</g>

<g fill="none" stroke="#000000" stroke-opacity="1" stroke-width="1" stroke-linecap="square" stroke-linejoin="bevel" transform="matrix(1.0028,0,0,1.0028,416.665,658.34)"
font-family="Cantarell" font-size="11" font-weight="400" font-style="normal" 
>
</g>

<g fill="none" stroke="#000000" stroke-opacity="1" stroke-width="1" stroke-linecap="square" stroke-linejoin="bevel" transform="matrix(1.0028,0,0,1.0028,416.665,658.34)"
font-family="Cantarell" font-size="11" font-weight="400" font-style="normal" 
>
</g>

<g fill="none" stroke="#000000" stroke-opacity="1" stroke-width="1" stroke-linecap="square" stroke-linejoin="bevel" transform="matrix(1.0028,0,0,1.0028,416.665,658.34)"
font-family="Cantarell" font-size="11" font-weight="400" font-style="normal" 
>
</g>

<g fill="none" stroke="#000000" stroke-opacity="1" stroke-width="1" stroke-linecap="square" stroke-linejoin="bevel" transform="matrix(1.0028,0,0,1.0028,416.665,658.34)"
font-family="Sans" font-size="9" font-weight="400" font-style="normal" 
>
<text fill="#000000" fill-opacity="1" stroke="none" xml:space="preserve" x="0" y="0" font-family="Sans" font-size="9" font-weight="400" font-style="normal" 
 > 400</text>
</g>

<g fill="none" stroke="#000000" stroke-opacity="1" stroke-width="1" stroke-linecap="square" stroke-linejoin="bevel" transform="matrix(1.0028,0,0,1.0028,416.665,658.34)"
font-family="Cantarell" font-size="11" font-weight="400" font-style="normal" 
>
</g>

<g fill="none" stroke="#000000" stroke-opacity="1" stroke-width="1" stroke-linecap="square" stroke-linejoin="bevel" transform="matrix(1.0028,0,0,1.0028,0,0)"
font-family="Cantarell" font-size="11" font-weight="400" font-style="normal" 
>
</g>

<g fill="none" stroke="#000000" stroke-opacity="1" stroke-width="1" stroke-linecap="round" stroke-linejoin="round" transform="matrix(1.0028,0,0,1.0028,0,0)"
font-family="Cantarell" font-size="11" font-weight="400" font-style="normal" 
>
<polyline fill="none" vector-effect="none" points="624.5,636.5 624.5,630.5 " />
<polyline fill="none" vector-effect="none" points="624.5,15.5 624.5,21.5 " />
</g>

<g fill="none" stroke="#000000" stroke-opacity="1" stroke-width="1" stroke-linecap="square" stroke-linejoin="bevel" transform="matrix(1.0028,0,0,1.0028,0,0)"
font-family="Cantarell" font-size="11" font-weight="400" font-style="normal" 
>
</g>

<g fill="none" stroke="#000000" stroke-opacity="1" stroke-width="1" stroke-linecap="square" stroke-linejoin="bevel" transform="matrix(1.0028,0,0,1.0028,613.214,658.34)"
font-family="Cantarell" font-size="11" font-weight="400" font-style="normal" 
>
</g>

<g fill="none" stroke="#000000" stroke-opacity="1" stroke-width="1" stroke-linecap="square" stroke-linejoin="bevel" transform="matrix(1.0028,0,0,1.0028,613.214,658.34)"
font-family="Cantarell" font-size="11" font-weight="400" font-style="normal" 
>
</g>

<g fill="none" stroke="#000000" stroke-opacity="1" stroke-width="1" stroke-linecap="square" stroke-linejoin="bevel" transform="matrix(1.0028,0,0,1.0028,613.214,658.34)"
font-family="Cantarell" font-size="11" font-weight="400" font-style="normal" 
>
</g>

<g fill="none" stroke="#000000" stroke-opacity="1" stroke-width="1" stroke-linecap="square" stroke-linejoin="bevel" transform="matrix(1.0028,0,0,1.0028,613.214,658.34)"
font-family="Cantarell" font-size="11" font-weight="400" font-style="normal" 
>
</g>

<g fill="none" stroke="#000000" stroke-opacity="1" stroke-width="1" stroke-linecap="square" stroke-linejoin="bevel" transform="matrix(1.0028,0,0,1.0028,613.214,658.34)"
font-family="Cantarell" font-size="11" font-weight="400" font-style="normal" 
>
</g>

<g fill="none" stroke="#000000" stroke-opacity="1" stroke-width="1" stroke-linecap="square" stroke-linejoin="bevel" transform="matrix(1.0028,0,0,1.0028,613.214,658.34)"
font-family="Sans" font-size="9" font-weight="400" font-style="normal" 
>
<text fill="#000000" fill-opacity="1" stroke="none" xml:space="preserve" x="0" y="0" font-family="Sans" font-size="9" font-weight="400" font-style="normal" 
 > 600</text>
</g>

<g fill="none" stroke="#000000" stroke-opacity="1" stroke-width="1" stroke-linecap="square" stroke-linejoin="bevel" transform="matrix(1.0028,0,0,1.0028,613.214,658.34)"
font-family="Cantarell" font-size="11" font-weight="400" font-style="normal" 
>
</g>

<g fill="none" stroke="#000000" stroke-opacity="1" stroke-width="1" stroke-linecap="square" stroke-linejoin="bevel" transform="matrix(1.0028,0,0,1.0028,0,0)"
font-family="Cantarell" font-size="11" font-weight="400" font-style="normal" 
>
</g>

<g fill="none" stroke="#000000" stroke-opacity="1" stroke-width="1" stroke-linecap="round" stroke-linejoin="round" transform="matrix(1.0028,0,0,1.0028,0,0)"
font-family="Cantarell" font-size="11" font-weight="400" font-style="normal" 
>
<polyline fill="none" vector-effect="none" points="819.5,636.5 819.5,630.5 " />
<polyline fill="none" vector-effect="none" points="819.5,15.5 819.5,21.5 " />
</g>

<g fill="none" stroke="#000000" stroke-opacity="1" stroke-width="1" stroke-linecap="square" stroke-linejoin="bevel" transform="matrix(1.0028,0,0,1.0028,0,0)"
font-family="Cantarell" font-size="11" font-weight="400" font-style="normal" 
>
</g>

<g fill="none" stroke="#000000" stroke-opacity="1" stroke-width="1" stroke-linecap="square" stroke-linejoin="bevel" transform="matrix(1.0028,0,0,1.0028,808.761,658.34)"
font-family="Cantarell" font-size="11" font-weight="400" font-style="normal" 
>
</g>

<g fill="none" stroke="#000000" stroke-opacity="1" stroke-width="1" stroke-linecap="square" stroke-linejoin="bevel" transform="matrix(1.0028,0,0,1.0028,808.761,658.34)"
font-family="Cantarell" font-size="11" font-weight="400" font-style="normal" 
>
</g>

<g fill="none" stroke="#000000" stroke-opacity="1" stroke-width="1" stroke-linecap="square" stroke-linejoin="bevel" transform="matrix(1.0028,0,0,1.0028,808.761,658.34)"
font-family="Cantarell" font-size="11" font-weight="400" font-style="normal" 
>
</g>

<g fill="none" stroke="#000000" stroke-opacity="1" stroke-width="1" stroke-linecap="square" stroke-linejoin="bevel" transform="matrix(1.0028,0,0,1.0028,808.761,658.34)"
font-family="Cantarell" font-size="11" font-weight="400" font-style="normal" 
>
</g>

<g fill="none" stroke="#000000" stroke-opacity="1" stroke-width="1" stroke-linecap="square" stroke-linejoin="bevel" transform="matrix(1.0028,0,0,1.0028,808.761,658.34)"
font-family="Cantarell" font-size="11" font-weight="400" font-style="normal" 
>
</g>

<g fill="none" stroke="#000000" stroke-opacity="1" stroke-width="1" stroke-linecap="square" stroke-linejoin="bevel" transform="matrix(1.0028,0,0,1.0028,808.761,658.34)"
font-family="Sans" font-size="9" font-weight="400" font-style="normal" 
>
<text fill="#000000" fill-opacity="1" stroke="none" xml:space="preserve" x="0" y="0" font-family="Sans" font-size="9" font-weight="400" font-style="normal" 
 > 800</text>
</g>

<g fill="none" stroke="#000000" stroke-opacity="1" stroke-width="1" stroke-linecap="square" stroke-linejoin="bevel" transform="matrix(1.0028,0,0,1.0028,808.761,658.34)"
font-family="Cantarell" font-size="11" font-weight="400" font-style="normal" 
>
</g>

<g fill="none" stroke="#000000" stroke-opacity="1" stroke-width="1" stroke-linecap="square" stroke-linejoin="bevel" transform="matrix(1.0028,0,0,1.0028,0,0)"
font-family="Cantarell" font-size="11" font-weight="400" font-style="normal" 
>
</g>

<g fill="none" stroke="#000000" stroke-opacity="1" stroke-width="1" stroke-linecap="round" stroke-linejoin="round" transform="matrix(1.0028,0,0,1.0028,0,0)"
font-family="Cantarell" font-size="11" font-weight="400" font-style="normal" 
>
<polyline fill="none" vector-effect="none" points="1015.5,636.5 1015.5,630.5 " />
<polyline fill="none" vector-effect="none" points="1015.5,15.5 1015.5,21.5 " />
</g>

<g fill="none" stroke="#000000" stroke-opacity="1" stroke-width="1" stroke-linecap="square" stroke-linejoin="bevel" transform="matrix(1.0028,0,0,1.0028,0,0)"
font-family="Cantarell" font-size="11" font-weight="400" font-style="normal" 
>
</g>

<g fill="none" stroke="#000000" stroke-opacity="1" stroke-width="1" stroke-linecap="square" stroke-linejoin="bevel" transform="matrix(1.0028,0,0,1.0028,1000.3,658.34)"
font-family="Cantarell" font-size="11" font-weight="400" font-style="normal" 
>
</g>

<g fill="none" stroke="#000000" stroke-opacity="1" stroke-width="1" stroke-linecap="square" stroke-linejoin="bevel" transform="matrix(1.0028,0,0,1.0028,1000.3,658.34)"
font-family="Cantarell" font-size="11" font-weight="400" font-style="normal" 
>
</g>

<g fill="none" stroke="#000000" stroke-opacity="1" stroke-width="1" stroke-linecap="square" stroke-linejoin="bevel" transform="matrix(1.0028,0,0,1.0028,1000.3,658.34)"
font-family="Cantarell" font-size="11" font-weight="400" font-style="normal" 
>
</g>

<g fill="none" stroke="#000000" stroke-opacity="1" stroke-width="1" stroke-linecap="square" stroke-linejoin="bevel" transform="matrix(1.0028,0,0,1.0028,1000.3,658.34)"
font-family="Cantarell" font-size="11" font-weight="400" font-style="normal" 
>
</g>

<g fill="none" stroke="#000000" stroke-opacity="1" stroke-width="1" stroke-linecap="square" stroke-linejoin="bevel" transform="matrix(1.0028,0,0,1.0028,1000.3,658.34)"
font-family="Cantarell" font-size="11" font-weight="400" font-style="normal" 
>
</g>

<g fill="none" stroke="#000000" stroke-opacity="1" stroke-width="1" stroke-linecap="square" stroke-linejoin="bevel" transform="matrix(1.0028,0,0,1.0028,1000.3,658.34)"
font-family="Sans" font-size="9" font-weight="400" font-style="normal" 
>
<text fill="#000000" fill-opacity="1" stroke="none" xml:space="preserve" x="0" y="0" font-family="Sans" font-size="9" font-weight="400" font-style="normal" 
 > 1000</text>
</g>

<g fill="none" stroke="#000000" stroke-opacity="1" stroke-width="1" stroke-linecap="square" stroke-linejoin="bevel" transform="matrix(1.0028,0,0,1.0028,1000.3,658.34)"
font-family="Cantarell" font-size="11" font-weight="400" font-style="normal" 
>
</g>

<g fill="none" stroke="#000000" stroke-opacity="1" stroke-width="1" stroke-linecap="square" stroke-linejoin="bevel" transform="matrix(1.0028,0,0,1.0028,0,0)"
font-family="Cantarell" font-size="11" font-weight="400" font-style="normal" 
>
</g>

<g fill="none" stroke="#000000" stroke-opacity="1" stroke-width="1" stroke-linecap="round" stroke-linejoin="round" transform="matrix(1.0028,0,0,1.0028,0,0)"
font-family="Cantarell" font-size="11" font-weight="400" font-style="normal" 
>
<polyline fill="none" vector-effect="none" points="1210.5,636.5 1210.5,630.5 " />
<polyline fill="none" vector-effect="none" points="1210.5,15.5 1210.5,21.5 " />
</g>

<g fill="none" stroke="#000000" stroke-opacity="1" stroke-width="1" stroke-linecap="square" stroke-linejoin="bevel" transform="matrix(1.0028,0,0,1.0028,0,0)"
font-family="Cantarell" font-size="11" font-weight="400" font-style="normal" 
>
</g>

<g fill="none" stroke="#000000" stroke-opacity="1" stroke-width="1" stroke-linecap="square" stroke-linejoin="bevel" transform="matrix(1.0028,0,0,1.0028,1196.85,658.34)"
font-family="Cantarell" font-size="11" font-weight="400" font-style="normal" 
>
</g>

<g fill="none" stroke="#000000" stroke-opacity="1" stroke-width="1" stroke-linecap="square" stroke-linejoin="bevel" transform="matrix(1.0028,0,0,1.0028,1196.85,658.34)"
font-family="Cantarell" font-size="11" font-weight="400" font-style="normal" 
>
</g>

<g fill="none" stroke="#000000" stroke-opacity="1" stroke-width="1" stroke-linecap="square" stroke-linejoin="bevel" transform="matrix(1.0028,0,0,1.0028,1196.85,658.34)"
font-family="Cantarell" font-size="11" font-weight="400" font-style="normal" 
>
</g>

<g fill="none" stroke="#000000" stroke-opacity="1" stroke-width="1" stroke-linecap="square" stroke-linejoin="bevel" transform="matrix(1.0028,0,0,1.0028,1196.85,658.34)"
font-family="Cantarell" font-size="11" font-weight="400" font-style="normal" 
>
</g>

<g fill="none" stroke="#000000" stroke-opacity="1" stroke-width="1" stroke-linecap="square" stroke-linejoin="bevel" transform="matrix(1.0028,0,0,1.0028,1196.85,658.34)"
font-family="Cantarell" font-size="11" font-weight="400" font-style="normal" 
>
</g>

<g fill="none" stroke="#000000" stroke-opacity="1" stroke-width="1" stroke-linecap="square" stroke-linejoin="bevel" transform="matrix(1.0028,0,0,1.0028,1196.85,658.34)"
font-family="Sans" font-size="9" font-weight="400" font-style="normal" 
>
<text fill="#000000" fill-opacity="1" stroke="none" xml:space="preserve" x="0" y="0" font-family="Sans" font-size="9" font-weight="400" font-style="normal" 
 > 1200</text>
</g>

<g fill="none" stroke="#000000" stroke-opacity="1" stroke-width="1" stroke-linecap="square" stroke-linejoin="bevel" transform="matrix(1.0028,0,0,1.0028,1196.85,658.34)"
font-family="Cantarell" font-size="11" font-weight="400" font-style="normal" 
>
</g>

<g fill="none" stroke="#000000" stroke-opacity="1" stroke-width="1" stroke-linecap="square" stroke-linejoin="bevel" transform="matrix(1.0028,0,0,1.0028,0,0)"
font-family="Cantarell" font-size="11" font-weight="400" font-style="normal" 
>
</g>

<g fill="none" stroke="#000000" stroke-opacity="1" stroke-width="1" stroke-linecap="round" stroke-linejoin="round" transform="matrix(1.0028,0,0,1.0028,0,0)"
font-family="Cantarell" font-size="11" font-weight="400" font-style="normal" 
>
<polyline fill="none" vector-effect="none" points="1405.5,636.5 1405.5,630.5 " />
<polyline fill="none" vector-effect="none" points="1405.5,15.5 1405.5,21.5 " />
</g>

<g fill="none" stroke="#000000" stroke-opacity="1" stroke-width="1" stroke-linecap="square" stroke-linejoin="bevel" transform="matrix(1.0028,0,0,1.0028,0,0)"
font-family="Cantarell" font-size="11" font-weight="400" font-style="normal" 
>
</g>

<g fill="none" stroke="#000000" stroke-opacity="1" stroke-width="1" stroke-linecap="square" stroke-linejoin="bevel" transform="matrix(1.0028,0,0,1.0028,1392.39,658.34)"
font-family="Cantarell" font-size="11" font-weight="400" font-style="normal" 
>
</g>

<g fill="none" stroke="#000000" stroke-opacity="1" stroke-width="1" stroke-linecap="square" stroke-linejoin="bevel" transform="matrix(1.0028,0,0,1.0028,1392.39,658.34)"
font-family="Cantarell" font-size="11" font-weight="400" font-style="normal" 
>
</g>

<g fill="none" stroke="#000000" stroke-opacity="1" stroke-width="1" stroke-linecap="square" stroke-linejoin="bevel" transform="matrix(1.0028,0,0,1.0028,1392.39,658.34)"
font-family="Cantarell" font-size="11" font-weight="400" font-style="normal" 
>
</g>

<g fill="none" stroke="#000000" stroke-opacity="1" stroke-width="1" stroke-linecap="square" stroke-linejoin="bevel" transform="matrix(1.0028,0,0,1.0028,1392.39,658.34)"
font-family="Cantarell" font-size="11" font-weight="400" font-style="normal" 
>
</g>

<g fill="none" stroke="#000000" stroke-opacity="1" stroke-width="1" stroke-linecap="square" stroke-linejoin="bevel" transform="matrix(1.0028,0,0,1.0028,1392.39,658.34)"
font-family="Cantarell" font-size="11" font-weight="400" font-style="normal" 
>
</g>

<g fill="none" stroke="#000000" stroke-opacity="1" stroke-width="1" stroke-linecap="square" stroke-linejoin="bevel" transform="matrix(1.0028,0,0,1.0028,1392.39,658.34)"
font-family="Sans" font-size="9" font-weight="400" font-style="normal" 
>
<text fill="#000000" fill-opacity="1" stroke="none" xml:space="preserve" x="0" y="0" font-family="Sans" font-size="9" font-weight="400" font-style="normal" 
 > 1400</text>
</g>

<g fill="none" stroke="#000000" stroke-opacity="1" stroke-width="1" stroke-linecap="square" stroke-linejoin="bevel" transform="matrix(1.0028,0,0,1.0028,1392.39,658.34)"
font-family="Cantarell" font-size="11" font-weight="400" font-style="normal" 
>
</g>

<g fill="none" stroke="#000000" stroke-opacity="1" stroke-width="1" stroke-linecap="square" stroke-linejoin="bevel" transform="matrix(1.0028,0,0,1.0028,0,0)"
font-family="Cantarell" font-size="11" font-weight="400" font-style="normal" 
>
</g>

<g fill="none" stroke="#000000" stroke-opacity="1" stroke-width="1" stroke-linecap="round" stroke-linejoin="round" transform="matrix(1.0028,0,0,1.0028,0,0)"
font-family="Cantarell" font-size="11" font-weight="400" font-style="normal" 
>
<polyline fill="none" vector-effect="none" points="38.5,15.5 38.5,636.5 1405.5,636.5 1405.5,15.5 38.5,15.5 " />
</g>

<g fill="none" stroke="#000000" stroke-opacity="1" stroke-width="1" stroke-linecap="square" stroke-linejoin="bevel" transform="matrix(1.0028,0,0,1.0028,0,0)"
font-family="Cantarell" font-size="11" font-weight="400" font-style="normal" 
>
</g>

<g fill="none" stroke="#000000" stroke-opacity="1" stroke-width="1" stroke-linecap="square" stroke-linejoin="bevel" transform="matrix(1.0028,0,0,1.0028,1167.4,17.5491)"
font-family="Cantarell" font-size="11" font-weight="400" font-style="normal" 
>
</g>

<g fill="none" stroke="#000000" stroke-opacity="1" stroke-width="1" stroke-linecap="square" stroke-linejoin="bevel" transform="matrix(1.0028,0,0,1.0028,1167.4,17.5491)"
font-family="Cantarell" font-size="11" font-weight="400" font-style="normal" 
>
</g>

<g fill="none" stroke="#000000" stroke-opacity="1" stroke-width="1" stroke-linecap="square" stroke-linejoin="bevel" transform="matrix(1.0028,0,0,1.0028,1167.4,17.5491)"
font-family="Cantarell" font-size="11" font-weight="400" font-style="normal" 
>
</g>

<g fill="none" stroke="#000000" stroke-opacity="1" stroke-width="1" stroke-linecap="square" stroke-linejoin="bevel" transform="matrix(1.0028,0,0,1.0028,1167.4,17.5491)"
font-family="Cantarell" font-size="11" font-weight="400" font-style="normal" 
>
<text fill="#000000" fill-opacity="1" stroke="none" xml:space="preserve" x="4" y="16" font-family="Sans" font-size="9" font-weight="400" font-style="normal" 
 >'monitor_data.dat' using 0:col</text>
</g>

<g fill="none" stroke="#000000" stroke-opacity="1" stroke-width="1" stroke-linecap="square" stroke-linejoin="bevel" transform="matrix(1.0028,0,0,1.0028,1167.4,17.5491)"
font-family="Cantarell" font-size="11" font-weight="400" font-style="normal" 
>
</g>

<g fill="none" stroke="#000000" stroke-opacity="1" stroke-width="1" stroke-linecap="square" stroke-linejoin="bevel" transform="matrix(1,0,0,1,0,0)"
font-family="Cantarell" font-size="11" font-weight="400" font-style="normal" 
>
</g>

<g fill="none" stroke="#000000" stroke-opacity="1" stroke-width="1" stroke-linecap="square" stroke-linejoin="bevel" transform="matrix(1.0028,0,0,1.0028,1167.4,17.5491)"
font-family="Cantarell" font-size="11" font-weight="400" font-style="normal" 
>
</g>

<g fill="none" stroke="#000000" stroke-opacity="1" stroke-width="1" stroke-linecap="square" stroke-linejoin="bevel" transform="matrix(1.0028,0,0,1.0028,1167.4,17.5491)"
font-family="Cantarell" font-size="11" font-weight="400" font-style="normal" 
>
</g>

<g fill="none" stroke="#000000" stroke-opacity="1" stroke-width="1" stroke-linecap="square" stroke-linejoin="bevel" transform="matrix(1.0028,0,0,1.0028,1167.4,17.5491)"
font-family="Cantarell" font-size="11" font-weight="400" font-style="normal" 
>
</g>

<g fill="none" stroke="#000000" stroke-opacity="1" stroke-width="1" stroke-linecap="square" stroke-linejoin="bevel" transform="matrix(1.0028,0,0,1.0028,0,0)"
font-family="Cantarell" font-size="11" font-weight="400" font-style="normal" 
>
</g>

<g fill="none" stroke="#9400d3" stroke-opacity="1" stroke-width="1" stroke-linecap="round" stroke-linejoin="round" transform="matrix(1.0028,0,0,1.0028,0,0)"
font-family="Cantarell" font-size="11" font-weight="400" font-style="normal" 
>
<path vector-effect="none" fill-rule="evenodd" d="M1357.5,28.5 L1391.5,28.5"/>
</g>

<g fill="none" stroke="#000000" stroke-opacity="1" stroke-width="1" stroke-linecap="square" stroke-linejoin="bevel" transform="matrix(1.0028,0,0,1.0028,0,0)"
font-family="Cantarell" font-size="11" font-weight="400" font-style="normal" 
>
</g>

<g fill="none" stroke="#000000" stroke-opacity="1" stroke-width="1" stroke-linecap="square" stroke-linejoin="bevel" transform="matrix(1.0028,0,0,1.0028,0,0)"
font-family="Cantarell" font-size="11" font-weight="400" font-style="normal" 
>
</g>

<g fill="none" stroke="#000000" stroke-opacity="1" stroke-width="1" stroke-linecap="square" stroke-linejoin="bevel" transform="matrix(1.0028,0,0,1.0028,0,0)"
font-family="Cantarell" font-size="11" font-weight="400" font-style="normal" 
>
</g>

<g fill="none" stroke="#000000" stroke-opacity="1" stroke-width="1" stroke-linecap="square" stroke-linejoin="bevel" transform="matrix(1.0028,0,0,1.0028,0,0)"
font-family="Cantarell" font-size="11" font-weight="400" font-style="normal" 
>
</g>

<g fill="none" stroke="#9400d3" stroke-opacity="1" stroke-width="1" stroke-linecap="round" stroke-linejoin="round" transform="matrix(1.0028,0,0,1.0028,0,0)"
font-family="Cantarell" font-size="11" font-weight="400" font-style="normal" 
>
<polyline fill="none" vector-effect="none" points="38.5,606.2 38.5,606.2 39.5,605.6 40.5,606.2 41.4,606 42.4,606 43.4,605.8 44.4,606 45.3,606.2 46.3,606.8 47.3,607 48.3,606.6 49.2,606.6 50.2,606.4 51.2,606.8 52.2,606.6 53.2,607 54.1,607 55.1,606.8 56.1,607.2 57.1,607 58,607.6 59,607.8 60,607.9 61,607.8 61.9,608.8 62.9,608.5 63.9,608.5 64.9,609.2 65.8,609.3 66.8,609.6 67.8,609.6 68.8,609.8 69.8,610.3 70.7,610.7 71.7,610.3 72.7,610.7 73.7,610.7 74.6,610.5 75.6,610.3 76.6,610.3 77.6,610.3 78.5,609.9 79.5,610.3 80.5,610.2 81.5,609.8 82.5,609.2 83.4,608.9 84.4,608.8 85.4,608.9 86.4,608.5 87.3,608.5 88.3,608.4 89.3,608.2 90.3,608.5 91.2,608.4 92.2,608.4 93.2,607.9 94.2,607.9 95.1,608.2 96.1,607.8 97.1,608.4 98.1,608.2 99.1,608.2 100,607.9 101,608.2 102,607.8 103,607.9 103.9,607.9 104.9,608.8 105.9,608.4 106.9,608.8 107.8,608.5 108.8,609.6 109.8,609.8 110.8,609.3 111.8,609.9 112.7,610.7 113.7,610.5 114.7,610.5 115.7,610.5 116.6,610.9 117.6,610.5 118.6,610.9 119.6,610.9 120.5,610.9 121.5,611.1 122.5,610.9 123.5,610.7 124.5,609.6 125.4,609.2 126.4,609.2 127.4,608.9 128.4,608.5 129.3,607.9 130.3,608.5 131.3,608.2 132.3,607.9 133.2,607.8 134.2,607.9 135.2,607.9 136.2,608.4 137.1,608.5 138.1,608.2 139.1,608.5 140.1,608.9 141.1,609.2 142,608.8 143,608.5 144,608.5 145,608.5 145.9,608.4 146.9,608.5 147.9,608.8 148.9,608.5 149.8,608.9 150.8,608.8 151.8,608.8 152.8,608.9 153.8,609.2 154.7,609.3 155.7,610.3 156.7,610.5 157.7,610.3 158.6,611.1 159.6,611.1 160.6,611.1 161.6,610.7 162.5,610.7 163.5,610.3 164.5,610.5 165.5,611.1 166.4,610.2 167.4,610.5 168.4,609.9 169.4,610.2 170.4,609.8 171.3,608.9 172.3,608.8 173.3,608.8 174.3,608.2 175.2,607.2 176.2,607.2 177.2,607.2 178.2,607.2 179.1,607 180.1,607.2 181.1,607 182.1,607.2 183.1,607.8 184,607.6 185,607.8 186,607.8 187,607.9 187.9,607.8 188.9,607.6 189.9,607.8 190.9,608.2 191.8,607.9 192.8,608.2 193.8,608.5 194.8,608.8 195.8,608.4 196.7,608.2 197.7,608.5 198.7,609.2 199.7,609.2 200.6,608.9 201.6,609.3 202.6,608.8 203.6,609.2 204.5,608.9 205.5,609.3 206.5,609.9 207.5,609.9 208.4,609.8 209.4,609.8 210.4,609.6 211.4,609.9 212.4,609.6 213.3,609.8 214.3,609.8 215.3,609.2 216.3,609.3 217.2,609.3 218.2,608.8 219.2,608.4 220.2,608.2 221.1,607.9 222.1,607.4 223.1,607.4 224.1,607.6 225.1,607.6 226,607.6 227,607.6 228,607.4 229,607.4 229.9,607.6 230.9,607.4 231.9,607.4 232.9,607.6 233.8,607.4 234.8,607.2 235.8,607.4 236.8,607.4 237.7,607.6 238.7,607.4 239.7,607.4 240.7,607.8 241.7,607.4 242.6,607.6 243.6,607.4 244.6,607.4 245.6,608.4 246.5,608.2 247.5,608.4 248.5,608.2 249.5,608.8 250.4,608.9 251.4,608.8 252.4,609.2 253.4,609.8 254.4,610.3 255.3,609.8 256.3,610.3 257.3,610.7 258.3,610.7 259.2,610.9 260.2,610.9 261.2,611.1 262.2,611.3 263.1,611.3 264.1,611.5 265.1,611.1 266.1,611.1 267.1,611.1 268,611.3 269,610.7 270,610.3 271,610.7 271.9,610.3 272.9,610.2 273.9,609.8 274.9,609.8 275.8,609.2 276.8,608.2 277.8,607.9 278.8,607.9 279.7,607.4 280.7,607 281.7,607.2 282.7,607.4 283.7,607.4 284.6,607.4 285.6,607.4 286.6,607.6 287.6,607.9 288.5,608.2 289.5,608.2 290.5,608.4 291.5,608.8 292.4,608.5 293.4,608.8 294.4,608.8 295.4,608.8 296.4,608.9 297.3,608.9 298.3,608.9 299.3,608.9 300.3,609.3 301.2,609.3 302.2,609.2 303.2,609.6 304.2,609.8 305.1,609.8 306.1,610.2 307.1,609.9 308.1,610.3 309,609.9 310,610.2 311,609.9 312,609.3 313,609.6 313.9,609.2 314.9,608.9 315.9,608.2 316.9,608.8 317.8,608.4 318.8,608.8 319.8,608.9 320.8,609.2 321.7,608.9 322.7,609.3 323.7,608.8 324.7,608.9 325.7,608.9 326.6,609.2 327.6,609.2 328.6,608.9 329.6,608.9 330.5,608.9 331.5,609.3 332.5,609.3 333.5,609.3 334.4,609.3 335.4,609.9 336.4,609.6 337.4,609.8 338.4,609.9 339.3,609.2 340.3,608.9 341.3,609.3 342.3,609.2 343.2,608.9 344.2,609.2 345.2,609.2 346.2,609.2 347.1,608.9 348.1,608.8 349.1,608.5 350.1,608.5 351,607.9 352,608.4 353,608.2 354,608.2 355,607.8 355.9,607.8 356.9,607.8 357.9,607.8 358.9,607.8 359.8,607.8 360.8,607.9 361.8,607.9 362.8,608.5 363.7,608.4 364.7,608.4 365.7,608.9 366.7,609.3 367.7,609.3 368.6,609.9 369.6,609.8 370.6,609.6 371.6,609.9 372.5,609.9 373.5,610.3 374.5,610.7 375.5,610.5 376.4,610.7 377.4,610.7 378.4,610.3 379.4,610.3 380.4,610.5 381.3,610.3 382.3,609.3 383.3,609.8 384.3,609.3 385.2,608.9 386.2,608.4 387.2,608.5 388.2,608.5 389.1,607.9 390.1,607.9 391.1,607.8 392.1,608.2 393,608.2 394,607.9 395,607.8 396,607.8 397,607.9 397.9,607.6 398.9,607.6 399.9,607.9 400.9,607.9 401.8,607.6 402.8,607.6 403.8,607.4 404.8,607.4 405.7,608.4 406.7,607.9 407.7,608.2 408.7,608.5 409.7,608.9 410.6,609.3 411.6,609.2 412.6,609.3 413.6,610.2 414.5,609.8 415.5,609.9 416.5,609.9 417.5,631.9 418.4,631.9 419.4,633.9 420.4,634.6 421.4,633.9 422.3,633.9 423.3,632.9 424.3,632.1 425.3,629.4 426.3,627.8 427.2,625.8 428.2,624.1 429.2,621.1 430.2,617.8 431.1,614.4 432.1,611.9 433.1,608.5 434.1,607 435,606.4 436,606.8 437,608.4 438,610.9 439,611.7 439.9,611.9 440.9,612.3 441.9,609.8 442.9,607.2 443.8,605.2 444.8,604.4 445.8,606 446.8,606 447.7,607.2 448.7,608.4 449.7,608.4 450.7,609.6 451.7,609.9 452.6,611.3 453.6,610.5 454.6,609.6 455.6,608.8 456.5,608.2 457.5,607.6 458.5,607.4 459.5,607.2 460.4,608.2 461.4,608.2 462.4,607.6 463.4,607.6 464.3,607.8 465.3,609.9 466.3,610.5 467.3,611.5 468.3,611.1 469.2,611.3 470.2,611.3 471.2,610.5 472.2,608.5 473.1,607.8 474.1,607.6 475.1,608.2 476.1,608.4 477,608.8 478,607.6 479,607.2 480,607.9 481,608.5 481.9,609.9 482.9,610.9 483.9,610.5 484.9,610.9 485.8,610.9 486.8,610.5 487.8,609.9 488.8,609.3 489.7,608.4 490.7,607.4 491.7,606.6 492.7,606.6 493.6,607.2 494.6,606.8 495.6,607 496.6,607 497.6,607.4 498.5,607.4 499.5,607.2 500.5,608.4 501.5,609.3 502.4,611.1 503.4,611.7 504.4,612.3 505.4,612.1 506.3,612.3 507.3,612.1 508.3,610.5 509.3,609.6 510.3,607.6 511.2,605.8 512.2,605 513.2,606.2 514.2,606.4 515.1,606.8 516.1,606.4 517.1,606.4 518.1,606.8 519,606.6 520,607.4 521,608.2 522,608.8 523,610.2 523.9,611.9 524.9,612.7 525.9,613.3 526.9,612.1 527.8,612.7 528.8,612.5 529.8,611.7 530.8,610.2 531.7,608.2 532.7,606.6 533.7,606.6 534.7,606.4 535.6,607 536.6,606.4 537.6,606.8 538.6,607.8 539.6,606.6 540.5,607.8 541.5,607.4 542.5,608.5 543.5,609.8 544.4,610.3 545.4,610.7 546.4,610.7 547.4,610.9 548.3,611.9 549.3,611.5 550.3,610.5 551.3,609.3 552.3,607.9 553.2,607.2 554.2,605.8 555.2,606 556.2,606.6 557.1,606.8 558.1,606.6 559.1,606.8 560.1,606.2 561,606.2 562,607.4 563,608.2 564,608.4 564.9,609.6 565.9,611.5 566.9,612.3 567.9,612.3 568.9,611.9 569.8,612.1 570.8,612.1 571.8,611.3 572.8,609.8 573.7,607.6 574.7,605.2 575.7,605.8 576.7,606.4 577.6,607.2 578.6,607.9 579.6,608.8 580.6,609.8 581.6,609.8 582.5,610.5 583.5,610.7 584.5,610.2 585.5,609.9 586.4,608.8 587.4,607.4 588.4,606.8 589.4,606.4 590.3,607.2 591.3,605.8 592.3,607 593.3,606 594.3,607.2 595.2,607.2 596.2,607.8 597.2,608.8 598.2,610.2 599.1,611.5 600.1,611.7 601.1,611.7 602.1,611.5 603,612.1 604,611.1 605,610.7 606,609.6 606.9,607.6 607.9,605.8 608.9,606.4 609.9,607 610.9,606.4 611.8,607.6 612.8,607.6 613.8,607.4 614.8,608.2 615.7,608.5 616.7,609.9 617.7,610.5 618.7,609.8 619.6,610.2 620.6,609.3 621.6,608.8 622.6,609.6 623.6,609.9 624.5,609.3 625.5,607.9 626.5,607.9 627.5,607 628.4,607 629.4,607.4 630.4,607.2 631.4,607 632.3,608.4 633.3,609.3 634.3,608.5 635.3,609.3 636.2,609.2 637.2,609.2 638.2,609.6 639.2,610.5 640.2,610.2 641.1,610.9 642.1,611.3 643.1,609.9 644.1,609.6 645,607.6 646,605.8 647,605.4 648,606.4 648.9,607.2 649.9,607 650.9,607.8 651.9,607.9 652.9,607.2 653.8,608.5 654.8,609.2 655.8,609.8 656.8,610.3 657.7,610.2 658.7,610.9 659.7,611.9 660.7,612.5 661.6,611.9 662.6,609.8 663.6,607.9 664.6,606.4 665.6,606.8 666.5,607.8 667.5,608.2 668.5,607.9 669.5,608.8 670.4,608.8 671.4,609.3 672.4,609.9 673.4,610.5 674.3,610.9 675.3,611.1 676.3,611.1 677.3,610.7 678.2,609.2 679.2,607.9 680.2,607.2 681.2,607.8 682.2,609.3 683.1,608.8 684.1,607.9 685.1,608.4 686.1,608.8 687,608.4 688,607.6 689,607.4 690,608.4 690.9,609.8 691.9,610.9 692.9,611.7 693.9,612.1 694.9,612.5 695.8,612.3 696.8,611.7 697.8,610.9 698.8,609.2 699.7,607.9 700.7,607.6 701.7,608.5 702.7,609.2 703.6,609.2 704.6,608.9 705.6,607.9 706.6,607.6 707.5,608.5 708.5,608.8 709.5,610.2 710.5,611.9 711.5,612.3 712.4,612.5 713.4,611.5 714.4,611.9 715.4,611.9 716.3,612.1 717.3,609.9 718.3,607.8 719.3,605 720.2,604.8 721.2,606.6 722.2,607 723.2,607.9 724.2,608.8 725.1,608.4 726.1,608.9 727.1,609.6 728.1,609.8 729,609.9 730,610.9 731,610.5 732,610.3 732.9,609.3 733.9,608.5 734.9,607 735.9,607.9 736.9,608.2 737.8,608.9 738.8,608.8 739.8,608.5 740.8,609.3 741.7,607.9 742.7,608.4 743.7,609.6 744.7,608.9 745.6,609.6 746.6,610.5 747.6,610.5 748.6,610.7 749.5,610.9 750.5,609.8 751.5,608.8 752.5,607.9 753.5,607.8 754.4,608.5 755.4,608.5 756.4,609.2 757.4,608.8 758.3,608.4 759.3,608.5 760.3,608.8 761.3,610.3 762.2,610.5 763.2,610.7 764.2,611.3 765.2,612.7 766.2,611.7 767.1,613.3 768.1,613.1 769.1,613.1 770.1,613.3 771,612.7 772,613.1 773,612.7 774,612.9 774.9,611.5 775.9,611.3 776.9,609.3 777.9,608.8 778.8,607.9 779.8,607.9 780.8,607.8 781.8,607.4 782.8,607.8 783.7,607.9 784.7,609.2 785.7,608.8 786.7,609.3 787.6,609.6 788.6,609.6 789.6,609.6 790.6,610.3 791.5,611.3 792.5,610.7 793.5,610.7 794.5,610.2 795.5,610.2 796.4,609.2 797.4,608.9 798.4,607.8 799.4,607.4 800.3,607.8 801.3,607.6 802.3,607.9 803.3,607.8 804.2,608.4 805.2,608.5 806.2,608.4 807.2,608.4 808.2,608.5 809.1,608.5 810.1,609.2 811.1,608.9 812.1,608.5 813,608.8 814,608.2 815,608.4 816,609.8 816.9,609.9 817.9,610.9 818.9,611.1 819.9,611.1 820.8,611.5 821.8,612.1 822.8,612.1 823.8,611.9 824.8,611.1 825.7,611.7 826.7,611.7 827.7,611.3 828.7,611.1 829.6,610.9 830.6,610.7 831.6,609.6 832.6,608.9 833.5,607.8 834.5,607.8 835.5,607.6 836.5,606.6 837.5,607.4 838.4,607 839.4,608.2 840.4,607.8 841.4,607.8 842.3,607.8 843.3,609.3 844.3,609.2 845.3,609.3 846.2,609.8 847.2,609.6 848.2,609.8 849.2,611.1 850.1,611.5 851.1,611.5 852.1,611.7 853.1,612.3 854.1,612.3 855,611.3 856,611.3 857,609.2 858,608.5 858.9,607.4 859.9,607 860.9,607.8 861.9,607.6 862.8,608.5 863.8,608.8 864.8,608.8 865.8,608.5 866.8,609.2 867.7,608.9 868.7,608.9 869.7,608.9 870.7,609.2 871.6,608.5 872.6,608.2 873.6,608.5 874.6,608.8 875.5,609.2 876.5,609.3 877.5,608.9 878.5,610.9 879.5,610.5 880.4,611.5 881.4,611.9 882.4,612.7 883.4,612.7 884.3,613.3 885.3,613.4 886.3,612.9 887.3,612.9 888.2,613.3 889.2,613.3 890.2,612.5 891.2,612.7 892.1,611.9 893.1,611.5 894.1,610.3 895.1,609.9 896.1,608.2 897,608.4 898,605.4 899,605.4 900,605.2 900.9,604.4 901.9,606 902.9,606.2 903.9,606.8 904.8,606.8 905.8,608.5 906.8,609.2 907.8,609.8 908.8,610.2 909.7,610.5 910.7,610.5 911.7,610.5 912.7,610.3 913.6,610.9 914.6,611.3 915.6,611.5 916.6,611.1 917.5,610.3 918.5,610.3 919.5,608.5 920.5,608.4 921.4,606.6 922.4,607.2 923.4,606.2 924.4,606.4 925.4,607 926.3,607 927.3,607.6 928.3,607.6 929.3,607.9 930.2,608.5 931.2,607.8 932.2,607.9 933.2,607.8 934.1,607.9 935.1,609.6 936.1,609.2 937.1,609.3 938.1,609.3 939,609.8 940,609.6 941,610.2 942,610.5 942.9,610.3 943.9,610.2 944.9,609.8 945.9,610.2 946.8,610.3 947.8,609.9 948.8,609.9 949.8,609.9 950.8,609.2 951.7,609.3 952.7,608.2 953.7,607.8 954.7,605.6 955.6,605.6 956.6,605.6 957.6,605.4 958.6,606.4 959.5,607.2 960.5,607.4 961.5,607.8 962.5,607.4 963.4,607.9 964.4,608.8 965.4,607.9 966.4,609.3 967.4,608.8 968.3,609.8 969.3,610.2 970.3,609.6 971.3,609.9 972.2,609.8 973.2,609.6 974.2,609.3 975.2,609.6 976.1,609.3 977.1,609.8 978.1,608.9 979.1,609.2 980.1,609.2 981,609.2 982,609.3 983,608.9 984,609.2 984.9,608.9 985.9,609.9 986.9,609.8 987.9,609.9 988.8,609.9 989.8,610.2 990.8,609.9 991.8,610.3 992.7,610.5 993.7,609.8 994.7,609.6 995.7,608.9 996.7,608.8 997.6,607.6 998.6,607.6 999.6,607.9 1000.6,607.9 1001.5,608.2 1002.5,608.2 1003.5,609.2 1004.5,608.9 1005.4,609.6 1006.4,609.3 1007.4,609.6 1008.4,609.8 1009.4,610.7 1010.3,610.9 1011.3,610.3 1012.3,609.8 1013.3,609.6 1014.2,609.6 1015.2,608.8 1016.2,608.8 1017.2,609.2 1018.1,608.4 1019.1,606.8 1020.1,606.6 1021.1,607.9 1022.1,607.6 1023,607.2 1024,607.4 1025,607.8 1026,608.2 1026.9,607.6 1027.9,607.4 1028.9,606.8 1029.9,606.6 1030.8,607 1031.8,607.2 1032.8,607.6 1033.8,607.8 1034.7,608.8 1035.7,608.9 1036.7,610.2 1037.7,610.2 1038.7,611.5 1039.6,611.5 1040.6,611.9 1041.6,612.1 1042.6,612.9 1043.5,613.1 1044.5,612.9 1045.5,613.1 1046.5,613.3 1047.4,613.1 1048.4,613.3 1049.4,613.1 1050.4,611.5 1051.4,611.3 1052.3,610.7 1053.3,610.7 1054.3,608.9 1055.3,608.8 1056.2,608.2 1057.2,608.2 1058.2,606.6 1059.2,606.8 1060.1,607.6 1061.1,607.9 1062.1,609.6 1063.1,608.9 1064.1,609.9 1065,610.3 1066,611.1 1067,611.1 1068,611.3 1068.9,611.7 1069.9,611.3 1070.9,611.5 1071.9,610.3 1072.8,610.2 1073.8,607.9 1074.8,607.9 1075.8,607.2 1076.7,607 1077.7,606.6 1078.7,606.6 1079.7,607.2 1080.7,607 1081.6,607.6 1082.6,607.2 1083.6,608.4 1084.6,607.9 1085.5,608.2 1086.5,607.2 1087.5,609.2 1088.5,609.6 1089.4,609.9 1090.4,610.2 1091.4,610.5 1092.4,610.3 1093.4,611.1 1094.3,611.1 1095.3,610.7 1096.3,610.9 1097.3,610.3 1098.2,609.9 1099.2,607.9 1100.2,607.9 1101.2,607 1102.1,607.6 1103.1,607.2 1104.1,607 1105.1,607.8 1106,607.4 1107,608.8 1108,609.2 1109,609.3 1110,609.2 1110.9,609.9 1111.9,609.8 1112.9,609.6 1113.9,609.8 1114.8,609.8 1115.8,609.8 1116.8,610.5 1117.8,610.5 1118.7,610.5 1119.7,609.9 1120.7,609.3 1121.7,609.2 1122.7,607.9 1123.6,607.4 1124.6,607.8 1125.6,607.6 1126.6,608.5 1127.5,608.5 1128.5,609.3 1129.5,609.3 1130.5,609.2 1131.4,609.6 1132.4,609.8 1133.4,609.8 1134.4,609.6 1135.4,609.9 1136.3,608.9 1137.3,608.4 1138.3,608.9 1139.3,609.3 1140.2,608.2 1141.2,607.9 1142.2,607.4 1143.2,607.4 1144.1,607.9 1145.1,607.8 1146.1,607.8 1147.1,607.8 1148,607.4 1149,607.4 1150,608.2 1151,607.9 1152,608.5 1152.9,608.4 1153.9,608.2 1154.9,608.2 1155.9,608.5 1156.8,607.9 1157.8,609.6 1158.8,609.8 1159.8,611.3 1160.7,611.3 1161.7,610.7 1162.7,610.7 1163.7,610.9 1164.7,610.5 1165.6,611.7 1166.6,611.3 1167.6,611.7 1168.6,611.7 1169.5,611.1 1170.5,611.3 1171.5,610.7 1172.5,610.5 1173.4,608.8 1174.4,608.2 1175.4,607 1176.4,606.2 1177.3,606.4 1178.3,606.6 1179.3,607.9 1180.3,607.8 1181.3,608.4 1182.2,608.4 1183.2,608.9 1184.2,608.5 1185.2,610.5 1186.1,609.9 1187.1,610.9 1188.1,610.7 1189.1,610.9 1190,611.5 1191,611.1 1192,611.5 1193,612.1 1194,611.9 1194.9,610.5 1195.9,610.5 1196.9,608.8 1197.9,609.2 1198.8,607 1199.8,607 1200.8,607.8 1201.8,607.2 1202.7,607.4 1203.7,607.6 1204.7,607.9 1205.7,607.8 1206.7,608.8 1207.6,608.5 1208.6,610.5 1209.6,610.3 1210.6,608.9 1211.5,608.5 1212.5,609.9 1213.5,609.8 1214.5,609.6 1215.4,609.3 1216.4,609.2 1217.4,608.9 1218.4,610.7 1219.3,610.7 1220.3,611.5 1221.3,611.7 1222.3,611.5 1223.3,611.1 1224.2,610.7 1225.2,610.9 1226.2,609.6 1227.2,609.6 1228.1,608.9 1229.1,608.9 1230.1,607.8 1231.1,607.6 1232,607.8 1233,607.9 1234,608.8 1235,608.5 1236,609.2 1236.9,609.8 1237.9,609.6 1238.9,609.8 1239.9,609.2 1240.8,608.9 1241.8,609.6 1242.8,609.2 1243.8,610.9 1244.7,610.2 1245.7,610.3 1246.7,610.3 1247.7,610.2 1248.6,609.9 1249.6,608.8 1250.6,608.8 1251.6,609.2 1252.6,609.3 1253.5,608.9 1254.5,608.2 1255.5,608.9 1256.5,608.9 1257.4,608.5 1258.4,607.8 1259.4,607.6 1260.4,607.6 1261.3,607.6 1262.3,607.8 1263.3,607 1264.3,607.4 1265.3,607.6 1266.2,607.4 1267.2,607.2 1268.2,607.2 1269.2,607.9 1270.1,607.8 1271.1,609.3 1272.1,609.3 1273.1,610.5 1274,610.2 1275,610.3 1276,609.8 1277,610.7 1278,610.7 1278.9,611.5 1279.9,611.3 1280.9,611.7 1281.9,611.9 1282.8,611.7 1283.8,611.3 1284.8,610.3 1285.8,610.5 1286.7,609.8 1287.7,609.2 1288.7,607.6 1289.7,607.8 1290.6,607.6 1291.6,607.9 1292.6,608.8 1293.6,608.8 1294.6,609.8 1295.5,610.2 1296.5,610.5 1297.5,610.9 1298.5,611.7 1299.4,611.9 1300.4,611.3 1301.4,610.5 1302.4,609.3 1303.3,609.2 1304.3,608.5 1305.3,607.9 1306.3,607.9 1307.3,608.2 1308.2,608.9 1309.2,609.3 1310.2,610.3 1311.2,610.7 1312.1,610.5 1313.1,610.5 1314.1,609.2 1315.1,609.3 1316,608.8 1317,608.5 1318,607.6 1319,607.9 1319.9,607.6 1320.9,607.4 1321.9,607.2 1322.9,606.8 1323.9,608.4 1324.8,607.9 1325.8,607.9 1326.8,608.2 1327.8,608.2 1328.7,608.4 1329.7,607.2 1330.7,607 1331.7,606.6 1332.6,606.6 1333.6,608.2 1334.6,608.4 1335.6,608.4 1336.6,608.4 1337.5,608.9 1338.5,609.6 1339.5,610.5 1340.5,610.5 1341.4,610.5 1342.4,610.7 1343.4,612.9 1344.4,612.7 1345.3,613.4 1346.3,613.4 1347.3,614.4 1348.3,614.3 1349.3,613.1 1350.2,613.1 1351.2,611.7 1352.2,611.3 1353.2,610.7 1354.1,610.7 1355.1,608.2 1356.1,608.2 1357.1,607 1358,606.6 1359,606.2 1360,606.2 1361,607 1361.9,607 1362.9,608.4 1363.9,608.8 1364.9,609.9 1365.9,610.2 1366.8,610.3 1367.8,610.5 1368.8,611.1 1369.8,610.9 1370.7,611.1 1371.7,611.1 1372.7,611.1 1373.7,610.9 1374.6,609.6 1375.6,609.3 1376.6,617.8 1377.6,617.4 " />
</g>

<g fill="none" stroke="#000000" stroke-opacity="1" stroke-width="1" stroke-linecap="square" stroke-linejoin="bevel" transform="matrix(1.0028,0,0,1.0028,0,0)"
font-family="Cantarell" font-size="11" font-weight="400" font-style="normal" 
>
</g>

<g fill="none" stroke="#000000" stroke-opacity="1" stroke-width="1" stroke-linecap="square" stroke-linejoin="bevel" transform="matrix(1.0028,0,0,1.0028,1167.4,32.5911)"
font-family="Cantarell" font-size="11" font-weight="400" font-style="normal" 
>
</g>

<g fill="none" stroke="#000000" stroke-opacity="1" stroke-width="1" stroke-linecap="square" stroke-linejoin="bevel" transform="matrix(1.0028,0,0,1.0028,1167.4,32.5911)"
font-family="Cantarell" font-size="11" font-weight="400" font-style="normal" 
>
</g>

<g fill="none" stroke="#000000" stroke-opacity="1" stroke-width="1" stroke-linecap="square" stroke-linejoin="bevel" transform="matrix(1.0028,0,0,1.0028,1167.4,32.5911)"
font-family="Cantarell" font-size="11" font-weight="400" font-style="normal" 
>
</g>

<g fill="none" stroke="#000000" stroke-opacity="1" stroke-width="1" stroke-linecap="square" stroke-linejoin="bevel" transform="matrix(1.0028,0,0,1.0028,1167.4,32.5911)"
font-family="Cantarell" font-size="11" font-weight="400" font-style="normal" 
>
<text fill="#000000" fill-opacity="1" stroke="none" xml:space="preserve" x="4" y="16" font-family="Sans" font-size="9" font-weight="400" font-style="normal" 
 >'monitor_data.dat' using 0:col</text>
</g>

<g fill="none" stroke="#000000" stroke-opacity="1" stroke-width="1" stroke-linecap="square" stroke-linejoin="bevel" transform="matrix(1.0028,0,0,1.0028,1167.4,32.5911)"
font-family="Cantarell" font-size="11" font-weight="400" font-style="normal" 
>
</g>

<g fill="none" stroke="#000000" stroke-opacity="1" stroke-width="1" stroke-linecap="square" stroke-linejoin="bevel" transform="matrix(1,0,0,1,0,0)"
font-family="Cantarell" font-size="11" font-weight="400" font-style="normal" 
>
</g>

<g fill="none" stroke="#000000" stroke-opacity="1" stroke-width="1" stroke-linecap="square" stroke-linejoin="bevel" transform="matrix(1.0028,0,0,1.0028,1167.4,32.5911)"
font-family="Cantarell" font-size="11" font-weight="400" font-style="normal" 
>
</g>

<g fill="none" stroke="#000000" stroke-opacity="1" stroke-width="1" stroke-linecap="square" stroke-linejoin="bevel" transform="matrix(1.0028,0,0,1.0028,1167.4,32.5911)"
font-family="Cantarell" font-size="11" font-weight="400" font-style="normal" 
>
</g>

<g fill="none" stroke="#000000" stroke-opacity="1" stroke-width="1" stroke-linecap="square" stroke-linejoin="bevel" transform="matrix(1.0028,0,0,1.0028,1167.4,32.5911)"
font-family="Cantarell" font-size="11" font-weight="400" font-style="normal" 
>
</g>

<g fill="none" stroke="#000000" stroke-opacity="1" stroke-width="1" stroke-linecap="square" stroke-linejoin="bevel" transform="matrix(1.0028,0,0,1.0028,0,0)"
font-family="Cantarell" font-size="11" font-weight="400" font-style="normal" 
>
</g>

<g fill="none" stroke="#009e73" stroke-opacity="1" stroke-width="1" stroke-linecap="round" stroke-linejoin="round" transform="matrix(1.0028,0,0,1.0028,0,0)"
font-family="Cantarell" font-size="11" font-weight="400" font-style="normal" 
>
<path vector-effect="none" fill-rule="evenodd" d="M1357.5,43.5 L1391.5,43.5"/>
</g>

<g fill="none" stroke="#000000" stroke-opacity="1" stroke-width="1" stroke-linecap="square" stroke-linejoin="bevel" transform="matrix(1.0028,0,0,1.0028,0,0)"
font-family="Cantarell" font-size="11" font-weight="400" font-style="normal" 
>
</g>

<g fill="none" stroke="#000000" stroke-opacity="1" stroke-width="1" stroke-linecap="square" stroke-linejoin="bevel" transform="matrix(1.0028,0,0,1.0028,0,0)"
font-family="Cantarell" font-size="11" font-weight="400" font-style="normal" 
>
</g>

<g fill="none" stroke="#000000" stroke-opacity="1" stroke-width="1" stroke-linecap="square" stroke-linejoin="bevel" transform="matrix(1.0028,0,0,1.0028,0,0)"
font-family="Cantarell" font-size="11" font-weight="400" font-style="normal" 
>
</g>

<g fill="none" stroke="#000000" stroke-opacity="1" stroke-width="1" stroke-linecap="square" stroke-linejoin="bevel" transform="matrix(1.0028,0,0,1.0028,0,0)"
font-family="Cantarell" font-size="11" font-weight="400" font-style="normal" 
>
</g>

<g fill="none" stroke="#009e73" stroke-opacity="1" stroke-width="1" stroke-linecap="round" stroke-linejoin="round" transform="matrix(1.0028,0,0,1.0028,0,0)"
font-family="Cantarell" font-size="11" font-weight="400" font-style="normal" 
>
<polyline fill="none" vector-effect="none" points="38.5,286.2 38.5,286.2 39.5,286.1 40.5,286.6 41.4,285.6 42.4,285.3 43.4,285.3 44.4,284.7 45.3,284 46.3,281.6 47.3,281.7 48.3,281.6 49.2,281.6 50.2,281.7 51.2,281.6 52.2,281 53.2,281 54.1,279.6 55.1,278.9 56.1,279.4 57.1,278.9 58,277.3 59,276.9 60,276.9 61,276.6 61.9,274.7 62.9,274.2 63.9,274.2 64.9,272.6 65.8,270.9 66.8,270.2 67.8,269.9 68.8,269.5 69.8,266.5 70.7,266.2 71.7,266.1 72.7,266 73.7,264.5 74.6,263.7 75.6,263.5 76.6,264.4 77.6,263.5 78.5,262.8 79.5,262.6 80.5,262.3 81.5,263.7 82.5,263.9 83.4,264 84.4,264.3 85.4,264.6 86.4,264.1 87.3,263.8 88.3,264.9 89.3,263.7 90.3,263.5 91.2,263.3 92.2,263.6 93.2,263.7 94.2,264 95.1,263.9 96.1,263.2 97.1,263.6 98.1,263 99.1,263.3 100,262.8 101,262.1 102,262.2 103,262.2 103.9,261.8 104.9,259.9 105.9,259.5 106.9,259.6 107.8,258.8 108.8,256.5 109.8,256.3 110.8,256.1 111.8,255.6 112.7,252.3 113.7,252.4 114.7,252.2 115.7,252.2 116.6,251 117.6,250.9 118.6,251 119.6,250 120.5,248.2 121.5,248.7 122.5,248.4 123.5,247.9 124.5,248.9 125.4,249.1 126.4,249.5 127.4,250.1 128.4,252.9 129.3,252.1 130.3,253.1 131.3,252.6 132.3,251.7 133.2,251.9 134.2,251.8 135.2,252.2 136.2,250 137.1,249.3 138.1,249.7 139.1,249.2 140.1,248.3 141.1,247.4 142,247 143,247 144,247 145,247.3 145.9,247 146.9,247.6 147.9,246.9 148.9,246.4 149.8,246.4 150.8,247 151.8,246.1 152.8,245.4 153.8,245.5 154.7,244.5 155.7,240.9 156.7,240.8 157.7,241 158.6,238.9 159.6,236.6 160.6,237 161.6,236.9 162.5,235.4 163.5,236.1 164.5,235.7 165.5,235.2 166.4,236.2 167.4,234.6 168.4,234.6 169.4,234.5 170.4,236.6 171.3,236.7 172.3,236.9 173.3,237.4 174.3,238.8 175.2,240.8 176.2,241.1 177.2,240.9 178.2,242 179.1,240.5 180.1,241.4 181.1,241.1 182.1,240.5 183.1,238.5 184,238.3 185,238.5 186,237.1 187,236.7 187.9,236.9 188.9,237.4 189.9,236.4 190.9,236.6 191.8,235.9 192.8,235.4 193.8,235.1 194.8,234.2 195.8,233.8 196.7,233.9 197.7,233.8 198.7,232.1 199.7,231.8 200.6,231.8 201.6,231.9 202.6,231.4 203.6,231.4 204.5,231.8 205.5,231.2 206.5,226.9 207.5,226.8 208.4,226.7 209.4,226.2 210.4,225.5 211.4,225.8 212.4,226 213.3,225.2 214.3,225.4 215.3,224.3 216.3,224.2 217.2,224.8 218.2,226 219.2,226.8 220.2,226.3 221.1,226.1 222.1,227.9 223.1,228.7 224.1,228.4 225.1,227.8 226,226.2 227,226.5 228,226.8 229,226.6 229.9,226.5 230.9,227.1 231.9,227.5 232.9,226.4 233.8,225.8 234.8,225.1 235.8,224.9 236.8,225 237.7,224.7 238.7,225 239.7,224.7 240.7,224.7 241.7,224.3 242.6,224.4 243.6,224.6 244.6,224.6 245.6,222.6 246.5,221.6 247.5,221.7 248.5,221.4 249.5,220.1 250.4,219.5 251.4,219.6 252.4,218.4 253.4,215.9 254.4,216.4 255.3,216.5 256.3,215.7 257.3,211.8 258.3,211.1 259.2,211.3 260.2,211 261.2,208.6 262.2,207.8 263.1,208.2 264.1,207.9 265.1,206.8 266.1,206.8 267.1,206.8 268,207.6 269,207.7 270,207.3 271,207.5 271.9,207.3 272.9,208 273.9,208.2 274.9,207.8 275.8,208.7 276.8,211.4 277.8,212.1 278.8,211.7 279.7,211.1 280.7,212.9 281.7,212.4 282.7,212.7 283.7,213.6 284.6,212.6 285.6,212.3 286.6,212.2 287.6,212.3 288.5,209.1 289.5,208.5 290.5,208.4 291.5,208 292.4,206.4 293.4,207.3 294.4,207 295.4,206.1 296.4,205.6 297.3,205.5 298.3,205.3 299.3,205.9 300.3,203.3 301.2,203.2 302.2,203.3 303.2,203.8 304.2,200.2 305.1,200.3 306.1,200.4 307.1,199.3 308.1,198.7 309,198.3 310,198.2 311,198.5 312,199.6 313,200.2 313.9,199.7 314.9,200.1 315.9,200.3 316.9,200.7 317.8,200.2 318.8,200.3 319.8,198 320.8,198.4 321.7,198.3 322.7,198.7 323.7,198.1 324.7,197.9 325.7,198 326.6,198 327.6,196.2 328.6,196.3 329.6,196.4 330.5,196 331.5,195.4 332.5,195.2 333.5,194.9 334.4,194.8 335.4,193.2 336.4,192.8 337.4,192.7 338.4,192.5 339.3,192.7 340.3,192.6 341.3,192.5 342.3,193.4 343.2,193.5 344.2,193.7 345.2,193.3 346.2,193.4 347.1,192.6 348.1,194 349.1,193.9 350.1,191.8 351,193.9 352,193.8 353,193.3 354,193.7 355,194.1 355.9,194.4 356.9,194.8 357.9,194.5 358.9,194.4 359.8,194.1 360.8,194 361.8,193.5 362.8,193.3 363.7,192.3 364.7,192.9 365.7,191.9 366.7,189.1 367.7,188.7 368.6,188.7 369.6,187.8 370.6,186.9 371.6,186.8 372.5,186.5 373.5,186.3 374.5,183.8 375.5,183.6 376.4,183.4 377.4,182.7 378.4,181.9 379.4,181.9 380.4,182 381.3,182.3 382.3,183.6 383.3,183.6 384.3,183.8 385.2,183.9 386.2,185.1 387.2,186.4 388.2,186.3 389.1,186.2 390.1,185.6 391.1,186.3 392.1,186.2 393,185.2 394,185.1 395,185.2 396,185.2 397,185 397.9,185 398.9,185.1 399.9,185 400.9,185.6 401.8,185.4 402.8,185.4 403.8,185.5 404.8,185.5 405.7,183.7 406.7,183.2 407.7,183.8 408.7,183.2 409.7,180.7 410.6,180.8 411.6,180.7 412.6,180.7 413.6,177.9 414.5,177.7 415.5,177.7 416.5,177.7 417.5,577.7 418.4,576.7 419.4,565.1 420.4,558.5 421.4,556 422.3,550.8 423.3,549.6 424.3,543.4 425.3,543.5 426.3,539.5 427.2,542.1 428.2,537.5 429.2,538 430.2,539.9 431.1,540.9 432.1,543.2 433.1,543 434.1,542.7 435,540.6 436,537.1 437,529.3 438,524.2 439,517 439.9,514.7 440.9,513.4 441.9,510.4 442.9,511.8 443.8,510.3 444.8,513.6 445.8,506.5 446.8,499.5 447.7,496.1 448.7,490.8 449.7,484.2 450.7,478.3 451.7,474.8 452.6,468.7 453.6,465 454.6,464.6 455.6,464.3 456.5,458.4 457.5,458.5 458.5,456.3 459.5,452 460.4,459.4 461.4,450.4 462.4,444.8 463.4,443.3 464.3,438.2 465.3,433.2 466.3,428.1 467.3,422.3 468.3,423.1 469.2,417.7 470.2,415.5 471.2,413.1 472.2,411.3 473.1,414.2 474.1,408.5 475.1,409.5 476.1,403.8 477,399.3 478,399.9 479,397.2 480,393.3 481,391.8 481.9,388.5 482.9,384.3 483.9,377.5 484.9,375.9 485.8,373.4 486.8,375.8 487.8,372.7 488.8,367.7 489.7,364.6 490.7,368.3 491.7,367.1 492.7,364.8 493.6,363.1 494.6,361.5 495.6,357.6 496.6,354.1 497.6,352.1 498.5,349.1 499.5,346.3 500.5,344.7 501.5,341.1 502.4,332.5 503.4,327.6 504.4,322.5 505.4,320 506.3,321.7 507.3,318.7 508.3,318.7 509.3,329.1 510.3,329.2 511.2,322.9 512.2,325.3 513.2,324.6 514.2,318.8 515.1,318.3 516.1,313.1 517.1,310.7 518.1,309.1 519,310.2 520,305.8 521,304.9 522,298.6 523,293.9 523.9,287.6 524.9,282.1 525.9,283.4 526.9,279.7 527.8,275.3 528.8,282.5 529.8,282 530.8,274.5 531.7,282 532.7,288 533.7,281.3 534.7,281.9 535.6,285.9 536.6,275.3 537.6,275.3 538.6,273.6 539.6,270.1 540.5,272.8 541.5,266.9 542.5,263.1 543.5,260.5 544.4,254.1 545.4,252.1 546.4,248.5 547.4,248.7 548.3,255.2 549.3,247.9 550.3,246.1 551.3,247.1 552.3,245.7 553.2,257.5 554.2,258.8 555.2,249.3 556.2,245.8 557.1,244 558.1,244.8 559.1,244.7 560.1,242 561,242 562,241.1 563,235.4 564,232.3 564.9,227 565.9,221.3 566.9,215.4 567.9,213.4 568.9,210.6 569.8,214.2 570.8,210.9 571.8,208.7 572.8,212.3 573.7,218 574.7,225.4 575.7,237.1 576.7,224.9 577.6,220.4 578.6,210.6 579.6,210.2 580.6,212.5 581.6,200.5 582.5,200.9 583.5,203.9 584.5,203 585.5,200.1 586.4,198.4 587.4,204.4 588.4,201.9 589.4,199.4 590.3,210.8 591.3,198.9 592.3,198 593.3,196.4 594.3,197.7 595.2,191.8 596.2,190.2 597.2,187.8 598.2,192.8 599.1,181.9 600.1,174.9 601.1,175.3 602.1,175.7 603,172.5 604,172.6 605,173.8 606,178 606.9,177.5 607.9,185.8 608.9,187.9 609.9,177.6 610.9,177.3 611.8,175.1 612.8,176.9 613.8,174.2 614.8,170.6 615.7,174.7 616.7,174.1 617.7,162.2 618.7,161.5 619.6,165.7 620.6,169.3 621.6,166.9 622.6,162.3 623.6,165 624.5,157.9 625.5,164.2 626.5,169.3 627.5,161.5 628.4,160.9 629.4,163.4 630.4,159.8 631.4,162.9 632.3,165.5 633.3,163.5 634.3,154.2 635.3,153.2 636.2,151.9 637.2,150.3 638.2,149.1 639.2,151.8 640.2,144.8 641.1,150.9 642.1,145.7 643.1,142.2 644.1,144.9 645,162.6 646,156.4 647,162.7 648,153.3 648.9,164.4 649.9,150.2 650.9,148.5 651.9,148 652.9,148.7 653.8,147.3 654.8,144.1 655.8,142.7 656.8,142 657.7,137.6 658.7,136 659.7,132.5 660.7,129.1 661.6,130.6 662.6,135.3 663.6,138.1 664.6,146.4 665.6,145.2 666.5,144.9 667.5,141.2 668.5,141.9 669.5,140.5 670.4,139.1 671.4,138 672.4,137.2 673.4,133.9 674.3,131 675.3,135.6 676.3,128.8 677.3,132 678.2,132.3 679.2,142.3 680.2,135.6 681.2,134 682.2,142.5 683.1,133.3 684.1,132 685.1,133.6 686.1,130 687,133.7 688,134.7 689,135.4 690,134.5 690.9,128.8 691.9,123.9 692.9,121 693.9,119 694.9,123.8 695.8,119 696.8,121.8 697.8,118.4 698.8,123.4 699.7,129.6 700.7,134.3 701.7,127.8 702.7,130.2 703.6,123.8 704.6,121.9 705.6,123.9 706.6,128 707.5,125.5 708.5,124.5 709.5,120.2 710.5,116.4 711.5,112.4 712.4,112.8 713.4,110.3 714.4,112.5 715.4,121.7 716.3,114.6 717.3,117.9 718.3,126.9 719.3,132.8 720.2,132.4 721.2,126.4 722.2,121.9 723.2,122.1 724.2,116.2 725.1,120 726.1,116.9 727.1,116.2 728.1,112.4 729,111.9 730,107.8 731,107 732,114.6 732.9,110 733.9,111.1 734.9,116.8 735.9,119.3 736.9,113.2 737.8,112.8 738.8,109.8 739.8,109.7 740.8,120.2 741.7,111.4 742.7,113.9 743.7,107.9 744.7,107.9 745.6,107.9 746.6,106.5 747.6,102.8 748.6,103.3 749.5,102.5 750.5,106.9 751.5,106 752.5,114.9 753.5,116.5 754.4,112.3 755.4,107.4 756.4,109 757.4,107.3 758.3,107.4 759.3,106.9 760.3,108 761.3,103.2 762.2,103.5 763.2,100.2 764.2,100.9 765.2,94.8 766.2,94.8 767.1,92.8 768.1,92.1 769.1,91.6 770.1,90.4 771,92.4 772,92.9 773,96.3 774,96.6 774.9,92 775.9,96.3 776.9,98.9 777.9,100.5 778.8,107.3 779.8,110.7 780.8,108.5 781.8,105.9 782.8,106.6 783.7,107.3 784.7,105 785.7,103 786.7,98.6 787.6,100.7 788.6,100.1 789.6,99 790.6,98.7 791.5,105.3 792.5,96.9 793.5,94 794.5,96.2 795.5,95.6 796.4,104.3 797.4,100.4 798.4,104.8 799.4,105.3 800.3,109.7 801.3,106 802.3,105.6 803.3,108 804.2,103.3 805.2,103.8 806.2,107.9 807.2,108.5 808.2,102.1 809.1,102.6 810.1,101 811.1,101.4 812.1,101.2 813,102.1 814,103.4 815,105.1 816,100.1 816.9,99.4 817.9,95.6 818.9,94.9 819.9,91.9 820.8,92 821.8,92.9 822.8,92.4 823.8,91 824.8,91.4 825.7,89.3 826.7,88.9 827.7,94.7 828.7,91 829.6,95.9 830.6,95.8 831.6,98.6 832.6,95.3 833.5,102 834.5,102.9 835.5,109.7 836.5,103.9 837.5,109.2 838.4,105 839.4,101.4 840.4,99.7 841.4,100.9 842.3,100.1 843.3,103.7 844.3,98.3 845.3,94.5 846.2,96.6 847.2,94.3 848.2,94.7 849.2,91.4 850.1,92.9 851.1,96.1 852.1,93.5 853.1,91.1 854.1,92.8 855,92.5 856,93.1 857,94.5 858,94.5 858.9,104 859.9,108.9 860.9,107.3 861.9,104.5 862.8,102.7 863.8,97.1 864.8,98.8 865.8,95.8 866.8,95.2 867.7,94.1 868.7,94.1 869.7,95.6 870.7,95.1 871.6,94.7 872.6,100.7 873.6,102.3 874.6,96.4 875.5,96 876.5,96.2 877.5,97.8 878.5,93.2 879.5,91.9 880.4,89.5 881.4,89.1 882.4,86.3 883.4,84.2 884.3,82.6 885.3,82.3 886.3,82.2 887.3,82.8 888.2,88.3 889.2,88.3 890.2,81.4 891.2,81.3 892.1,85.8 893.1,87.6 894.1,90.4 895.1,93.6 896.1,101.8 897,99.5 898,111.6 899,113.4 900,113.7 900.9,109.9 901.9,112.2 902.9,120.3 903.9,99.3 904.8,99.5 905.8,94.4 906.8,97.6 907.8,91.7 908.8,92.2 909.7,93.5 910.7,91.6 911.7,87.9 912.7,87.9 913.6,85.9 914.6,86.3 915.6,85.9 916.6,87.8 917.5,86.2 918.5,86.8 919.5,98.1 920.5,94.1 921.4,96.3 922.4,103.3 923.4,104.8 924.4,104.3 925.4,100.2 926.3,97.5 927.3,100.6 928.3,103.7 929.3,95.5 930.2,96.8 931.2,94.7 932.2,94.5 933.2,96.7 934.1,97 935.1,100.3 936.1,94.9 937.1,93.9 938.1,93.9 939,91.1 940,90.8 941,94.5 942,89.3 942.9,86.3 943.9,86.7 944.9,87 945.9,94.7 946.8,91.4 947.8,88.5 948.8,90.2 949.8,87.9 950.8,88.9 951.7,92.4 952.7,99.5 953.7,100.2 954.7,103.2 955.6,114.2 956.6,110.9 957.6,108.6 958.6,101 959.5,107.6 960.5,99.5 961.5,98.6 962.5,95.5 963.4,102.6 964.4,93.5 965.4,91.6 966.4,91 967.4,90.4 968.3,92.3 969.3,95.3 970.3,89.2 971.3,90.1 972.2,93.8 973.2,89.7 974.2,87.4 975.2,90.3 976.1,89.5 977.1,89 978.1,88.1 979.1,89.2 980.1,91.7 981,94 982,97.7 983,94.2 984,91.5 984.9,97.2 985.9,93.3 986.9,89.7 987.9,85.2 988.8,85.1 989.8,86.9 990.8,86.1 991.8,85.2 992.7,83.9 993.7,87 994.7,86.6 995.7,93 996.7,91.6 997.6,92.1 998.6,93.4 999.6,94.4 1000.6,103.3 1001.5,93.8 1002.5,94.7 1003.5,90.9 1004.5,91.7 1005.4,89.2 1006.4,88.5 1007.4,86.7 1008.4,89.6 1009.4,94.5 1010.3,91.6 1011.3,91.2 1012.3,86.2 1013.3,88.6 1014.2,92 1015.2,92.1 1016.2,90.9 1017.2,102.8 1018.1,92.8 1019.1,94.6 1020.1,97.2 1021.1,99.6 1022.1,95.2 1023,93.7 1024,95.8 1025,99.3 1026,96.6 1026.9,92.1 1027.9,92.9 1028.9,98.4 1029.9,98.1 1030.8,100.3 1031.8,98.7 1032.8,99.1 1033.8,98.9 1034.7,98.5 1035.7,96.1 1036.7,93 1037.7,90.2 1038.7,84.9 1039.6,85.8 1040.6,84 1041.6,83.5 1042.6,84.3 1043.5,80.2 1044.5,85.4 1045.5,83.3 1046.5,78.7 1047.4,77.6 1048.4,79.6 1049.4,79.7 1050.4,83.9 1051.4,82.7 1052.3,85.9 1053.3,85.6 1054.3,90.8 1055.3,91.7 1056.2,93.9 1057.2,95.3 1058.2,100.1 1059.2,101.9 1060.1,93.4 1061.1,102.8 1062.1,96.8 1063.1,90.7 1064.1,89.5 1065,91.1 1066,88 1067,85.3 1068,83.2 1068.9,82.6 1069.9,91.2 1070.9,88.5 1071.9,88.9 1072.8,88.1 1073.8,91.5 1074.8,92.1 1075.8,105.1 1076.7,102.6 1077.7,109.1 1078.7,105.8 1079.7,101.3 1080.7,96.6 1081.6,98 1082.6,96.6 1083.6,94.9 1084.6,94.7 1085.5,103 1086.5,97.2 1087.5,101.6 1088.5,101.7 1089.4,88.7 1090.4,88.6 1091.4,85.5 1092.4,85.4 1093.4,84.3 1094.3,86.7 1095.3,87.7 1096.3,89 1097.3,84.8 1098.2,85.7 1099.2,91 1100.2,94.3 1101.2,97.3 1102.1,98.8 1103.1,97.9 1104.1,96.8 1105.1,98.6 1106,95.2 1107,92.2 1108,93.9 1109,91.1 1110,89.3 1110.9,89.3 1111.9,89.2 1112.9,89.7 1113.9,89.9 1114.8,86.2 1115.8,87.1 1116.8,90 1117.8,97.7 1118.7,88.2 1119.7,86 1120.7,89.6 1121.7,92 1122.7,92.7 1123.6,94 1124.6,97.8 1125.6,102.6 1126.6,89.8 1127.5,94 1128.5,91.7 1129.5,90 1130.5,88.6 1131.4,89.7 1132.4,89.6 1133.4,88.5 1134.4,89.9 1135.4,92.3 1136.3,90.8 1137.3,89.4 1138.3,99.2 1139.3,108.3 1140.2,92.7 1141.2,89.9 1142.2,96.2 1143.2,99.5 1144.1,95.9 1145.1,92.9 1146.1,100.3 1147.1,98.7 1148,94.3 1149,92 1150,94.7 1151,94.7 1152,91.5 1152.9,91.6 1153.9,93.4 1154.9,95 1155.9,91.6 1156.8,92.4 1157.8,94.2 1158.8,93 1159.8,85.5 1160.7,84.6 1161.7,87.9 1162.7,86.9 1163.7,84.7 1164.7,84.2 1165.6,90.4 1166.6,85.5 1167.6,87.3 1168.6,83.1 1169.5,83 1170.5,82.8 1171.5,83.7 1172.5,84.7 1173.4,90 1174.4,89.4 1175.4,100.5 1176.4,98.3 1177.3,106.2 1178.3,103.3 1179.3,97.9 1180.3,94.4 1181.3,97.9 1182.2,94.1 1183.2,90.6 1184.2,89.9 1185.2,88.7 1186.1,89.3 1187.1,87.2 1188.1,85 1189.1,84.1 1190,91.7 1191,83.5 1192,82.2 1193,84.1 1194,83.2 1194.9,83.8 1195.9,84.3 1196.9,86.5 1197.9,90.5 1198.8,102.4 1199.8,106.7 1200.8,116 1201.8,120.5 1202.7,95.5 1203.7,96.1 1204.7,98.1 1205.7,99 1206.7,91.8 1207.6,93.7 1208.6,92.7 1209.6,90.7 1210.6,88.9 1211.5,88.7 1212.5,88.5 1213.5,87.2 1214.5,87.1 1215.4,86.9 1216.4,89.7 1217.4,88.1 1218.4,88.2 1219.3,89.6 1220.3,88.9 1221.3,84.8 1222.3,83.7 1223.3,84.7 1224.2,83 1225.2,87 1226.2,89.4 1227.2,93 1228.1,89.1 1229.1,91.6 1230.1,101.6 1231.1,102.2 1232,91.4 1233,97.9 1234,92.2 1235,90.6 1236,90.3 1236.9,90.1 1237.9,87.5 1238.9,89.8 1239.9,87.8 1240.8,87.8 1241.8,95.8 1242.8,98.5 1243.8,127.4 1244.7,102.6 1245.7,92.5 1246.7,87.2 1247.7,88.5 1248.6,85.9 1249.6,92.3 1250.6,91.1 1251.6,92.3 1252.6,90 1253.5,102.8 1254.5,101 1255.5,104.3 1256.5,98.6 1257.4,90.5 1258.4,89.8 1259.4,92.8 1260.4,94.3 1261.3,95.7 1262.3,96.1 1263.3,96.8 1264.3,97.4 1265.3,97.7 1266.2,98.5 1267.2,100.8 1268.2,98.6 1269.2,97.4 1270.1,97.4 1271.1,96.9 1272.1,97.1 1273.1,89.7 1274,89.7 1275,88.8 1276,89.2 1277,89 1278,87.3 1278.9,85.5 1279.9,84.2 1280.9,86.1 1281.9,89.1 1282.8,89.6 1283.8,85.9 1284.8,87 1285.8,92.7 1286.7,98 1287.7,98.9 1288.7,103.2 1289.7,101.9 1290.6,99.1 1291.6,103.4 1292.6,102.2 1293.6,104.4 1294.6,90.6 1295.5,91.8 1296.5,90.9 1297.5,88.1 1298.5,89.6 1299.4,90.8 1300.4,94.1 1301.4,90 1302.4,91.8 1303.3,92 1304.3,101.9 1305.3,98.2 1306.3,111 1307.3,106.5 1308.2,98.7 1309.2,94.5 1310.2,95.7 1311.2,98.6 1312.1,98.9 1313.1,96.3 1314.1,97.2 1315.1,96.6 1316,105.2 1317,99.3 1318,102.6 1319,105.6 1319.9,108.6 1320.9,100.1 1321.9,101 1322.9,100.4 1323.9,100.7 1324.8,101.4 1325.8,97.7 1326.8,100.3 1327.8,99.6 1328.7,100.2 1329.7,101.5 1330.7,101.6 1331.7,105.5 1332.6,105.7 1333.6,103 1334.6,101.6 1335.6,101.6 1336.6,101.3 1337.5,100.3 1338.5,107.6 1339.5,93.7 1340.5,93.7 1341.4,93.3 1342.4,93 1343.4,90.6 1344.4,89 1345.3,84.3 1346.3,85 1347.3,83.2 1348.3,81.5 1349.3,81.7 1350.2,81.7 1351.2,88.8 1352.2,89.2 1353.2,100.8 1354.1,99.3 1355.1,99.6 1356.1,99.1 1357.1,106.2 1358,107.5 1359,110.2 1360,109.5 1361,106.7 1361.9,104.4 1362.9,105.6 1363.9,100.4 1364.9,94.8 1365.9,95.8 1366.8,95.5 1367.8,95.5 1368.8,90.4 1369.8,90.9 1370.7,91.8 1371.7,90.2 1372.7,101.2 1373.7,93.3 1374.6,100.4 1375.6,105.3 1376.6,492 1377.6,500.9 " />
</g>

<g fill="none" stroke="#000000" stroke-opacity="1" stroke-width="1" stroke-linecap="square" stroke-linejoin="bevel" transform="matrix(1.0028,0,0,1.0028,0,0)"
font-family="Cantarell" font-size="11" font-weight="400" font-style="normal" 
>
</g>

<g fill="none" stroke="#000000" stroke-opacity="1" stroke-width="1" stroke-linecap="square" stroke-linejoin="bevel" transform="matrix(1.0028,0,0,1.0028,0,0)"
font-family="Cantarell" font-size="11" font-weight="400" font-style="normal" 
>
</g>

<g fill="none" stroke="#000000" stroke-opacity="1" stroke-width="1" stroke-linecap="round" stroke-linejoin="round" transform="matrix(1.0028,0,0,1.0028,0,0)"
font-family="Cantarell" font-size="11" font-weight="400" font-style="normal" 
>
<polyline fill="none" vector-effect="none" points="38.5,15.5 38.5,636.5 1405.5,636.5 1405.5,15.5 38.5,15.5 " />
</g>

<g fill="none" stroke="#000000" stroke-opacity="1" stroke-width="1" stroke-linecap="square" stroke-linejoin="bevel" transform="matrix(1.0028,0,0,1.0028,0,0)"
font-family="Cantarell" font-size="11" font-weight="400" font-style="normal" 
>
</g>

<g fill="none" stroke="#000000" stroke-opacity="1" stroke-width="1" stroke-linecap="square" stroke-linejoin="bevel" transform="matrix(1,0,0,1,0,0)"
font-family="Cantarell" font-size="11" font-weight="400" font-style="normal" 
>
</g>
</g>
</svg>
